<?xml version="1.0" encoding="utf-8"?>
<!-- Generator: Adobe Illustrator 24.3.0, SVG Export Plug-In . SVG Version: 6.00 Build 0)  -->
<svg version="1.1" id="Layer_1" xmlns="http://www.w3.org/2000/svg" xmlns:xlink="http://www.w3.org/1999/xlink" x="0px" y="0px"
	 viewBox="0 0 512 512" style="enable-background:new 0 0 512 512;" xml:space="preserve">
<style type="text/css">
	.st0{fill:#FFFFFF;}
</style>
<path id="_x30_4.Twitter" class="st0" d="M460.3,129c-15.4,6.7-31.2,11.3-48.1,13.3c17.4-10.2,30.7-26.6,36.9-46.6
	c-16.4,9.7-34.3,16.4-53.2,20.5c-15.4-16.4-37.4-26.6-61.4-26.6c-46.6,0-84,37.9-84,84c0,6.7,0.5,12.8,2,18.9
	c-69.6-3.1-131.1-36.9-172.5-87.6c-29.7,53.2,3.6,97.3,25.6,112.1c-13.3,0-26.6-4.1-37.9-10.2c0,41.5,29.2,75.8,67.1,83.5
	c-8.2,2.6-26.6,4.1-37.9,1.5c10.8,33.3,42,57.9,78.3,58.4c-28.7,22.5-70.7,40.4-124.4,34.8c37.4,24.1,81.4,37.9,129,37.9
	c154.6,0,238.6-128,238.6-238.6c0-3.6,0-7.2-0.5-10.8C435.2,160.8,449.5,145.9,460.3,129L460.3,129z"/>
</svg>
