<?xml version="1.0" encoding="utf-8"?>
<!-- Generator: Adobe Illustrator 25.4.1, SVG Export Plug-In . SVG Version: 6.00 Build 0)  -->
<svg version="1.1" id="facebook_icon" xmlns="http://www.w3.org/2000/svg" xmlns:xlink="http://www.w3.org/1999/xlink" x="0px"
	 y="0px" viewBox="0 0 6.4 12" style="enable-background:new 0 0 6.4 12;" xml:space="preserve">
<style type="text/css">
	.st0{fill:#FFFFFF;}
</style>
<path id="Path_42" class="st0" d="M4.8,0c0.3,0,0.7,0,1,0c0.2,0,0.4,0,0.6,0.1l0,1.9H6.2C6,2,5.8,2,5.6,2C5.4,2,5.2,2,5.1,2
	C4.6,2,4.2,2.2,4.2,2.9c0,0.5,0,1.5,0,1.5h1.1h0.7h0.4C6.2,5.2,6.1,5.9,6,6.6H4.1l0,5.4H1.8l0-5.4H0l0-2.2h1.9V4.3
	c0-0.4,0-0.9,0-1.3c0-0.3,0-0.6,0.1-0.8c0.1-0.6,0.5-1.2,1-1.6C3.4,0.2,4,0,4.6,0L4.8,0z"/>
</svg>
