<?xml version="1.0" encoding="utf-8"?>
<!-- Generator: Adobe Illustrator 25.2.1, SVG Export Plug-In . SVG Version: 6.00 Build 0)  -->
<svg version="1.1" id="Layer_1" xmlns="http://www.w3.org/2000/svg" xmlns:xlink="http://www.w3.org/1999/xlink" x="0px" y="0px"
	 viewBox="0 0 994 176.6" style="enable-background:new 0 0 994 176.6;" xml:space="preserve">
<style type="text/css">
	.Graphic_x0020_Style_x0020_3{fill:none;}
	.st0{fill:#003764;}
	.st1{fill:#009ADE;}
	.st2{fill:#5EB3E4;}
</style>
<g>
	<g>
		<g>
			<path class="st0" d="M206.2,0.7h31v3.2h-13.6v35.9h-3.7V3.8h-13.6V0.7z"/>
			<path class="st0" d="M240.9,0.7h3.7v17h23.2v-17h3.7v39.1h-3.7V20.8h-23.2v18.9h-3.7V0.7z"/>
			<path class="st0" d="M279.4,0.7h27v3.2h-23.3V18h21.8v3.2h-21.8v15.4h23.5v3.2h-27.3V0.7z"/>
		</g>
		<path class="st0" d="M206.2,137.5H231v3.2H210v14.1h18.7v3.2H210v18.6h-3.7V137.5z"/>
		<path class="st0" d="M252.7,137.2c11.8,0,17.8,9.3,17.8,19.7c0,10.4-5.9,19.7-17.8,19.7c-11.9,0-17.8-9.3-17.8-19.7
			C234.9,146.5,240.8,137.2,252.7,137.2z M252.7,173.5c9.9,0,14.2-8.4,14.2-16.6c0-8.2-4.2-16.6-14.2-16.6c-10,0-14.2,8.4-14.2,16.6
			C238.4,165.2,242.7,173.5,252.7,173.5z"/>
		<path class="st0" d="M276.4,137.4h3.7v23.7c0,8.9,4.1,12.3,11.2,12.3c7.1,0,11.3-3.4,11.3-12.3v-23.7h3.7V162
			c0,7.9-4.2,14.6-14.9,14.6c-10.6,0-14.9-6.7-14.9-14.6V137.4z"/>
		<path class="st0" d="M313.7,137.5h4.2l22.8,33.1h0.1v-33.1h3.7v39.1h-4.2l-22.8-33.1h-0.1v33.1h-3.7V137.5z"/>
		<path class="st0" d="M352.4,137.5h13.5c11.8,0.3,18,6.6,18,19.6c0,12.9-6.1,19.3-18,19.6h-13.5V137.5z M356.1,173.4h7.9
			c11.2,0,16.1-4.7,16.1-16.4s-4.9-16.4-16.1-16.4h-7.9V173.4z"/>
		<path class="st0" d="M401.3,137.5h4.2l15.3,39.1h-4l-4.8-12.2h-17.8l-4.7,12.2h-4L401.3,137.5z M395.4,161.2h15.4l-7.6-20
			L395.4,161.2z"/>
		<path class="st0" d="M416.5,137.5h31v3.2h-13.6v35.9h-3.7v-35.9h-13.6V137.5z"/>
		<path class="st0" d="M451.4,137.5h3.7v39.1h-3.7V137.5z"/>
		<path class="st0" d="M478.9,137.5c11.8,0,17.7,9.2,17.7,19.5c0,10.3-5.9,19.5-17.7,19.5c-11.8,0-17.7-9.2-17.7-19.5
			C461.2,146.7,467.1,137.5,478.9,137.5z M478.9,173.5c9.9,0,14.1-8.3,14.1-16.5c0-8.2-4.2-16.5-14.1-16.5
			c-9.9,0-14.1,8.3-14.1,16.5C464.8,165.2,469,173.5,478.9,173.5z"/>
		<path class="st0" d="M503.8,137.5h4.2l22.8,33.1h0.1v-33.1h3.7v39.1h-4.2l-22.8-33.1h-0.1v33.1h-3.7V137.5z"/>
		<g>
			<path class="st0" d="M206.2,51.4h21.5v52h30.9v17.9h-52.5V51.4z"/>
			<path class="st0" d="M272.8,51.4h21.5v69.9h-21.5V51.4z"/>
			<path class="st0" d="M310.4,51.4h22l20.4,37.4h0.2V51.4h20.4v69.9h-21L331,83.1h-0.2v38.2h-20.4V51.4z"/>
			<path class="st0" d="M451.4,93.2c0,19-10,28-31,28c-21,0-31.1-9-31.1-28V51.4h21v37.1c0,6.9-0.1,15.7,10.2,15.7
				c9.9,0,9.9-8.8,9.9-15.7V51.4h21V93.2z"/>
			<path class="st0" d="M487.2,84.1l-23-32.7h25.3l10.6,19l10.4-19h23.9l-22.4,32.9l25,37h-25.9l-11.9-20.9l-12.3,20.9h-24.7
				L487.2,84.1z"/>
		</g>
		<g>
			<polygon class="st1" points="35.3,141 35.3,70.5 0,70.5 0,176.2 105.8,176.2 105.8,141 			"/>
			<polygon class="st0" points="176.2,0 0,0 0,52.9 35.3,52.9 35.3,35.4 141,35.4 141,141 123.4,141 123.4,176.2 176.2,176.2 			"/>
		</g>
	</g>
	<rect x="581.2" y="0.3" class="st0" width="2.8" height="175.9"/>
	<g>
		<path class="st2" d="M628.7,54.7h30.4c10.9,0,20.2,5.3,20.2,17.3c0,8.5-4.4,15.2-12.9,16.9v0.2c8.7,1.2,11.2,7,11.6,15
			c0.3,4.6,0.3,13.8,3.1,17h-7c-1.5-2.5-1.5-7.5-1.8-10.3c-0.5-9.3-1.4-19.6-13.3-19.2h-24v29.5h-6.3V54.7z M635,86.2h23.6
			c7.7,0,14.3-4.8,14.3-12.9c0-8.2-4.7-13.2-14.3-13.2H635V86.2z"/>
		<path class="st2" d="M693.1,98.7c0,8.6,4.7,18.9,15.8,18.9c8.6,0,13.2-4.9,15.1-12.3h5.9c-2.5,10.9-8.7,17.2-20.9,17.2
			c-15.3,0-21.7-11.7-21.7-25.4c0-12.7,6.4-25.4,21.7-25.4c15.4,0,21.6,13.5,21.1,27H693.1z M724.1,93.8
			c-0.3-8.8-5.9-17.1-15.3-17.1c-9.7,0-14.8,8.4-15.8,17.1H724.1z"/>
		<path class="st2" d="M766.6,87.2c-0.3-7.3-5.9-10.5-12.6-10.5c-5.2,0-11.4,2-11.4,8.3c0,5.1,5.9,7.1,10,8.1l7.8,1.8
			c6.7,1,13.7,4.9,13.7,13.3c0,10.4-10.3,14.4-19.3,14.4c-11.3,0-18.7-5.1-19.7-16.9h5.9c0.5,7.9,6.3,12,14.1,12
			c5.6,0,13.1-2.4,13.1-9.1c0-5.6-5.2-7.4-10.5-8.7l-7.5-1.7c-7.6-2-13.4-4.7-13.4-12.8c0-9.8,9.6-13.5,18.1-13.5
			c9.7,0,17.1,5,17.6,15.4H766.6z"/>
		<path class="st2" d="M786.1,98.7c0,8.6,4.7,18.9,15.8,18.9c8.6,0,13.2-4.9,15.1-12.3h5.9c-2.5,10.9-8.7,17.2-20.9,17.2
			c-15.3,0-21.7-11.7-21.7-25.4c0-12.7,6.4-25.4,21.7-25.4c15.4,0,21.6,13.5,21.1,27H786.1z M817.2,93.8
			c-0.3-8.8-5.9-17.1-15.3-17.1c-9.7,0-14.8,8.4-15.8,17.1H817.2z"/>
		<path class="st2" d="M830.4,87.8c0.7-11.3,8.4-16.1,19.4-16.1c8.5,0,17.7,2.5,17.7,15.4v25.5c0,2.3,1.1,3.5,3.4,3.5
			c0.7,0,1.2-0.1,1.9-0.4v4.9c-1.4,0.3-2.2,0.4-3.8,0.4c-6,0-6.9-3.4-6.9-8.4h-0.2c-4.2,6.2-8.2,9.8-17.5,9.8
			c-8.9,0-16.1-4.4-16.1-14c0-13.4,13.1-14,25.8-15.4c4.8-0.5,7.5-1.3,7.5-6.5c0-7.9-5.6-9.9-12.6-9.9c-7.4,0-12.6,3.3-12.8,11.2
			H830.4z M861.6,94.9h-0.2c-0.7,1.4-3.4,1.9-4.9,2.1c-10,1.8-22.3,1.8-22.3,11.1c0,5.9,5.1,9.5,10.7,9.5c9,0,16.7-5.7,16.7-15.1
			V94.9z"/>
		<path class="st2" d="M879.2,73.1h5.4v11.3h0.2c3-7.8,9.5-12.3,18.1-11.9v5.9c-10.6-0.5-17.9,7.2-17.9,17.2v25.6h-5.9V73.1z"/>
		<path class="st2" d="M940.7,88.2c-1.6-7.2-5.9-11.5-13.6-11.5c-11.2,0-16.8,10.3-16.8,20.5s5.7,20.5,16.8,20.5
			c7.2,0,13.2-5.8,14-13.7h5.9c-1.6,11.6-9,18.6-19.8,18.6c-14.6,0-22.7-11.6-22.7-25.4s8.1-25.4,22.7-25.4
			c10.3,0,18.1,5.4,19.4,16.5H940.7z"/>
		<path class="st2" d="M955,54.7h5.9v26.7h0.2c2.2-5.8,8.6-9.7,15.4-9.7c13.5,0,17.6,7.1,17.6,18.5v30.9h-5.9v-30
			c0-8.2-2.7-14.5-12.2-14.5c-9.4,0-14.8,7.1-15.1,16.5v28H955V54.7z"/>
	</g>
</g>
</svg>
