<?xml version="1.0" encoding="UTF-8" standalone="no"?>
<!-- Created with Inkscape (http://www.inkscape.org/) -->

<svg
   width="210mm"
   height="297mm"
   viewBox="0 0 210 297"
   version="1.1"
   id="svg19606"
   inkscape:version="1.1.2 (b8e25be833, 2022-02-05)"
   sodipodi:docname="LFResearch_TODOGroupOSPOSurvey_Infographic_V2_9of9.svg"
   inkscape:export-filename="D:\Users\1134140352905\ospo\LFResearch_TODOGroupOSPOSurvey_Infographic_V2_9of9.png"
   inkscape:export-xdpi="96"
   inkscape:export-ydpi="96"
   xmlns:inkscape="http://www.inkscape.org/namespaces/inkscape"
   xmlns:sodipodi="http://sodipodi.sourceforge.net/DTD/sodipodi-0.dtd"
   xmlns="http://www.w3.org/2000/svg"
   xmlns:svg="http://www.w3.org/2000/svg">
  <sodipodi:namedview
     id="namedview19608"
     pagecolor="#ffffff"
     bordercolor="#666666"
     borderopacity="1.0"
     inkscape:pageshadow="2"
     inkscape:pageopacity="0.0"
     inkscape:pagecheckerboard="0"
     inkscape:document-units="mm"
     showgrid="false"
     inkscape:zoom="0.7198092"
     inkscape:cx="-107.66742"
     inkscape:cy="569.59539"
     inkscape:window-width="1920"
     inkscape:window-height="1017"
     inkscape:window-x="-8"
     inkscape:window-y="-8"
     inkscape:window-maximized="1"
     inkscape:current-layer="g20166" />
  <defs
     id="defs19603">
    <rect
       x="-822.44017"
       y="662.67561"
       width="727.97069"
       height="172.26787"
       id="rect6357" />
    <clipPath
       clipPathUnits="userSpaceOnUse"
       id="clipPath20174">
      <path
         d="M 0,628 H 1200 V 0 H 0 Z"
         id="path20172" />
    </clipPath>
    <clipPath
       clipPathUnits="userSpaceOnUse"
       id="clipPath20208">
      <path
         d="M 0,628 H 1200 V 0 H 0 Z"
         id="path20206" />
    </clipPath>
  </defs>
  <g
     inkscape:label="Layer 1"
     inkscape:groupmode="layer"
     id="layer1">
    <g
       id="g20166"
       inkscape:label="LFResearch_TODOGroupOSPOSurvey_Infographic_V2"
       transform="matrix(0.35277777,0,0,-0.35277777,-250.96908,256.17894)">
      <g
         id="g20168"
         inkscape:export-filename="D:\Users\1134140352905\ospo\LFResearch_TODOGroupOSPOSurvey_Infographic_V2_9of9.png"
         inkscape:export-xdpi="96"
         inkscape:export-ydpi="96">
        <g
           id="g20170"
           clip-path="url(#clipPath20174)">
          <g
             id="g20176"
             transform="translate(29.5315,1.9922)">
            <path
               d="m 0,0 c -14.067,0 -25.576,11.509 -25.576,25.576 v 571.998 c 0,14.067 11.509,25.576 25.576,25.576 h 1142.862 c 14.066,0 25.576,-11.509 25.576,-25.576 V 25.576 C 1168.438,11.509 1156.928,0 1142.862,0 Z"
               style="fill:#231f20;fill-opacity:1;fill-rule:nonzero;stroke:none"
               id="path20178" />
          </g>
        </g>
      </g>
      <text
         transform="matrix(1,0,0,-1,75.293,463.2666)"
         style="font-variant:normal;font-weight:800;font-stretch:normal;font-size:60px;font-family:'Open Sans Extrabold';-inkscape-font-specification:OpenSans-Extrabold;writing-mode:lr-tb;white-space:pre;inline-size:674.28;fill:#ffffff;fill-opacity:1;fill-rule:nonzero;stroke:none"
         id="text20188"
         xml:space="preserve"
         inkscape:export-filename="D:\Users\1134140352905\ospo\LFResearch_TODOGroupOSPOSurvey_Infographic_V2_9of9.png"
         inkscape:export-xdpi="96"
         inkscape:export-ydpi="96"><tspan
           x="0"
           y="0"
           id="tspan584"><tspan
             style="font-weight:bold;font-family:'BIZ UDPGothic';-inkscape-font-specification:'BIZ UDPGothic Bold'"
             id="tspan576">OSPO </tspan><tspan
             style="font-weight:bold;font-family:'BIZ UDPGothic';-inkscape-font-specification:'BIZ UDPGothic Bold'"
             id="tspan578">の</tspan><tspan
             style="font-weight:bold;font-family:'BIZ UDPGothic';-inkscape-font-specification:'BIZ UDPGothic Bold'"
             id="tspan580">恩恵</tspan><tspan
             style="font-weight:bold;font-family:'BIZ UDPGothic';-inkscape-font-specification:'BIZ UDPGothic Bold'"
             id="tspan582">は
</tspan></tspan><tspan
           x="0"
           y="80.553146"
           id="tspan596"><tspan
             style="font-weight:bold;font-family:'BIZ UDPGothic';-inkscape-font-specification:'BIZ UDPGothic Bold'"
             id="tspan586">「</tspan><tspan
             style="font-weight:bold;font-family:'BIZ UDPGothic';-inkscape-font-specification:'BIZ UDPGothic Bold'"
             id="tspan588">オープンソース</tspan><tspan
             style="font-weight:bold;font-family:'BIZ UDPGothic';-inkscape-font-specification:'BIZ UDPGothic Bold'"
             id="tspan590">の</tspan><tspan
             style="font-weight:bold;font-family:'BIZ UDPGothic';-inkscape-font-specification:'BIZ UDPGothic Bold'"
             id="tspan592">使用</tspan><tspan
             style="font-weight:bold;font-family:'BIZ UDPGothic';-inkscape-font-specification:'BIZ UDPGothic Bold'"
             id="tspan594">や</tspan></tspan><tspan
           x="0"
           y="161.10629"
           id="tspan608"><tspan
             style="font-weight:bold;font-family:'BIZ UDPGothic';-inkscape-font-specification:'BIZ UDPGothic Bold'"
             id="tspan598">ビジネス</tspan><tspan
             style="font-weight:bold;font-family:'BIZ UDPGothic';-inkscape-font-specification:'BIZ UDPGothic Bold'"
             id="tspan600">上</tspan><tspan
             style="font-weight:bold;font-family:'BIZ UDPGothic';-inkscape-font-specification:'BIZ UDPGothic Bold'"
             id="tspan602">の</tspan><tspan
             style="font-weight:bold;font-family:'BIZ UDPGothic';-inkscape-font-specification:'BIZ UDPGothic Bold'"
             id="tspan604">依存関係</tspan><tspan
             style="font-weight:bold;font-family:'BIZ UDPGothic';-inkscape-font-specification:'BIZ UDPGothic Bold'"
             id="tspan606">」、</tspan></tspan></text>
      <text
         transform="matrix(1,0,0,-1,75.28,238.2506)"
         style="font-variant:normal;font-weight:normal;font-stretch:normal;font-size:44px;font-family:'Open Sans';-inkscape-font-specification:OpenSans;writing-mode:lr-tb;white-space:pre;inline-size:622.481;fill:#ffffff;fill-opacity:1;fill-rule:nonzero;stroke:none"
         id="text20192"
         xml:space="preserve"
         inkscape:export-filename="D:\Users\1134140352905\ospo\LFResearch_TODOGroupOSPOSurvey_Infographic_V2_9of9.png"
         inkscape:export-xdpi="96"
         inkscape:export-ydpi="96"><tspan
           x="0"
           y="0"
           id="tspan620"><tspan
             style="font-family:'BIZ UDPGothic';-inkscape-font-specification:'BIZ UDPGothic'"
             id="tspan610">「イノベーション</tspan><tspan
             style="font-family:'BIZ UDPGothic';-inkscape-font-specification:'BIZ UDPGothic'"
             id="tspan612">の</tspan><tspan
             style="font-family:'BIZ UDPGothic';-inkscape-font-specification:'BIZ UDPGothic'"
             id="tspan614">拡大</tspan><tspan
             style="font-family:'BIZ UDPGothic';-inkscape-font-specification:'BIZ UDPGothic'"
             id="tspan616">」</tspan><tspan
             style="font-family:'BIZ UDPGothic';-inkscape-font-specification:'BIZ UDPGothic'"
             id="tspan618">といった</tspan></tspan><tspan
           x="0"
           y="59.072311"
           id="tspan634"><tspan
             style="font-family:'BIZ UDPGothic';-inkscape-font-specification:'BIZ UDPGothic'"
             id="tspan622">領域</tspan><tspan
             style="font-family:'BIZ UDPGothic';-inkscape-font-specification:'BIZ UDPGothic'"
             id="tspan624">でより</tspan><tspan
             style="font-family:'BIZ UDPGothic';-inkscape-font-specification:'BIZ UDPGothic'"
             id="tspan626">多</tspan><tspan
             style="font-family:'BIZ UDPGothic';-inkscape-font-specification:'BIZ UDPGothic'"
             id="tspan628">く</tspan><tspan
             style="font-family:'BIZ UDPGothic';-inkscape-font-specification:'BIZ UDPGothic'"
             id="tspan630">意識</tspan><tspan
             style="font-family:'BIZ UDPGothic';-inkscape-font-specification:'BIZ UDPGothic'"
             id="tspan632">がされ、
</tspan></tspan><tspan
           x="0"
           y="118.14462"
           id="tspan644"><tspan
             style="font-family:'BIZ UDPGothic';-inkscape-font-specification:'BIZ UDPGothic'"
             id="tspan636">上位</tspan><tspan
             style="font-family:'BIZ UDPGothic';-inkscape-font-specification:'BIZ UDPGothic'"
             id="tspan638">を</tspan><tspan
             style="font-family:'BIZ UDPGothic';-inkscape-font-specification:'BIZ UDPGothic'"
             id="tspan640">占</tspan><tspan
             style="font-family:'BIZ UDPGothic';-inkscape-font-specification:'BIZ UDPGothic'"
             id="tspan642">めています。</tspan></tspan></text>
      <g
         id="g20202"
         inkscape:export-filename="D:\Users\1134140352905\ospo\LFResearch_TODOGroupOSPOSurvey_Infographic_V2_9of9.png"
         inkscape:export-xdpi="96"
         inkscape:export-ydpi="96">
        <g
           id="g20204"
           clip-path="url(#clipPath20208)">
          <g
             id="g20210"
             transform="translate(939.9021,511.9636)">
            <path
               d="m 0,0 c -107.754,0 -195.106,-87.352 -195.106,-195.106 0,-107.754 87.352,-195.106 195.106,-195.106 107.754,0 195.106,87.352 195.106,195.106 C 195.106,-87.352 107.754,0 0,0 m 0,-24 c 45.704,0 88.673,-17.798 120.99,-50.116 32.318,-32.318 50.116,-75.286 50.116,-120.99 0,-45.704 -17.798,-88.673 -50.116,-120.99 C 88.673,-348.414 45.704,-366.212 0,-366.212 c -45.704,0 -88.673,17.798 -120.99,50.116 -32.318,32.317 -50.116,75.286 -50.116,120.99 0,45.704 17.798,88.672 50.116,120.99 C -88.673,-41.798 -45.704,-24 0,-24"
               style="fill:#a1d33c;fill-opacity:1;fill-rule:nonzero;stroke:none"
               id="path20212" />
          </g>
          <g
             id="g20214"
             transform="translate(895.9335,313.9315)">
            <path
               d="m 0,0 c -3.957,-1.01 -8.038,-1.53 -12.169,-1.53 -9.055,0 -17.901,2.49 -25.582,7.201 -1.042,0.639 -2.302,0.822 -3.483,0.505 L -42.59,5.812 C -47.713,4.438 -52.836,3.063 -57.96,1.69 c 1.495,5.579 2.991,11.152 4.486,16.726 0.318,1.182 0.135,2.442 -0.505,3.485 -4.709,7.678 -7.198,16.523 -7.198,25.578 0,27.023 21.985,49.008 49.008,49.008 26.338,0 47.887,-20.885 48.963,-46.964 C 18.707,38.707 5.216,20.972 0,0 m 147.232,-59.552 c 7.067,12.177 10.793,26.033 10.793,40.2 0,44.22 -35.976,80.196 -80.196,80.196 -11.542,0 -22.52,-2.455 -32.445,-6.864 -3.242,28.887 -27.814,51.418 -57.553,51.418 -31.936,0 -57.919,-25.983 -57.919,-57.919 0,-10.047 2.596,-19.88 7.523,-28.56 -1.379,-5.14 -2.757,-10.28 -4.138,-15.43 -0.806,-3.026 0.044,-6.145 2.275,-8.344 2.197,-2.165 5.394,-2.997 8.351,-2.175 5.115,1.37 10.23,2.743 15.345,4.114 8.682,-4.928 18.515,-7.524 28.563,-7.524 3.509,0 6.989,0.32 10.408,0.94 -0.397,-3.229 -0.605,-6.516 -0.605,-9.851 0,-13.997 3.662,-27.778 10.589,-39.853 1.224,-2.134 3.947,-2.871 6.081,-1.647 2.135,1.225 2.872,3.948 1.647,6.082 -6.154,10.727 -9.407,22.974 -9.407,35.418 0,39.306 31.978,71.285 71.285,71.285 39.307,0 71.285,-31.978 71.285,-71.285 0,-13.171 -3.621,-26.037 -10.471,-37.207 -0.64,-1.043 -0.823,-2.303 -0.506,-3.484 2.183,-8.133 4.364,-16.265 6.544,-24.4 0.176,-0.661 -0.107,-1.115 -0.375,-1.38 -0.183,-0.18 -0.684,-0.576 -1.397,-0.375 -0.019,0.005 -0.038,0.011 -0.057,0.016 -8.11,2.173 -16.218,4.349 -24.327,6.524 -1.182,0.316 -2.442,0.134 -3.484,-0.505 -11.173,-6.852 -24.04,-10.474 -37.211,-10.474 -12.444,0 -24.692,3.253 -35.42,9.409 -2.134,1.224 -4.858,0.487 -6.081,-1.648 -1.225,-2.134 -0.487,-4.857 1.647,-6.081 12.075,-6.928 25.857,-10.59 39.854,-10.59 14.167,0 28.025,3.727 40.205,10.795 7.494,-2.01 14.988,-4.021 22.483,-6.029 3.555,-0.991 7.4,0.008 10.042,2.612 2.679,2.64 3.7,6.386 2.73,10.027 -2.019,7.534 -4.038,15.061 -6.058,22.589 z"
               style="fill:#ffffff;fill-opacity:1;fill-rule:nonzero;stroke:none"
               id="path20216" />
          </g>
          <g
             id="g20218"
             transform="translate(973.7629,336.9062)">
            <path
               d="m 0,0 c 15.968,0 28.96,-12.991 28.96,-28.96 0,-10.764 -5.92,-20.581 -15.449,-25.618 -1.459,-0.772 -2.373,-2.288 -2.373,-3.939 v -3.858 h -22.276 v 3.858 c 0,1.651 -0.914,3.166 -2.374,3.939 -9.528,5.037 -15.448,14.854 -15.448,25.618 C -28.96,-12.991 -15.968,0 0,0 M 6.683,-84.652 H -6.683 c -2.457,0 -4.455,1.999 -4.455,4.456 v 8.911 h 22.276 v -8.911 c 0,-2.458 -1.998,-4.456 -4.455,-4.456 m -45.07,29.071 c 0.755,0 1.522,0.193 2.223,0.598 l 5.816,3.357 c 2.777,-3.715 6.248,-6.939 10.299,-9.466 v -19.105 c 0,-7.37 5.996,-13.366 13.366,-13.366 H 6.683 c 7.37,0 13.366,5.996 13.366,13.366 v 19.105 c 4.051,2.527 7.523,5.751 10.299,9.466 l 5.816,-3.357 c 0.701,-0.405 1.467,-0.598 2.223,-0.598 1.54,0 3.038,0.799 3.863,2.228 1.23,2.131 0.5,4.856 -1.631,6.086 l -5.815,3.358 c 1.419,3.31 2.372,6.839 2.801,10.494 h 6.725 c 2.461,0 4.456,1.994 4.456,4.455 0,2.461 -1.995,4.455 -4.456,4.455 h -6.731 c -0.434,3.682 -1.392,7.205 -2.808,10.488 l 5.828,3.364 c 2.131,1.23 2.861,3.955 1.63,6.086 -1.23,2.132 -3.955,2.862 -6.086,1.631 L 30.328,-6.305 C 23.415,2.926 12.394,8.911 0,8.911 c -12.394,0 -23.415,-5.985 -30.329,-15.216 l -5.835,3.369 c -2.131,1.231 -4.856,0.501 -6.086,-1.63 -1.231,-2.131 -0.5,-4.856 1.63,-6.086 l 5.828,-3.365 c -1.415,-3.283 -2.374,-6.805 -2.808,-10.487 h -6.731 c -2.461,0 -4.455,-1.995 -4.455,-4.456 0,-2.46 1.994,-4.455 4.455,-4.455 h 6.725 c 0.43,-3.655 1.382,-7.184 2.802,-10.494 l -5.816,-3.357 c -2.131,-1.23 -2.861,-3.955 -1.631,-6.086 0.826,-1.43 2.324,-2.229 3.864,-2.229 z"
               style="fill:#ffffff;fill-opacity:1;fill-rule:nonzero;stroke:none"
               id="path20220" />
          </g>
          <g
             id="g20222"
             transform="translate(883.7665,365.8658)">
            <path
               d="m 0,0 h -0.003 c -2.461,0 -4.454,-1.995 -4.454,-4.455 0,-2.461 1.996,-4.456 4.457,-4.456 2.461,0 4.455,1.995 4.455,4.456 C 4.455,-1.995 2.461,0 0,0"
               style="fill:#ffffff;fill-opacity:1;fill-rule:nonzero;stroke:none"
               id="path20224" />
          </g>
          <g
             id="g20226"
             transform="translate(857.0338,365.8658)">
            <path
               d="m 0,0 h -0.003 c -2.461,0 -4.454,-1.995 -4.454,-4.455 0,-2.461 1.996,-4.456 4.457,-4.456 2.461,0 4.455,1.995 4.455,4.456 C 4.455,-1.995 2.461,0 0,0"
               style="fill:#ffffff;fill-opacity:1;fill-rule:nonzero;stroke:none"
               id="path20228" />
          </g>
          <g
             id="g20230"
             transform="translate(910.4993,365.8658)">
            <path
               d="m 0,0 h -0.003 c -2.461,0 -4.454,-1.995 -4.454,-4.455 0,-2.461 1.996,-4.456 4.457,-4.456 2.461,0 4.455,1.995 4.455,4.456 C 4.455,-1.995 2.461,0 0,0"
               style="fill:#ffffff;fill-opacity:1;fill-rule:nonzero;stroke:none"
               id="path20232" />
          </g>
          <g
             id="g20234"
             transform="translate(920.2065,245.4793)">
            <path
               d="m 0,0 h -0.003 c -2.461,0 -4.454,-1.995 -4.454,-4.455 0,-2.461 1.996,-4.456 4.457,-4.456 2.461,0 4.455,1.995 4.455,4.456 C 4.455,-1.995 2.461,0 0,0"
               style="fill:#ffffff;fill-opacity:1;fill-rule:nonzero;stroke:none"
               id="path20236" />
          </g>
        </g>
      </g>
      <text
         xml:space="preserve"
         transform="matrix(0.75000002,0,0,-0.75000002,711.40843,726.17654)"
         id="text6355"
         style="fill:black;fill-opacity:1;line-height:1.25;stroke:none;font-family:sans-serif;font-style:normal;font-weight:normal;font-size:40px;white-space:pre;shape-inside:url(#rect6357)" />
    </g>
  </g>
</svg>
