<?xml version="1.0" encoding="UTF-8" standalone="no"?>
<!-- Created with Inkscape (http://www.inkscape.org/) -->

<svg
   width="210mm"
   height="297mm"
   viewBox="0 0 210 297"
   version="1.1"
   id="svg19106"
   inkscape:version="1.1.2 (b8e25be833, 2022-02-05)"
   sodipodi:docname="LFResearch_TODOGroupOSPOSurvey_Infographic_V2_8of9.svg"
   inkscape:export-filename="D:\Users\1134140352905\ospo\LFResearch_TODOGroupOSPOSurvey_Infographic_V2_8of9.png"
   inkscape:export-xdpi="96"
   inkscape:export-ydpi="96"
   xmlns:inkscape="http://www.inkscape.org/namespaces/inkscape"
   xmlns:sodipodi="http://sodipodi.sourceforge.net/DTD/sodipodi-0.dtd"
   xmlns="http://www.w3.org/2000/svg"
   xmlns:svg="http://www.w3.org/2000/svg">
  <sodipodi:namedview
     id="namedview19108"
     pagecolor="#ffffff"
     bordercolor="#666666"
     borderopacity="1.0"
     inkscape:pageshadow="2"
     inkscape:pageopacity="0.0"
     inkscape:pagecheckerboard="0"
     inkscape:document-units="mm"
     showgrid="false"
     inkscape:zoom="0.7198092"
     inkscape:cx="396.63289"
     inkscape:cy="559.87059"
     inkscape:window-width="1920"
     inkscape:window-height="1017"
     inkscape:window-x="-8"
     inkscape:window-y="-8"
     inkscape:window-maximized="1"
     inkscape:current-layer="g19534" />
  <defs
     id="defs19103">
    <clipPath
       clipPathUnits="userSpaceOnUse"
       id="clipPath19542">
      <path
         d="m 29.372,625.142 c -14.067,0 -25.577,-11.509 -25.577,-25.576 v 0 -571.998 c 0,-14.067 11.51,-25.575 25.577,-25.575 v 0 h 1142.861 c 14.067,0 25.576,11.508 25.576,25.575 v 0 571.998 c 0,14.067 -11.509,25.576 -25.576,25.576 v 0 z"
         id="path19540" />
    </clipPath>
    <clipPath
       clipPathUnits="userSpaceOnUse"
       id="clipPath19580">
      <path
         d="M 0,628 H 1200 V 0 H 0 Z"
         id="path19578" />
    </clipPath>
  </defs>
  <g
     inkscape:label="Layer 1"
     inkscape:groupmode="layer"
     id="layer1">
    <g
       id="g19534"
       inkscape:label="LFResearch_TODOGroupOSPOSurvey_Infographic_V2"
       transform="matrix(0.35277777,0,0,-0.35277777,-244.29612,256.9142)">
      <g
         id="g19536">
        <g
           id="g19538"
           clip-path="url(#clipPath19542)">
          <g
             id="g19544"
             transform="translate(29.3713,1.9922)">
            <path
               d="m 0,0 c -14.067,0 -25.576,11.509 -25.576,25.576 v 571.998 c 0,14.067 11.509,25.576 25.576,25.576 h 1142.862 c 14.067,0 25.576,-11.509 25.576,-25.576 V 25.576 C 1168.438,11.509 1156.929,0 1142.862,0 Z"
               style="fill:#268600;fill-opacity:1;fill-rule:nonzero;stroke:none"
               id="path19546" />
          </g>
          <g
             id="g19548"
             transform="translate(144.3992,810.5554)">
            <path
               d="m 0,0 c -186.618,0 -337.902,-151.284 -337.902,-337.902 0,-186.618 151.284,-337.902 337.902,-337.902 186.618,0 337.902,151.284 337.902,337.902 C 337.902,-151.284 186.618,0 0,0 m 0,-30 c 41.58,0 81.9,-8.137 119.84,-24.184 36.661,-15.507 69.593,-37.712 97.88,-65.998 28.287,-28.287 50.491,-61.219 65.998,-97.88 16.047,-37.94 24.184,-78.261 24.184,-119.84 0,-41.58 -8.137,-81.9 -24.184,-119.84 -15.507,-36.662 -37.711,-69.593 -65.998,-97.88 -28.287,-28.287 -61.219,-50.492 -97.88,-65.998 C 81.9,-637.667 41.58,-645.804 0,-645.804 c -41.58,0 -81.9,8.137 -119.84,24.184 -36.661,15.506 -69.593,37.711 -97.88,65.998 -28.287,28.287 -50.492,61.218 -65.998,97.88 -16.047,37.94 -24.184,78.26 -24.184,119.84 0,41.579 8.137,81.9 24.184,119.84 15.506,36.661 37.711,69.593 65.998,97.88 28.287,28.286 61.219,50.491 97.88,65.998 C -81.9,-38.137 -41.58,-30 0,-30"
               style="fill:#a1d33c;fill-opacity:1;fill-rule:nonzero;stroke:none"
               id="path19550" />
          </g>
        </g>
      </g>
      <text
         transform="matrix(1,0,0,-1,568.6309,455.7661)"
         style="font-variant:normal;font-weight:800;font-stretch:normal;font-size:60px;font-family:'Open Sans Extrabold';-inkscape-font-specification:OpenSans-Extrabold;writing-mode:lr-tb;white-space:pre;inline-size:520.458;fill:#ffffff;fill-opacity:1;fill-rule:nonzero;stroke:none"
         id="text19560"
         xml:space="preserve"><tspan
           x="0"
           y="0"
           id="tspan22715"><tspan
             style="font-weight:bold;font-family:'BIZ UDPGothic';-inkscape-font-specification:'BIZ UDPGothic Bold'"
             id="tspan22709">定評</tspan><tspan
             style="font-weight:bold;font-family:'BIZ UDPGothic';-inkscape-font-specification:'BIZ UDPGothic Bold'"
             id="tspan22711">のある </tspan><tspan
             style="font-weight:bold;font-family:'BIZ UDPGothic';-inkscape-font-specification:'BIZ UDPGothic Bold'"
             id="tspan22713">OSPO </tspan></tspan><tspan
           x="0"
           y="80.553146"
           id="tspan22725"><tspan
             style="font-weight:bold;font-family:'BIZ UDPGothic';-inkscape-font-specification:'BIZ UDPGothic Bold'"
             id="tspan22717">は、</tspan><tspan
             style="font-weight:bold;font-family:'BIZ UDPGothic';-inkscape-font-specification:'BIZ UDPGothic Bold'"
             id="tspan22719">コード</tspan><tspan
             style="font-weight:bold;font-family:'BIZ UDPGothic';-inkscape-font-specification:'BIZ UDPGothic Bold'"
             id="tspan22721">品質</tspan><tspan
             style="font-weight:bold;font-family:'BIZ UDPGothic';-inkscape-font-specification:'BIZ UDPGothic Bold'"
             id="tspan22723">の
</tspan></tspan><tspan
           x="0"
           y="161.10629"
           id="tspan22731"><tspan
             style="font-weight:bold;font-family:'BIZ UDPGothic';-inkscape-font-specification:'BIZ UDPGothic Bold'"
             id="tspan22727">向上</tspan><tspan
             style="font-weight:bold;font-family:'BIZ UDPGothic';-inkscape-font-specification:'BIZ UDPGothic Bold'"
             id="tspan22729">や</tspan></tspan></text>
      <text
         transform="matrix(1,0,0,-1,568.6367,226.2501)"
         style="font-variant:normal;font-weight:normal;font-stretch:normal;font-size:44px;font-family:'Open Sans';-inkscape-font-specification:OpenSans;writing-mode:lr-tb;white-space:pre;inline-size:552.722;fill:#ffffff;fill-opacity:1;fill-rule:nonzero;stroke:none"
         id="text19568"
         xml:space="preserve"><tspan
           x="0"
           y="0"
           id="tspan22741"><tspan
             style="font-family:'BIZ UDPGothic';-inkscape-font-specification:'BIZ UDPGothic'"
             id="tspan22733">CI/CD </tspan><tspan
             style="font-family:'BIZ UDPGothic';-inkscape-font-specification:'BIZ UDPGothic'"
             id="tspan22735">パイプライン</tspan><tspan
             style="font-family:'BIZ UDPGothic';-inkscape-font-specification:'BIZ UDPGothic'"
             id="tspan22737">の</tspan><tspan
             style="font-family:'BIZ UDPGothic';-inkscape-font-specification:'BIZ UDPGothic'"
             id="tspan22739">活用</tspan></tspan><tspan
           x="0"
           y="59.072311"
           id="tspan22753"><tspan
             style="font-family:'BIZ UDPGothic';-inkscape-font-specification:'BIZ UDPGothic'"
             id="tspan22743">といった</tspan><tspan
             style="font-family:'BIZ UDPGothic';-inkscape-font-specification:'BIZ UDPGothic'"
             id="tspan22745">事例</tspan><tspan
             style="font-family:'BIZ UDPGothic';-inkscape-font-specification:'BIZ UDPGothic'"
             id="tspan22747">で</tspan><tspan
             style="font-family:'BIZ UDPGothic';-inkscape-font-specification:'BIZ UDPGothic'"
             id="tspan22749">際立</tspan><tspan
             style="font-family:'BIZ UDPGothic';-inkscape-font-specification:'BIZ UDPGothic'"
             id="tspan22751">ってい</tspan></tspan><tspan
           x="0"
           y="118.14462"
           id="tspan22757"><tspan
             style="font-family:'BIZ UDPGothic';-inkscape-font-specification:'BIZ UDPGothic'"
             id="tspan22755">ます。</tspan></tspan></text>
      <g
         id="g19574">
        <g
           id="g19576"
           clip-path="url(#clipPath19580)">
          <path
             d="M 137.419,284.015 H 239.52 v 47.46 H 137.419 Z m 106.29,-8.379 h -110.48 c -2.314,0 -4.19,1.876 -4.19,4.19 v 55.839 c 0,2.314 1.876,4.189 4.19,4.189 h 110.48 c 2.314,0 4.19,-1.875 4.19,-4.189 v -55.839 c 0,-2.314 -1.876,-4.19 -4.19,-4.19"
             style="fill:#ffffff;fill-opacity:1;fill-rule:nonzero;stroke:none"
             id="path19582" />
          <path
             d="m 118.808,264.802 h 139.321 v 10.834 H 118.808 Z m 143.511,-8.38 h -147.7 c -2.314,0 -4.19,1.876 -4.19,4.19 v 19.214 c 0,2.313 1.876,4.189 4.19,4.189 h 147.7 c 2.314,0 4.19,-1.876 4.19,-4.189 v -19.214 c 0,-2.314 -1.876,-4.19 -4.19,-4.19"
             style="fill:#ffffff;fill-opacity:1;fill-rule:nonzero;stroke:none"
             id="path19584" />
          <g
             id="g19586"
             transform="translate(123.9491,541.3162)">
            <path
               d="m 0,0 c -2.195,-11.301 -3.292,-22.788 -3.276,-34.3 0,-61.919 30.412,-112.282 67.792,-112.282 37.38,0 67.792,50.376 67.792,112.282 0.018,11.512 -1.076,22.999 -3.268,34.3 z m 64.52,-154.974 c -42.001,0 -76.171,54.134 -76.171,120.661 -0.023,13.238 1.369,26.44 4.152,39.382 0.414,1.93 2.119,3.309 4.093,3.31 h 135.852 c 1.971,0 3.676,-1.375 4.094,-3.301 2.782,-12.942 4.174,-26.145 4.151,-39.383 0,-66.535 -34.17,-120.669 -76.171,-120.669"
               style="fill:#ffffff;fill-opacity:1;fill-rule:nonzero;stroke:none"
               id="path19588" />
          </g>
          <g
             id="g19590"
             transform="translate(178.1711,349.7042)">
            <path
               d="m 0,0 h -0.323 c -2.306,0.176 -4.034,2.189 -3.858,4.495 1.072,13.242 -1.626,26.516 -7.78,38.289 -1.08,2.048 -0.295,4.583 1.753,5.663 2.048,1.079 4.583,0.294 5.662,-1.754 C 2.342,33.522 5.365,18.67 4.173,3.854 3.998,1.679 2.183,0.002 0,0"
               style="fill:#ffffff;fill-opacity:1;fill-rule:nonzero;stroke:none"
               id="path19592" />
          </g>
          <g
             id="g19594"
             transform="translate(198.7672,349.7042)">
            <path
               d="m 0,0 c -2.194,-0.007 -4.021,1.68 -4.19,3.867 -1.191,14.816 1.831,29.667 8.719,42.839 1.079,2.048 3.614,2.833 5.662,1.753 2.048,-1.079 2.833,-3.614 1.754,-5.662 C 5.79,31.024 3.093,17.749 4.164,4.508 4.34,2.201 2.613,0.189 0.306,0.013 Z"
               style="fill:#ffffff;fill-opacity:1;fill-rule:nonzero;stroke:none"
               id="path19596" />
          </g>
          <g
             id="g19598"
             transform="translate(224.7429,331.4752)">
            <path
               d="m 0,0 c -1.954,0.002 -3.647,1.354 -4.081,3.26 -2.027,8.898 -16.159,15.866 -32.193,15.866 -16.033,0 -30.165,-6.968 -32.193,-15.866 -0.472,-2.266 -2.692,-3.719 -4.957,-3.246 -2.265,0.473 -3.718,2.692 -3.245,4.957 0.01,0.049 0.021,0.097 0.033,0.145 2.932,12.987 19.917,22.389 40.362,22.389 20.446,0 37.422,-9.418 40.363,-22.389 C 4.6,2.859 3.186,0.615 0.929,0.104 0.624,0.035 0.313,0 0,0 Z"
               style="fill:#ffffff;fill-opacity:1;fill-rule:nonzero;stroke:none"
               id="path19600" />
          </g>
          <g
             id="g19602"
             transform="translate(135.4831,424.007)">
            <path
               d="M 0,0 C -0.178,0.001 -0.356,0.012 -0.532,0.034 -31.596,4.063 -54.854,30.506 -54.884,61.83 v 29.085 c 0.005,11.829 9.584,21.421 21.413,21.442 h 16.172 c 2.314,0 4.19,-1.876 4.19,-4.19 0,-2.313 -1.876,-4.189 -4.19,-4.189 h -16.172 c -7.203,-0.016 -13.034,-5.86 -13.034,-13.063 V 61.843 C -46.473,34.742 -26.351,11.867 0.524,8.379 2.838,8.235 4.596,6.242 4.451,3.928 4.307,1.614 2.314,-0.145 0,0"
               style="fill:#ffffff;fill-opacity:1;fill-rule:nonzero;stroke:none"
               id="path19604" />
          </g>
          <g
             id="g19606"
             transform="translate(241.4552,424.007)">
            <path
               d="m 0,0 c -2.314,-0.145 -4.307,1.614 -4.451,3.928 -0.145,2.314 1.613,4.307 3.927,4.451 26.875,3.488 46.997,26.363 47.029,53.464 v 29.072 c 0,7.203 -5.831,13.047 -13.034,13.063 H 17.299 c -2.314,0 -4.19,1.876 -4.19,4.189 0,2.314 1.876,4.19 4.19,4.19 H 33.471 C 45.3,112.336 54.879,102.744 54.884,90.915 V 61.843 C 54.854,30.519 31.596,4.075 0.532,0.046 0.356,0.02 0.178,0.005 0,0 Z"
               style="fill:#ffffff;fill-opacity:1;fill-rule:nonzero;stroke:none"
               id="path19608" />
          </g>
        </g>
      </g>
    </g>
  </g>
</svg>
