<?xml version="1.0" encoding="UTF-8" standalone="no"?>
<!-- Created with Inkscape (http://www.inkscape.org/) -->

<svg
   width="210mm"
   height="297mm"
   viewBox="0 0 210 297"
   version="1.1"
   id="svg12605"
   inkscape:version="1.1.2 (b8e25be833, 2022-02-05)"
   sodipodi:docname="LFResearch_TODOGroupOSPOSurvey_Infographic_V2_6of9.svg"
   inkscape:export-filename="D:\Users\1134140352905\ospo\LFResearch_TODOGroupOSPOSurvey_Infographic_V2_6of9.png"
   inkscape:export-xdpi="96"
   inkscape:export-ydpi="96"
   xmlns:inkscape="http://www.inkscape.org/namespaces/inkscape"
   xmlns:sodipodi="http://sodipodi.sourceforge.net/DTD/sodipodi-0.dtd"
   xmlns="http://www.w3.org/2000/svg"
   xmlns:svg="http://www.w3.org/2000/svg">
  <sodipodi:namedview
     id="namedview12607"
     pagecolor="#ffffff"
     bordercolor="#666666"
     borderopacity="1.0"
     inkscape:pageshadow="2"
     inkscape:pageopacity="0.0"
     inkscape:pagecheckerboard="0"
     inkscape:document-units="mm"
     showgrid="false"
     inkscape:zoom="0.7198092"
     inkscape:cx="396.63289"
     inkscape:cy="561.25984"
     inkscape:window-width="1920"
     inkscape:window-height="1017"
     inkscape:window-x="-8"
     inkscape:window-y="-8"
     inkscape:window-maximized="1"
     inkscape:current-layer="g12695" />
  <defs
     id="defs12602">
    <rect
       x="304.24729"
       y="439.00522"
       width="547.36727"
       height="115.30833"
       id="rect23559" />
    <linearGradient
       x1="0"
       y1="0"
       x2="1"
       y2="0"
       gradientUnits="userSpaceOnUse"
       gradientTransform="matrix(1163.2427,-598.14465,-598.14465,-1163.2427,23.046951,610.51929)"
       spreadMethod="pad"
       id="linearGradient12713">
      <stop
         style="stop-opacity:1;stop-color:#268600"
         offset="0"
         id="stop12709" />
      <stop
         style="stop-opacity:1;stop-color:#a1d33c"
         offset="1"
         id="stop12711" />
    </linearGradient>
    <clipPath
       clipPathUnits="userSpaceOnUse"
       id="clipPath12741">
      <path
         d="M 0,628 H 1200 V 0 H 0 Z"
         id="path12739" />
    </clipPath>
    <clipPath
       clipPathUnits="userSpaceOnUse"
       id="clipPath12749">
      <path
         d="M 62.5295,502.22 H 261.239 V 165.474 H 62.5295 Z"
         id="path12747" />
    </clipPath>
    <linearGradient
       x1="0"
       y1="0"
       x2="1"
       y2="0"
       gradientUnits="userSpaceOnUse"
       gradientTransform="matrix(1183.2534,-607.25458,-607.25458,-1183.2534,-66.791596,470.63757)"
       spreadMethod="pad"
       id="linearGradient12779">
      <stop
         style="stop-opacity:1;stop-color:#268600"
         offset="0"
         id="stop12775" />
      <stop
         style="stop-opacity:1;stop-color:#a1d33c"
         offset="1"
         id="stop12777" />
    </linearGradient>
    <clipPath
       clipPathUnits="userSpaceOnUse"
       id="clipPath12789">
      <path
         d="M 0,628 H 1200 V 0 H 0 Z"
         id="path12787" />
    </clipPath>
  </defs>
  <g
     inkscape:label="Layer 1"
     inkscape:groupmode="layer"
     id="layer1">
    <g
       id="g12695"
       inkscape:label="LFResearch_TODOGroupOSPOSurvey_Infographic_V2"
       transform="matrix(0.35277777,0,0,-0.35277777,-222.66586,252.42746)">
      <g
         id="g12697">
        <g
           id="g12699">
          <g
             id="g12705">
            <g
               id="g12707">
              <path
                 d="m 29.532,624.928 c -14.067,0 -25.576,-11.51 -25.576,-25.577 v 0 V 27.353 C 3.956,13.287 15.465,1.777 29.532,1.777 v 0 h 1142.861 c 14.067,0 25.576,11.51 25.576,25.576 v 0 571.998 c 0,14.067 -11.509,25.577 -25.576,25.577 v 0 z"
                 style="fill:url(#linearGradient12713);stroke:none"
                 id="path12715" />
            </g>
          </g>
        </g>
      </g>
      <text
         transform="matrix(1,0,0,-1,510.791,434.6328)"
         style="font-variant:normal;font-weight:bold;font-stretch:normal;font-size:44px;font-family:'Open Sans';-inkscape-font-specification:OpenSans-Bold;writing-mode:lr-tb;white-space:pre;inline-size:685.46;fill:#231f20;fill-opacity:1;fill-rule:nonzero;stroke:none"
         id="text12719"
         xml:space="preserve"><tspan
           x="0"
           y="0"
           id="tspan21958"><tspan
             style="font-family:'BIZ UDPGothic';-inkscape-font-specification:'BIZ UDPGothic Bold'"
             id="tspan21946">OSPO </tspan><tspan
             style="font-family:'BIZ UDPGothic';-inkscape-font-specification:'BIZ UDPGothic Bold'"
             id="tspan21948">の</tspan><tspan
             style="font-family:'BIZ UDPGothic';-inkscape-font-specification:'BIZ UDPGothic Bold'"
             id="tspan21950">設立</tspan><tspan
             style="font-family:'BIZ UDPGothic';-inkscape-font-specification:'BIZ UDPGothic Bold'"
             id="tspan21952">を</tspan><tspan
             style="font-family:'BIZ UDPGothic';-inkscape-font-specification:'BIZ UDPGothic Bold'"
             id="tspan21954">計画</tspan><tspan
             style="font-family:'BIZ UDPGothic';-inkscape-font-specification:'BIZ UDPGothic Bold'"
             id="tspan21956">している
</tspan></tspan><tspan
           x="0"
           y="59.072311"
           id="tspan21964"><tspan
             style="font-family:'BIZ UDPGothic';-inkscape-font-specification:'BIZ UDPGothic Bold'"
             id="tspan21960">回答者</tspan><tspan
             style="font-family:'BIZ UDPGothic';-inkscape-font-specification:'BIZ UDPGothic Bold'"
             id="tspan21962">の63%が</tspan></tspan></text>
      <text
         transform="matrix(1,0,0,-1,510.791,298.6328)"
         style="font-variant:normal;font-weight:800;font-stretch:normal;font-size:60px;font-family:'Open Sans Extrabold';-inkscape-font-specification:OpenSans-Extrabold;writing-mode:lr-tb;white-space:pre;inline-size:640.779;fill:#231f20;fill-opacity:1;fill-rule:nonzero;stroke:none"
         id="text12733"
         xml:space="preserve"><tspan
           x="0"
           y="0"
           id="tspan21972"><tspan
             style="font-weight:bold;font-family:'BIZ UDPGothic';-inkscape-font-specification:'BIZ UDPGothic Bold'"
             id="tspan21966">1年以内</tspan><tspan
             style="font-weight:bold;font-family:'BIZ UDPGothic';-inkscape-font-specification:'BIZ UDPGothic Bold'"
             id="tspan21968">にその</tspan><tspan
             style="font-weight:bold;font-family:'BIZ UDPGothic';-inkscape-font-specification:'BIZ UDPGothic Bold'"
             id="tspan21970">プロセス</tspan></tspan><tspan
           x="0"
           y="80.553146"
           id="tspan21982"><tspan
             style="font-weight:bold;font-family:'BIZ UDPGothic';-inkscape-font-specification:'BIZ UDPGothic Bold'"
             id="tspan21974">を</tspan><tspan
             style="font-weight:bold;font-family:'BIZ UDPGothic';-inkscape-font-specification:'BIZ UDPGothic Bold'"
             id="tspan21976">開始</tspan><tspan
             style="font-weight:bold;font-family:'BIZ UDPGothic';-inkscape-font-specification:'BIZ UDPGothic Bold'"
             id="tspan21978">することが</tspan><tspan
             style="font-weight:bold;font-family:'BIZ UDPGothic';-inkscape-font-specification:'BIZ UDPGothic Bold'"
             id="tspan21980">期待</tspan></tspan><tspan
           x="0"
           y="161.10629"
           id="tspan21986"><tspan
             style="font-weight:bold;font-family:'BIZ UDPGothic';-inkscape-font-specification:'BIZ UDPGothic Bold'"
             id="tspan21984">されています。</tspan></tspan></text>
      <g
         id="g12735">
        <g
           id="g12737"
           clip-path="url(#clipPath12741)">
          <g
             id="g12743">
            <g
               id="g12745" />
            <g
               id="g12757">
              <g
                 clip-path="url(#clipPath12749)"
                 opacity="0.25"
                 id="g12755">
                <g
                   transform="translate(261.2394,303.5098)"
                   id="g12753">
                  <path
                     d="m 0,0 -142.94,-138.035 c -76.235,78.943 -74.039,204.74 4.905,280.975 37.892,36.593 85.358,55.77 138.035,55.77 z"
                     style="fill:#ffffff;fill-opacity:1;fill-rule:evenodd;stroke:none"
                     id="path12751" />
                </g>
              </g>
            </g>
          </g>
          <g
             id="g12759"
             transform="translate(261.2394,303.5098)">
            <path
               d="m 0,0 v 198.71 c 109.744,0 198.71,-88.966 198.71,-198.71 0,-109.744 -88.966,-198.71 -198.71,-198.71 -57.067,0 -103.298,19.624 -142.94,60.675 z"
               style="fill:#231f20;fill-opacity:1;fill-rule:evenodd;stroke:none"
               id="path12761" />
          </g>
        </g>
      </g>
      <g
         id="g12763">
        <g
           id="g12765">
          <g
             id="g12771">
            <g
               id="g12773">
              <path
                 d="m 90.032,302.299 c 0,-94.546 76.644,-171.189 171.189,-171.189 v 0 c 94.545,0 171.189,76.643 171.189,171.189 v 0 c 0,94.545 -76.644,171.188 -171.189,171.188 v 0 c -94.545,0 -171.189,-76.643 -171.189,-171.188"
                 style="fill:url(#linearGradient12779);stroke:none"
                 id="path12781" />
            </g>
          </g>
        </g>
      </g>
      <g
         id="g12783">
        <g
           id="g12785"
           clip-path="url(#clipPath12789)">
          <g
             id="g12791"
             transform="translate(212.0471,284.6295)">
            <path
               d="m 0,0 c -1.653,0 -2.967,1.314 -2.967,2.967 v 16.957 c 0,1.653 1.314,2.968 2.967,2.968 h 16.957 c 1.653,0 2.967,-1.315 2.967,-2.968 V 2.967 C 19.924,1.314 18.61,0 16.957,0 Z m 40.696,0 c -1.653,0 -2.967,1.314 -2.967,2.967 v 16.957 c 0,1.653 1.314,2.968 2.967,2.968 h 16.957 c 1.653,0 2.967,-1.315 2.967,-2.968 V 2.967 C 60.62,1.314 59.306,0 57.653,0 Z m 40.696,0 c -1.653,0 -2.967,1.314 -2.967,2.967 v 16.957 c 0,1.653 1.314,2.968 2.967,2.968 h 16.957 c 1.653,0 2.967,-1.315 2.967,-2.968 V 2.967 C 101.316,1.314 100.002,0 98.349,0 Z M 0,-40.696 c -1.653,0 -2.967,1.314 -2.967,2.967 v 16.957 c 0,1.653 1.314,2.967 2.967,2.967 h 16.957 c 1.653,0 2.967,-1.314 2.967,-2.967 v -16.957 c 0,-1.653 -1.314,-2.967 -2.967,-2.967 z m 40.696,0 c -1.653,0 -2.967,1.314 -2.967,2.967 v 16.957 c 0,1.653 1.314,2.967 2.967,2.967 h 16.957 c 1.653,0 2.967,-1.314 2.967,-2.967 v -16.957 c 0,-1.653 -1.314,-2.967 -2.967,-2.967 z m 40.696,0 c -1.653,0 -2.967,1.314 -2.967,2.967 v 16.957 c 0,1.653 1.314,2.967 2.967,2.967 h 16.957 c 1.653,0 2.967,-1.314 2.967,-2.967 v -16.957 c 0,-1.653 -1.314,-2.967 -2.967,-2.967 z M -25.435,94.957 c -4.917,0 -8.902,-3.984 -8.902,-8.902 V 63.588 h 167.023 v 22.467 c 0,4.918 -3.985,8.902 -8.902,8.902 z m -8.902,-158.121 c 0,-4.917 3.985,-8.902 8.902,-8.902 h 149.219 c 4.917,0 8.902,3.985 8.902,8.902 V 54.261 H -34.337 Z m 8.902,-18.228 c -10.047,0 -18.228,8.182 -18.228,18.228 V 86.055 c 0,10.047 8.181,18.229 18.228,18.229 h 22.468 v 24.163 c 0,1.653 1.314,2.967 2.967,2.967 h 3.391 c 1.654,0 2.968,-1.314 2.968,-2.967 V 104.284 H 91.99 v 24.163 c 0,1.653 1.314,2.967 2.967,2.967 h 3.392 c 1.653,0 2.967,-1.314 2.967,-2.967 v -24.163 h 22.468 c 10.047,0 18.228,-8.182 18.228,-18.229 V -63.164 c 0,-10.046 -8.181,-18.228 -18.228,-18.228 z"
               style="fill:#ffffff;fill-opacity:1;fill-rule:nonzero;stroke:none"
               id="path12793" />
          </g>
        </g>
      </g>
      <text
         xml:space="preserve"
         transform="matrix(0.75000002,0,0,-0.75000002,631.17883,715.54242)"
         id="text23557"
         style="fill:black;fill-opacity:1;line-height:1.25;stroke:none;font-family:sans-serif;font-style:normal;font-weight:normal;font-size:40px;white-space:pre;shape-inside:url(#rect23559)" />
    </g>
  </g>
</svg>
