<?xml version="1.0" encoding="UTF-8" standalone="no"?>
<!-- Created with Inkscape (http://www.inkscape.org/) -->

<svg
   width="210mm"
   height="297mm"
   viewBox="0 0 210 297"
   version="1.1"
   id="svg5"
   inkscape:version="1.1.2 (b8e25be833, 2022-02-05)"
   sodipodi:docname="LFResearch_TODOGroupOSPOSurvey_Infographic_V2_1of9.svg"
   inkscape:export-filename="D:\Users\1134140352905\ospo\LFResearch_TODOGroupOSPOSurvey_Infographic_V2_1of9.png"
   inkscape:export-xdpi="96"
   inkscape:export-ydpi="96"
   xmlns:inkscape="http://www.inkscape.org/namespaces/inkscape"
   xmlns:sodipodi="http://sodipodi.sourceforge.net/DTD/sodipodi-0.dtd"
   xmlns="http://www.w3.org/2000/svg"
   xmlns:svg="http://www.w3.org/2000/svg">
  <sodipodi:namedview
     id="namedview7"
     pagecolor="#ffffff"
     bordercolor="#666666"
     borderopacity="1.0"
     inkscape:pageshadow="2"
     inkscape:pageopacity="0.0"
     inkscape:pagecheckerboard="0"
     inkscape:document-units="mm"
     showgrid="false"
     inkscape:zoom="0.37014941"
     inkscape:cx="6.7540294"
     inkscape:cy="-167.49993"
     inkscape:window-width="1920"
     inkscape:window-height="1017"
     inkscape:window-x="-8"
     inkscape:window-y="-8"
     inkscape:window-maximized="1"
     inkscape:current-layer="g15" />
  <defs
     id="defs2">
    <rect
       x="-1059.0318"
       y="-129.67736"
       width="1253.5479"
       height="451.16916"
       id="rect352880" />
    <clipPath
       clipPathUnits="userSpaceOnUse"
       id="clipPath23">
      <path
         d="M 0,628 H 1200 V 0 H 0 Z"
         id="path21" />
    </clipPath>
    <clipPath
       clipPathUnits="userSpaceOnUse"
       id="clipPath31">
      <path
         d="m 28.676,-694.222 c -14.066,0 -25.575,11.509 -25.575,25.575 v 571.999 c 0,14.066 11.509,25.575 25.575,25.575 h 1142.862 c 14.067,0 25.576,-11.509 25.576,-25.575 v -571.999 c 0,-14.066 -11.509,-25.575 -25.576,-25.575 z"
         id="path29" />
    </clipPath>
    <clipPath
       clipPathUnits="userSpaceOnUse"
       id="clipPath39">
      <path
         d="M -153.299,33.2521 H 385.472 V -561.084 h -538.771 z"
         id="path37" />
    </clipPath>
    <linearGradient
       x1="0"
       y1="0"
       x2="1"
       y2="0"
       gradientUnits="userSpaceOnUse"
       gradientTransform="matrix(1226.6134,-588.50995,-588.50995,-1226.6134,-3.9389179,603.72107)"
       spreadMethod="pad"
       id="linearGradient73">
      <stop
         style="stop-opacity:1;stop-color:#268600"
         offset="0"
         id="stop69" />
      <stop
         style="stop-opacity:1;stop-color:#a1d33c"
         offset="1"
         id="stop71" />
    </linearGradient>
    <clipPath
       clipPathUnits="userSpaceOnUse"
       id="clipPath97">
      <path
         d="M 0,628 H 1200 V 0 H 0 Z"
         id="path95" />
    </clipPath>
    <clipPath
       clipPathUnits="userSpaceOnUse"
       id="clipPath105">
      <path
         d="M 767.827,486.827 H 1110.2 V 144.449 H 767.827 Z"
         id="path103" />
    </clipPath>
    <linearGradient
       x1="0"
       y1="0"
       x2="1"
       y2="0"
       gradientUnits="userSpaceOnUse"
       gradientTransform="matrix(1218.4016,-655.64209,-655.64209,-1218.4016,594.97839,500.76971)"
       spreadMethod="pad"
       id="linearGradient115">
      <stop
         style="stop-opacity:1;stop-color:#a1d33c"
         offset="0"
         id="stop111" />
      <stop
         style="stop-opacity:1;stop-color:#268600"
         offset="1"
         id="stop113" />
    </linearGradient>
  </defs>
  <g
     inkscape:label="Layer 1"
     inkscape:groupmode="layer"
     id="layer1">
    <g
       id="g15"
       inkscape:label="LFResearch_TODOGroupOSPOSurvey_Infographic_V2"
       transform="matrix(0.35277777,0,0,-0.35277777,-195.2638,157.20239)">
      <g
         id="g17">
        <g
           id="g19"
           clip-path="url(#clipPath23)">
          <g
             id="g25">
            <g
               id="g27"
               clip-path="url(#clipPath31)">
              <g
                 id="g33">
                <g
                   id="g35" />
                <g
                   id="g47">
                  <g
                     clip-path="url(#clipPath39)"
                     opacity="0.25"
                     id="g45">
                    <g
                       transform="translate(182.9463,-224.5405)"
                       id="g43">
                      <path
                         d="m 0,0 202.525,-268.76 c -148.432,-111.852 -359.434,-82.198 -471.285,66.235 -107.378,142.495 -84.234,345.63 52.446,460.318 z"
                         style="fill:#ffffff;fill-opacity:1;fill-rule:evenodd;stroke:none"
                         id="path41" />
                    </g>
                  </g>
                </g>
              </g>
              <g
                 id="g49"
                 transform="translate(182.9463,-224.5405)">
                <path
                   d="m 0,0 -216.314,257.793 c 142.375,119.466 354.64,100.896 474.107,-41.479 119.466,-142.375 100.896,-354.64 -41.479,-474.107 -5.695,-4.778 -7.851,-6.493 -13.789,-10.967 z"
                   style="fill:#a1d33c;fill-opacity:1;fill-rule:evenodd;stroke:none"
                   id="path51" />
              </g>
              <g
                 id="g53"
                 transform="translate(-72.406,-398.1009)">
                <path
                   d="m 0,0 c -31.944,45.628 -50.74,98.924 -54.356,154.125 -3.678,56.15 8.514,112.999 35.257,164.402 38.155,73.336 102.584,127.424 181.42,152.301 78.836,24.876 162.639,17.564 235.975,-20.591 44.69,-23.25 81.891,-55.808 110.571,-96.768 31.979,-45.67 51.093,-99.245 55.273,-154.931 4.295,-57.222 -7.508,-114.519 -34.134,-165.696 -38.154,-73.336 -102.584,-127.423 -181.419,-152.301 -78.836,-24.876 -162.64,-17.564 -235.976,20.591 -18.285,9.513 -33.632,19.475 -49.762,32.3 C 38.545,-47.245 17.402,-24.853 0.013,-0.019 0.008,-0.012 0.005,-0.007 0,0"
                   style="fill:#268600;fill-opacity:1;fill-rule:evenodd;stroke:none"
                   id="path55" />
              </g>
            </g>
          </g>
        </g>
      </g>
      <g
         id="g57"
         inkscape:export-filename="D:\Users\1134140352905\ospo\LFResearch_TODOGroupOSPOSurvey_Infographic_V2_1of9.png"
         inkscape:export-xdpi="96"
         inkscape:export-ydpi="96">
        <g
           id="g59">
          <g
             id="g65">
            <g
               id="g67">
              <path
                 d="M 28.676,625.484 C 14.61,625.484 3.1,613.975 3.1,599.909 v 0 V 27.91 C 3.1,13.844 14.61,2.335 28.676,2.335 v 0 h 1142.862 c 14.066,0 25.575,11.509 25.575,25.575 v 0 571.999 c 0,14.066 -11.509,25.575 -25.575,25.575 v 0 z"
                 style="fill:url(#linearGradient73);stroke:none"
                 id="path75" />
            </g>
          </g>
        </g>
      </g>
      <text
         transform="scale(1,-1)"
         style="font-variant:normal;font-weight:800;font-stretch:normal;font-size:60px;font-family:'Open Sans Extrabold';-inkscape-font-specification:OpenSans-Extrabold;writing-mode:lr-tb;white-space:pre;inline-size:633.231;fill:#ffffff;fill-opacity:1;fill-rule:nonzero;stroke:none"
         id="text83"
         x="74.4375"
         y="-436.10941"
         inkscape:export-filename="D:\Users\1134140352905\ospo\LFResearch_TODOGroupOSPOSurvey_Infographic_V2_1of9.png"
         inkscape:export-xdpi="96"
         inkscape:export-ydpi="96"
         xml:space="preserve"><tspan
           x="74.4375"
           y="-436.10941"
           id="tspan365029"><tspan
             style="font-weight:bold;font-family:'BIZ UDPGothic';-inkscape-font-specification:'BIZ UDPGothic Bold'"
             id="tspan365021">OSPO </tspan><tspan
             style="font-weight:bold;font-family:'BIZ UDPGothic';-inkscape-font-specification:'BIZ UDPGothic Bold'"
             id="tspan365023">の</tspan><tspan
             style="font-weight:bold;font-family:'BIZ UDPGothic';-inkscape-font-specification:'BIZ UDPGothic Bold'"
             id="tspan365025">採用</tspan><tspan
             style="font-weight:bold;font-family:'BIZ UDPGothic';-inkscape-font-specification:'BIZ UDPGothic Bold'"
             id="tspan365027">は、
</tspan></tspan><tspan
           x="74.4375"
           y="-355.55627"
           id="tspan365041"><tspan
             style="font-weight:bold;font-family:'BIZ UDPGothic';-inkscape-font-specification:'BIZ UDPGothic Bold'"
             id="tspan365031">依然</tspan><tspan
             style="font-weight:bold;font-family:'BIZ UDPGothic';-inkscape-font-specification:'BIZ UDPGothic Bold'"
             id="tspan365033">として</tspan><tspan
             style="font-weight:bold;font-family:'BIZ UDPGothic';-inkscape-font-specification:'BIZ UDPGothic Bold'"
             id="tspan365035">テック</tspan><tspan
             style="font-weight:bold;font-family:'BIZ UDPGothic';-inkscape-font-specification:'BIZ UDPGothic Bold'"
             id="tspan365037">産業</tspan><tspan
             style="font-weight:bold;font-family:'BIZ UDPGothic';-inkscape-font-specification:'BIZ UDPGothic Bold'"
             id="tspan365039">が</tspan></tspan><tspan
           x="74.4375"
           y="-275.00311"
           id="tspan365049"><tspan
             style="font-weight:bold;font-family:'BIZ UDPGothic';-inkscape-font-specification:'BIZ UDPGothic Bold'"
             id="tspan365043">もっとも</tspan><tspan
             style="font-weight:bold;font-family:'BIZ UDPGothic';-inkscape-font-specification:'BIZ UDPGothic Bold'"
             id="tspan365045">活発</tspan><tspan
             style="font-weight:bold;font-family:'BIZ UDPGothic';-inkscape-font-specification:'BIZ UDPGothic Bold'"
             id="tspan365047">です。</tspan></tspan></text>
      <text
         transform="scale(1,-1)"
         style="font-style:normal;font-variant:normal;font-weight:normal;font-stretch:normal;font-size:44px;font-family:'BIZ UDPGothic';-inkscape-font-specification:'BIZ UDPGothic';writing-mode:lr-tb;fill:#ffffff;fill-opacity:1;fill-rule:nonzero;stroke:none"
         id="text89"
         x="74.4375"
         y="-206.10941"
         inkscape:export-filename="D:\Users\1134140352905\ospo\LFResearch_TODOGroupOSPOSurvey_Infographic_V2_1of9.png"
         inkscape:export-xdpi="96"
         inkscape:export-ydpi="96"><tspan
           x="74.4375"
           sodipodi:role="line"
           id="tspan85"
           y="-206.10941">が、公的機関や教育機関も</tspan><tspan
           x="74.4375"
           sodipodi:role="line"
           y="-151.10941"
           id="tspan11860">積極的になってきています。</tspan><tspan
           x="278.7735 357.31351 519.45349 584.48547 728.1015"
           sodipodi:role="line"
           id="tspan87" /></text>
      <g
         id="g91"
         inkscape:export-filename="D:\Users\1134140352905\ospo\LFResearch_TODOGroupOSPOSurvey_Infographic_V2_1of9.png"
         inkscape:export-xdpi="96"
         inkscape:export-ydpi="96">
        <g
           id="g93"
           clip-path="url(#clipPath97)">
          <g
             id="g99">
            <g
               id="g101" />
            <g
               id="g129">
              <g
                 clip-path="url(#clipPath105)"
                 opacity="0.800003"
                 id="g127">
                <g
                   id="g125">
                  <g
                     id="g123">
                    <g
                       id="g121">
                      <g
                         id="g119">
                        <path
                           d="m 1110.204,315.638 c 0,-94.545 -76.643,-171.189 -171.188,-171.189 -94.546,0 -171.189,76.644 -171.189,171.189 0,94.545 76.643,171.189 171.189,171.189 94.545,0 171.188,-76.644 171.188,-171.189"
                           style="fill:url(#linearGradient115);stroke:none"
                           id="path117" />
                      </g>
                    </g>
                  </g>
                </g>
              </g>
            </g>
          </g>
          <g
             id="g131"
             transform="translate(939.0233,514.3801)">
            <path
               d="m 0,0 c -109.762,0 -198.741,-88.98 -198.741,-198.741 0,-109.762 88.979,-198.742 198.741,-198.742 109.762,0 198.741,88.98 198.741,198.742 C 198.741,-88.98 109.762,0 0,0 m 0,-27.165 c 45.83,0 88.917,-17.847 121.323,-50.253 32.406,-32.407 50.254,-75.494 50.254,-121.323 0,-45.83 -17.848,-88.917 -50.254,-121.323 C 88.917,-352.471 45.83,-370.318 0,-370.318 c -45.83,0 -88.917,17.847 -121.323,50.254 -32.406,32.406 -50.254,75.493 -50.254,121.323 0,45.829 17.848,88.916 50.254,121.323 32.406,32.406 75.493,50.253 121.323,50.253"
               style="fill:#231f20;fill-opacity:1;fill-rule:nonzero;stroke:none"
               id="path133" />
          </g>
          <g
             id="g135"
             transform="translate(901.6198,325.8279)">
            <path
               d="m 0,0 h 0.007 l 3.282,-0.19 0.295,3.275 c 1.587,17.613 16.125,30.894 33.82,30.894 17.959,0 32.837,-14.056 33.87,-31.998 l 0.261,-4.543 4.281,1.539 c 1.889,0.68 3.826,1.026 5.756,1.026 9.367,0 16.987,-7.62 16.987,-16.987 0,-9.367 -7.62,-16.988 -16.987,-16.988 H 0.031 c -9.367,0 -16.988,7.621 -16.988,16.988 C -16.957,-7.621 -9.34,0 0,0 m -23.752,-16.984 c 0,-13.111 10.668,-23.783 23.783,-23.783 h 81.541 c 13.114,0 23.782,10.672 23.782,23.783 0,13.111 -10.668,23.782 -23.782,23.782 -1.322,0 -2.644,-0.112 -3.955,-0.339 C 74.508,26.001 57.575,40.774 37.404,40.774 17.161,40.774 0.364,26.29 -2.813,6.629 -14.592,5.219 -23.752,-4.835 -23.752,-16.984"
               style="fill:#ffffff;fill-opacity:1;fill-rule:nonzero;stroke:none"
               id="path137" />
          </g>
          <g
             id="g139"
             transform="translate(939.0233,346.2166)">
            <path
               d="m 0,0 v 6.795 c -14.987,0 -27.18,-12.194 -27.18,-27.18 h 6.795 C -20.385,-9.143 -11.242,0 0,0"
               style="fill:#ffffff;fill-opacity:1;fill-rule:nonzero;stroke:none"
               id="path141" />
          </g>
          <g
             id="g143"
             transform="translate(942.4208,308.8436)">
            <path
               d="m 0,0 c 0,-1.875 -1.525,-3.398 -3.398,-3.398 -1.872,0 -3.397,1.523 -3.397,3.398 0,1.875 1.525,3.398 3.397,3.398 C -1.525,3.398 0,1.875 0,0 m -13.59,0 c 0,-5.62 4.573,-10.193 10.192,-10.193 5.62,0 10.193,4.573 10.193,10.193 0,5.62 -4.573,10.193 -10.193,10.193 C -9.017,10.193 -13.59,5.62 -13.59,0"
               style="fill:#ffffff;fill-opacity:1;fill-rule:nonzero;stroke:none"
               id="path145" />
          </g>
          <g
             id="g147"
             transform="translate(911.843,312.2411)">
            <path
               d="m 0,0 c 1.872,0 3.398,-1.522 3.398,-3.398 0,-1.875 -1.526,-3.397 -3.398,-3.397 -1.872,0 -3.398,1.522 -3.398,3.397 C -3.398,-1.522 -1.872,0 0,0 m 0,-13.59 c 5.62,0 10.193,4.573 10.193,10.192 C 10.193,2.222 5.62,6.795 0,6.795 -5.62,6.795 -10.193,2.222 -10.193,-3.398 -10.193,-9.017 -5.62,-13.59 0,-13.59"
               style="fill:#ffffff;fill-opacity:1;fill-rule:nonzero;stroke:none"
               id="path149" />
          </g>
          <g
             id="g151"
             transform="translate(966.2037,312.2411)">
            <path
               d="m 0,0 c 1.872,0 3.398,-1.522 3.398,-3.398 0,-1.875 -1.526,-3.397 -3.398,-3.397 -1.872,0 -3.398,1.522 -3.398,3.397 C -3.398,-1.522 -1.872,0 0,0 m 0,-13.59 c 5.62,0 10.193,4.573 10.193,10.192 C 10.193,2.222 5.62,6.795 0,6.795 -5.62,6.795 -10.193,2.222 -10.193,-3.398 -10.193,-9.017 -5.62,-13.59 0,-13.59"
               style="fill:#ffffff;fill-opacity:1;fill-rule:nonzero;stroke:none"
               id="path153" />
          </g>
          <g
             id="g155"
             transform="translate(960.6453,391.6214)">
            <path
               d="m 0,0 4.804,4.804 c -14.572,14.572 -38.283,14.572 -52.856,0 L -43.247,0 C -31.319,11.925 -11.925,11.925 0,0"
               style="fill:#ffffff;fill-opacity:1;fill-rule:nonzero;stroke:none"
               id="path157" />
          </g>
          <g
             id="g159"
             transform="translate(955.8412,386.8139)">
            <path
               d="M 0,0 C -4.495,4.492 -10.464,6.968 -16.818,6.968 -23.171,6.968 -29.141,4.492 -33.636,0 l 4.804,-4.804 c 3.211,3.207 7.478,4.977 12.014,4.977 4.536,0 8.803,-1.77 12.014,-4.977 z"
               style="fill:#ffffff;fill-opacity:1;fill-rule:nonzero;stroke:none"
               id="path161" />
          </g>
          <g
             id="g163"
             transform="translate(931.8137,377.2056)">
            <path
               d="m 0,0 4.808,-4.804 c 1.28,1.288 3.519,1.288 4.8,0 L 14.416,0 C 10.566,3.849 3.853,3.849 0,0"
               style="fill:#ffffff;fill-opacity:1;fill-rule:nonzero;stroke:none"
               id="path165" />
          </g>
          <g
             id="g167"
             transform="translate(912.5972,257.1261)">
            <path
               d="m 0,0 4.804,-4.804 c 11.925,11.925 31.322,11.925 43.247,0 L 52.856,0 C 38.28,14.572 14.572,14.572 0,0"
               style="fill:#ffffff;fill-opacity:1;fill-rule:nonzero;stroke:none"
               id="path169" />
          </g>
          <g
             id="g171"
             transform="translate(922.2054,247.5145)">
            <path
               d="m 0,0 4.804,-4.804 c 3.211,3.207 7.478,4.977 12.014,4.977 4.536,0 8.803,-1.77 12.014,-4.977 L 33.636,0 C 29.141,4.492 23.171,6.968 16.818,6.968 10.464,6.968 4.495,4.492 0,0"
               style="fill:#ffffff;fill-opacity:1;fill-rule:nonzero;stroke:none"
               id="path173" />
          </g>
          <g
             id="g175"
             transform="translate(931.8137,237.9062)">
            <path
               d="m 0,0 4.808,-4.804 c 1.28,1.288 3.519,1.288 4.8,0 L 14.416,0 C 10.566,3.849 3.853,3.849 0,0"
               style="fill:#ffffff;fill-opacity:1;fill-rule:nonzero;stroke:none"
               id="path177" />
          </g>
          <g
             id="g179"
             transform="translate(834.4536,335.2697)">
            <path
               d="m 0,0 4.804,-4.804 c 11.926,11.925 31.322,11.925 43.248,0 L 52.856,0 C 38.28,14.572 14.572,14.572 0,0"
               style="fill:#ffffff;fill-opacity:1;fill-rule:nonzero;stroke:none"
               id="path181" />
          </g>
          <g
             id="g183"
             transform="translate(877.6976,325.658)">
            <path
               d="M 0,0 C -4.495,4.492 -10.464,6.968 -16.818,6.968 -23.171,6.968 -29.141,4.492 -33.636,0 l 4.804,-4.804 c 3.211,3.207 7.478,4.977 12.014,4.977 4.536,0 8.803,-1.77 12.014,-4.977 z"
               style="fill:#ffffff;fill-opacity:1;fill-rule:nonzero;stroke:none"
               id="path185" />
          </g>
          <g
             id="g187"
             transform="translate(853.6702,316.0497)">
            <path
               d="m 0,0 4.807,-4.804 c 1.281,1.288 3.52,1.288 4.801,0 L 14.416,0 C 10.566,3.849 3.853,3.849 0,0"
               style="fill:#ffffff;fill-opacity:1;fill-rule:nonzero;stroke:none"
               id="path189" />
          </g>
          <g
             id="g191"
             transform="translate(1043.593,335.2697)">
            <path
               d="m 0,0 c -14.572,14.572 -38.284,14.572 -52.856,0 l 4.804,-4.804 c 11.926,11.925 31.323,11.925 43.248,0 z"
               style="fill:#ffffff;fill-opacity:1;fill-rule:nonzero;stroke:none"
               id="path193" />
          </g>
          <g
             id="g195"
             transform="translate(1033.9847,325.658)">
            <path
               d="M 0,0 C -4.495,4.492 -10.464,6.968 -16.818,6.968 -23.171,6.968 -29.141,4.492 -33.636,0 l 4.804,-4.804 c 3.211,3.207 7.478,4.977 12.014,4.977 4.536,0 8.803,-1.77 12.014,-4.977 z"
               style="fill:#ffffff;fill-opacity:1;fill-rule:nonzero;stroke:none"
               id="path197" />
          </g>
          <g
             id="g199"
             transform="translate(1009.9573,316.0497)">
            <path
               d="m 0,0 4.808,-4.804 c 1.28,1.288 3.519,1.288 4.8,0 L 14.416,0 C 10.566,3.849 3.853,3.849 0,0"
               style="fill:#ffffff;fill-opacity:1;fill-rule:nonzero;stroke:none"
               id="path201" />
          </g>
          <g
             id="g203"
             transform="translate(1034.1547,373.3969)">
            <path
               d="m 0,0 h -47.566 c -1.872,0 -3.397,1.522 -3.397,3.398 V 6.795 H 3.397 V 3.398 C 3.397,1.522 1.872,0 0,0 m -16.988,-13.59 h -13.59 v 6.795 h 13.59 z M -47.566,40.771 H 0 c 1.872,0 3.397,-1.523 3.397,-3.398 V 13.59 h -54.36 v 23.783 c 0,1.875 1.525,3.398 3.397,3.398 M 0,47.566 h -47.566 c -5.619,0 -10.192,-4.573 -10.192,-10.193 V 3.398 c 0,-5.62 4.573,-10.193 10.192,-10.193 h 10.193 v -6.795 h -6.795 v -6.795 h 40.77 v 6.795 h -6.795 v 6.795 H 0 c 5.62,0 10.193,4.573 10.193,10.193 V 37.373 C 10.193,42.993 5.62,47.566 0,47.566"
               style="fill:#ffffff;fill-opacity:1;fill-rule:nonzero;stroke:none"
               id="path205" />
          </g>
          <g
             id="g207"
             transform="translate(843.892,414.1675)">
            <path
               d="m 0,0 h 27.18 c 1.872,0 3.398,-1.522 3.398,-3.398 V -6.795 H -3.398 v 3.397 C -3.398,-1.522 -1.872,0 0,0 M -3.398,-13.59 H 30.577 V -40.77 H -3.398 Z M 27.18,-54.361 H 0 c -1.872,0 -3.398,1.522 -3.398,3.398 v 3.397 h 33.976 v -3.397 c 0,-1.876 -1.526,-3.398 -3.398,-3.398 M 0,-61.156 h 27.18 c 5.62,0 10.193,4.573 10.193,10.193 V -3.398 C 37.373,2.222 32.8,6.795 27.18,6.795 H 0 c -5.62,0 -10.193,-4.573 -10.193,-10.193 v -47.565 c 0,-5.62 4.573,-10.193 10.193,-10.193"
               style="fill:#ffffff;fill-opacity:1;fill-rule:nonzero;stroke:none"
               id="path209" />
          </g>
          <g
             id="g211"
             transform="translate(1037.5521,220.5073)">
            <path
               d="m 0,0 c 0,-1.875 -1.526,-3.398 -3.397,-3.398 h -40.771 c -1.872,0 -3.398,1.523 -3.398,3.398 v 6.795 c 0,1.876 1.526,3.398 3.398,3.398 H -3.397 C -1.526,10.193 0,8.671 0,6.795 Z M 0,27.18 V 20.385 C 0,18.51 -1.526,16.988 -3.397,16.988 h -40.771 c -1.872,0 -3.398,1.522 -3.398,3.397 v 6.795 c 0,1.876 1.526,3.398 3.398,3.398 H -3.397 C -1.526,30.578 0,29.056 0,27.18 m -47.566,20.386 c 0,1.875 1.526,3.397 3.398,3.397 H -3.397 C -1.526,50.963 0,49.441 0,47.566 v -6.795 c 0,-1.876 -1.526,-3.398 -3.397,-3.398 h -40.771 c -1.872,0 -3.398,1.522 -3.398,3.398 z m 44.169,10.192 h -40.771 c -5.62,0 -10.193,-4.573 -10.193,-10.192 v -6.795 c 0,-2.62 1.023,-4.988 2.65,-6.796 -1.63,-1.807 -2.65,-4.175 -2.65,-6.795 v -6.795 c 0,-2.619 1.023,-4.987 2.65,-6.795 -1.63,-1.807 -2.65,-4.175 -2.65,-6.795 V 0 c 0,-5.62 4.573,-10.193 10.193,-10.193 H -3.397 C 2.222,-10.193 6.795,-5.62 6.795,0 v 6.795 c 0,2.62 -1.023,4.988 -2.65,6.795 1.631,1.808 2.65,4.176 2.65,6.795 v 6.795 c 0,2.62 -1.023,4.988 -2.65,6.795 1.631,1.808 2.65,4.176 2.65,6.796 v 6.795 c 0,5.619 -4.573,10.192 -10.192,10.192"
               style="fill:#ffffff;fill-opacity:1;fill-rule:nonzero;stroke:none"
               id="path213" />
          </g>
          <g
             id="g215"
             transform="translate(901.6503,217.1098)">
            <path
               d="m 0,0 h -54.361 c -3.747,0 -6.795,3.048 -6.795,6.795 H 6.795 C 6.795,3.048 3.747,0 0,0 m -54.361,50.963 c 0,1.876 1.526,3.398 3.398,3.398 H -3.398 C -1.526,54.361 0,52.839 0,50.963 V 13.59 H -54.361 Z M 6.795,13.59 v 37.373 c 0,5.62 -4.573,10.193 -10.193,10.193 h -47.565 c -5.62,0 -10.193,-4.573 -10.193,-10.193 V 13.59 c -3.747,0 -6.795,-3.047 -6.795,-6.795 0,-7.495 6.095,-13.59 13.59,-13.59 H 0 c 7.495,0 13.59,6.095 13.59,13.59 0,3.748 -3.047,6.795 -6.795,6.795"
               style="fill:#ffffff;fill-opacity:1;fill-rule:nonzero;stroke:none"
               id="path217" />
          </g>
          <path
             d="m 860.88,257.88 h 27.18 v -13.59 h -27.18 z m -6.795,-20.385 h 40.771 v 27.18 h -40.771 z"
             style="fill:#ffffff;fill-opacity:1;fill-rule:nonzero;stroke:none"
             id="path219" />
        </g>
      </g>
      <text
         xml:space="preserve"
         transform="matrix(0.75000002,0,0,-0.75000002,553.5037,445.61308)"
         id="text352878"
         style="fill:black;fill-opacity:1;line-height:1.25;stroke:none;font-family:sans-serif;font-style:normal;font-weight:normal;font-size:40px;white-space:pre;shape-inside:url(#rect352880)" />
    </g>
  </g>
</svg>
