<?xml version="1.0" encoding="UTF-8" standalone="no"?>
<!-- Created with Inkscape (http://www.inkscape.org/) -->

<svg
   width="210mm"
   height="297mm"
   viewBox="0 0 210 297"
   version="1.1"
   id="svg36376"
   inkscape:version="1.1.2 (b8e25be833, 2022-02-05)"
   sodipodi:docname="LFResearch_TODOGroupOSPOSurvey_Infographic_V2_5of9.svg"
   inkscape:export-filename="D:\Users\1134140352905\ospo\LFResearch_TODOGroupOSPOSurvey_Infographic_V2_5of9.png"
   inkscape:export-xdpi="96"
   inkscape:export-ydpi="96"
   xmlns:inkscape="http://www.inkscape.org/namespaces/inkscape"
   xmlns:sodipodi="http://sodipodi.sourceforge.net/DTD/sodipodi-0.dtd"
   xmlns="http://www.w3.org/2000/svg"
   xmlns:svg="http://www.w3.org/2000/svg">
  <sodipodi:namedview
     id="namedview36378"
     pagecolor="#ffffff"
     bordercolor="#666666"
     borderopacity="1.0"
     inkscape:pageshadow="2"
     inkscape:pageopacity="0.0"
     inkscape:pagecheckerboard="0"
     inkscape:document-units="mm"
     showgrid="false"
     inkscape:zoom="0.7198092"
     inkscape:cx="84.050051"
     inkscape:cy="559.87059"
     inkscape:window-width="1920"
     inkscape:window-height="1017"
     inkscape:window-x="-8"
     inkscape:window-y="-8"
     inkscape:window-maximized="1"
     inkscape:current-layer="g36466" />
  <defs
     id="defs36373">
    <rect
       x="-241.73072"
       y="875.23193"
       width="383.43494"
       height="507.07882"
       id="rect86235" />
    <rect
       x="-357.03906"
       y="59.738053"
       width="294.52249"
       height="298.69026"
       id="rect76753" />
    <rect
       x="-329.25392"
       y="63.905824"
       width="287.57621"
       height="363.98534"
       id="rect75355" />
    <rect
       x="2.7785141"
       y="298.69026"
       width="259.79107"
       height="170.87862"
       id="rect52082" />
    <clipPath
       clipPathUnits="userSpaceOnUse"
       id="clipPath36474">
      <path
         d="M 0,628 H 1200 V 0 H 0 Z"
         id="path36472" />
    </clipPath>
    <clipPath
       clipPathUnits="userSpaceOnUse"
       id="clipPath36482">
      <path
         d="m 29.371,-712.008 c -14.066,0 -25.575,11.509 -25.575,25.576 v 571.998 c 0,14.067 11.509,25.576 25.575,25.576 h 1142.862 c 14.067,0 25.576,-11.509 25.576,-25.576 v -571.998 c 0,-14.067 -11.509,-25.576 -25.576,-25.576 z"
         id="path36480" />
    </clipPath>
    <clipPath
       clipPathUnits="userSpaceOnUse"
       id="clipPath36522">
      <path
         d="M 0,628 H 1200 V 0 H 0 Z"
         id="path36520" />
    </clipPath>
    <clipPath
       clipPathUnits="userSpaceOnUse"
       id="clipPath36530">
      <path
         d="M 741.816,508.254 H 939.044 V 309.544 H 741.816 Z"
         id="path36528" />
    </clipPath>
  </defs>
  <g
     inkscape:label="Layer 1"
     inkscape:groupmode="layer"
     id="layer1">
    <g
       id="g36466"
       inkscape:label="LFResearch_TODOGroupOSPOSurvey_Infographic_V2"
       transform="matrix(0.35277777,0,0,-0.35277777,-158.28385,253.95182)">
      <g
         id="g36468">
        <g
           id="g36470"
           clip-path="url(#clipPath36474)">
          <g
             id="g36476">
            <g
               id="g36478"
               clip-path="url(#clipPath36482)">
              <g
                 id="g36484"
                 transform="translate(144.3992,96.5554)">
                <path
                   d="m 0,0 c -186.618,0 -337.902,-151.284 -337.902,-337.902 0,-186.618 151.284,-337.902 337.902,-337.902 186.618,0 337.902,151.284 337.902,337.902 C 337.902,-151.284 186.618,0 0,0 m 0,-30 c 41.58,0 81.9,-8.137 119.84,-24.184 36.661,-15.507 69.593,-37.712 97.88,-65.998 28.287,-28.287 50.491,-61.219 65.998,-97.88 16.047,-37.94 24.184,-78.261 24.184,-119.84 0,-41.58 -8.137,-81.9 -24.184,-119.84 -15.507,-36.662 -37.711,-69.593 -65.998,-97.88 -28.287,-28.287 -61.219,-50.492 -97.88,-65.998 C 81.9,-637.667 41.58,-645.804 0,-645.804 c -41.58,0 -81.9,8.137 -119.84,24.184 -36.661,15.506 -69.593,37.711 -97.88,65.998 -28.287,28.287 -50.492,61.218 -65.998,97.88 -16.047,37.94 -24.184,78.26 -24.184,119.84 0,41.579 8.137,81.9 24.184,119.84 15.506,36.661 37.711,69.593 65.998,97.88 28.287,28.286 61.219,50.491 97.88,65.998 C -81.9,-38.137 -41.58,-30 0,-30"
                   style="fill:#a1d33c;fill-opacity:1;fill-rule:nonzero;stroke:none"
                   id="path36486" />
              </g>
            </g>
          </g>
          <g
             id="g36488"
             transform="translate(29.3713,1.7776)">
            <path
               d="m 0,0 c -14.067,0 -25.576,11.509 -25.576,25.576 v 571.998 c 0,14.067 11.509,25.576 25.576,25.576 h 1142.862 c 14.067,0 25.576,-11.509 25.576,-25.576 V 25.576 C 1168.438,11.509 1156.929,0 1142.862,0 Z"
               style="fill:#a1d33c;fill-opacity:1;fill-rule:nonzero;stroke:none"
               id="path36490" />
          </g>
        </g>
      </g>
      <text
         transform="scale(1,-1)"
         style="font-variant:normal;font-weight:bold;font-stretch:normal;font-size:44px;font-family:'Open Sans';-inkscape-font-specification:OpenSans-Bold;writing-mode:lr-tb;fill:#268600;fill-opacity:1;fill-rule:nonzero;stroke:none"
         id="text36494-9"
         x="259.14346"
         y="-479.58514"><tspan
           x="259.14346 284.26749 309.39151"
           y="-479.58514"
           sodipodi:role="line"
           id="tspan36492-0"
           style="font-style:normal;font-variant:normal;font-weight:bold;font-stretch:normal;font-family:'BIZ UDPGothic';-inkscape-font-specification:'BIZ UDPGothic Bold'">77%</tspan></text>
      <text
         transform="matrix(1,0,0,-1,75.1328,352.6328)"
         style="font-variant:normal;font-weight:800;font-stretch:normal;font-size:56px;font-family:'Open Sans Extrabold';-inkscape-font-specification:OpenSans-Extrabold;writing-mode:lr-tb;white-space:pre;inline-size:733.812;fill:#231f20;fill-opacity:1;fill-rule:nonzero;stroke:none"
         id="text36508"
         xml:space="preserve"><tspan
           x="0"
           y="0"
           id="tspan21451"><tspan
             style="font-weight:bold;font-family:'BIZ UDPGothic';-inkscape-font-specification:'BIZ UDPGothic Bold'"
             id="tspan21449">オープンソース
</tspan></tspan><tspan
           x="0"
           y="75.182938"
           id="tspan21457"><tspan
             style="font-weight:bold;font-family:'BIZ UDPGothic';-inkscape-font-specification:'BIZ UDPGothic Bold'"
             id="tspan21453">プログラム</tspan><tspan
             style="font-weight:bold;font-family:'BIZ UDPGothic';-inkscape-font-specification:'BIZ UDPGothic Bold'"
             id="tspan21455">が
</tspan></tspan><tspan
           x="0"
           y="150.36588"
           id="tspan21465"><tspan
             style="font-weight:bold;font-family:'BIZ UDPGothic';-inkscape-font-specification:'BIZ UDPGothic Bold'"
             id="tspan21459">プラス</tspan><tspan
             style="font-weight:bold;font-family:'BIZ UDPGothic';-inkscape-font-specification:'BIZ UDPGothic Bold'"
             id="tspan21461">の</tspan><tspan
             style="font-weight:bold;font-family:'BIZ UDPGothic';-inkscape-font-specification:'BIZ UDPGothic Bold'"
             id="tspan21463">影響</tspan></tspan></text>
      <text
         transform="matrix(1,0,0,-1,75.1328,140.6328)"
         style="font-variant:normal;font-weight:normal;font-stretch:normal;font-size:44px;font-family:'Open Sans';-inkscape-font-specification:OpenSans;writing-mode:lr-tb;white-space:pre;inline-size:572.645;fill:#231f20;fill-opacity:1;fill-rule:nonzero;stroke:none"
         id="text36514"
         xml:space="preserve"><tspan
           x="0"
           y="0"
           id="tspan21467">を与えたと答えました。</tspan></text>
      <text
         transform="matrix(1,0,0,-1,0,-18)"
         style="font-style:normal;font-variant:normal;font-weight:normal;font-stretch:normal;font-size:44px;font-family:'BIZ UDPGothic';-inkscape-font-specification:'BIZ UDPGothic';writing-mode:lr-tb;white-space:pre;inline-size:596.953;fill:#231f20;fill-opacity:1;fill-rule:nonzero;stroke:none"
         id="text36514-9"
         x="75.101547"
         y="-498.26883"
         xml:space="preserve"><tspan
           x="75.101547"
           y="-498.26883"
           id="tspan21469">回答者の        が、
</tspan><tspan
           x="75.101547"
           y="-443.2688"
           id="tspan21471">自社ソフトウェアの実務に</tspan></text>
      <g
         id="g36516">
        <g
           id="g36518"
           clip-path="url(#clipPath36522)">
          <g
             id="g36524">
            <g
               id="g36526" />
            <g
               id="g36538">
              <g
                 clip-path="url(#clipPath36530)"
                 opacity="0.25"
                 id="g36536">
                <g
                   transform="translate(939.0443,309.5439)"
                   id="g36534">
                  <path
                     d="M 0,0 -197.229,24.217 C -184.924,124.429 -100.965,198.71 0,198.71 Z"
                     style="fill:#ffffff;fill-opacity:1;fill-rule:evenodd;stroke:none"
                     id="path36532" />
                </g>
              </g>
            </g>
          </g>
          <g
             id="g36540"
             transform="translate(939.0443,309.5439)">
            <path
               d="m 0,0 v 198.71 c 109.744,0 198.71,-88.966 198.71,-198.71 0,-109.744 -88.966,-198.71 -198.71,-198.71 -109.744,0 -198.71,88.966 -198.71,198.71 0,8.78 0.411,15.503 1.481,24.217 z"
               style="fill:#268600;fill-opacity:1;fill-rule:evenodd;stroke:none"
               id="path36542" />
          </g>
          <g
             id="g36544"
             transform="translate(1110.2095,309.3329)">
            <path
               d="m 0,0 c 0,-94.545 -76.644,-171.189 -171.189,-171.189 -94.545,0 -171.189,76.644 -171.189,171.189 0,94.545 76.644,171.189 171.189,171.189 C -76.644,171.189 0,94.545 0,0"
               style="fill:#a1d33c;fill-opacity:1;fill-rule:nonzero;stroke:none"
               id="path36546" />
          </g>
          <g
             id="g36548"
             transform="translate(1016.0228,361.163)">
            <path
               d="M 0,0 C -2.187,0 -3.962,-1.774 -3.962,-3.962 V -118.64 H -28.309 V -7.925 h 7.148 c 2.188,0 3.962,1.776 3.962,3.963 0,2.188 -1.774,3.962 -3.962,3.962 L -36.241,0 -16.135,33.322 3.97,0 Z m -62.626,-37.252 h 26.393 v -81.388 h -26.393 z m -34.298,-17.83 h 26.374 v -63.558 h -26.374 z m -34.301,-17.83 h 26.376 v -45.727 h -26.376 z M 14.38,-1.915 -12.743,43.04 c -0.718,1.189 -2.004,1.915 -3.392,1.915 -1.389,0 -2.677,-0.726 -3.393,-1.915 L -46.651,-1.915 c -0.739,-1.222 -0.76,-2.75 -0.059,-3.994 0.703,-1.245 2.021,-2.016 3.451,-2.016 h 7.024 v -21.402 h -30.353 c -2.189,0 -3.962,-1.774 -3.962,-3.962 v -13.868 h -30.337 c -2.188,0 -3.962,-1.774 -3.962,-3.963 v -13.868 h -30.338 c -2.188,0 -3.962,-1.774 -3.962,-3.962 v -53.652 c 0,-2.188 1.774,-3.962 3.962,-3.962 H 0 c 2.189,0 3.962,1.774 3.962,3.962 V -7.925 h 7.026 c 1.428,0 2.747,0.771 3.45,2.016 0.702,1.244 0.681,2.77 -0.058,3.994"
               style="fill:#ffffff;fill-opacity:1;fill-rule:nonzero;stroke:none"
               id="path36550" />
          </g>
          <g
             id="g36552"
             transform="translate(951.114,225.0258)">
            <path
               d="m 0,0 h -89.059 v 169.944 l 2.079,-2.755 c 0.778,-1.033 1.966,-1.578 3.167,-1.578 0.829,0 1.667,0.26 2.382,0.799 1.747,1.317 2.095,3.803 0.778,5.55 l -9.204,12.204 c -0.748,0.994 -1.92,1.578 -3.164,1.578 -1.243,0 -2.414,-0.584 -3.164,-1.578 l -9.203,-12.205 c -1.317,-1.748 -0.969,-4.232 0.779,-5.549 1.747,-1.317 4.231,-0.969 5.549,0.779 l 2.077,2.755 V 0 h -4.597 c -2.189,0 -3.962,-1.774 -3.962,-3.962 0,-2.189 1.773,-3.963 3.962,-3.963 h 4.597 v -4.596 c 0,-2.189 1.773,-3.963 3.962,-3.963 2.189,0 3.962,1.774 3.962,3.963 v 4.596 H 0 c 2.187,0 3.962,1.774 3.962,3.963 C 3.962,-1.774 2.187,0 0,0"
               style="fill:#ffffff;fill-opacity:1;fill-rule:nonzero;stroke:none"
               id="path36554" />
          </g>
          <g
             id="g36556"
             transform="translate(970.2506,222.5788)">
            <path
               d="M 0,0 C -0.099,0.241 -0.221,0.472 -0.364,0.686 -0.506,0.904 -0.673,1.105 -0.856,1.288 -1.037,1.47 -1.24,1.636 -1.458,1.778 -1.672,1.922 -1.901,2.045 -2.144,2.144 -2.38,2.243 -2.63,2.319 -2.883,2.37 -3.396,2.472 -3.922,2.472 -4.433,2.37 -4.684,2.319 -4.933,2.243 -5.174,2.144 -5.413,2.045 -5.642,1.922 -5.855,1.778 -6.073,1.636 -6.276,1.47 -6.457,1.288 -6.64,1.105 -6.807,0.904 -6.953,0.686 -7.096,0.472 -7.219,0.241 -7.318,0 -7.417,-0.238 -7.493,-0.488 -7.544,-0.741 -7.595,-0.995 -7.62,-1.255 -7.62,-1.514 c 0,-0.257 0.025,-0.518 0.076,-0.777 0.051,-0.249 0.127,-0.498 0.226,-0.74 0.099,-0.238 0.222,-0.467 0.365,-0.682 0.146,-0.217 0.313,-0.42 0.496,-0.602 0.181,-0.183 0.384,-0.348 0.602,-0.495 0.213,-0.143 0.442,-0.265 0.681,-0.364 0.241,-0.099 0.49,-0.175 0.741,-0.226 0.257,-0.053 0.519,-0.076 0.776,-0.076 0.258,0 0.52,0.023 0.774,0.076 0.253,0.051 0.503,0.127 0.739,0.226 0.243,0.099 0.472,0.221 0.686,0.364 0.218,0.147 0.419,0.312 0.602,0.495 0.183,0.182 0.35,0.385 0.492,0.602 0.143,0.215 0.265,0.444 0.364,0.682 0.099,0.242 0.175,0.491 0.226,0.74 0.053,0.259 0.079,0.52 0.079,0.777 0,0.259 -0.026,0.519 -0.079,0.773 C 0.175,-0.488 0.099,-0.238 0,0"
               style="fill:#ffffff;fill-opacity:1;fill-rule:nonzero;stroke:none"
               id="path36558" />
          </g>
          <g
             id="g36560"
             transform="translate(1046.2198,224.2272)">
            <path
               d="m 0,0 -12.206,9.205 c -1.746,1.317 -4.231,0.968 -5.549,-0.779 -1.317,-1.747 -0.968,-4.232 0.779,-5.549 L -14.221,0.8 h -50.121 c -2.187,0 -3.963,-1.775 -3.963,-3.962 0,-2.189 1.776,-3.962 3.963,-3.962 h 50.121 l -2.755,-2.079 c -1.747,-1.317 -2.096,-3.801 -0.779,-5.549 0.779,-1.032 1.966,-1.577 3.167,-1.577 0.83,0 1.669,0.26 2.382,0.799 L 0,-6.326 c 0.994,0.749 1.577,1.92 1.577,3.164 C 1.577,-1.919 0.994,-0.748 0,0"
               style="fill:#ffffff;fill-opacity:1;fill-rule:nonzero;stroke:none"
               id="path36562" />
          </g>
          <g
             id="g36564"
             transform="translate(957.271,377.4022)">
            <path
               d="m 0,0 c -0.265,1.213 -1.085,2.235 -2.215,2.753 -1.128,0.521 -2.436,0.48 -3.533,-0.108 l -12.308,-6.621 c -1.927,-1.036 -2.648,-3.439 -1.613,-5.366 1.037,-1.927 3.439,-2.65 5.368,-1.613 l 2.471,1.331 c -6.694,-14.385 -23.673,-29.497 -45.246,-40.072 -7.296,-3.575 -14.745,-6.449 -22.139,-8.54 -2.105,-0.596 -3.329,-2.785 -2.735,-4.891 0.494,-1.745 2.084,-2.885 3.811,-2.885 0.357,0 0.721,0.049 1.082,0.151 7.85,2.22 15.747,5.264 23.47,9.05 22.664,11.108 40.745,27.222 48.503,42.943 l 0.322,-1.477 c 0.403,-1.852 2.044,-3.118 3.867,-3.118 0.281,0 0.564,0.031 0.849,0.093 2.137,0.465 3.493,2.577 3.027,4.716 z"
               style="fill:#ffffff;fill-opacity:1;fill-rule:nonzero;stroke:none"
               id="path36566" />
          </g>
        </g>
      </g>
      <text
         xml:space="preserve"
         transform="matrix(0.75000002,0,0,-0.75000002,448.67864,719.86344)"
         id="text52080"
         style="fill:black;fill-opacity:1;line-height:1.25;stroke:none;font-family:sans-serif;font-style:normal;font-weight:normal;font-size:40px;white-space:pre;shape-inside:url(#rect52082)" />
      <text
         xml:space="preserve"
         transform="matrix(0.75000002,0,0,-0.75000002,448.67864,719.86344)"
         id="text75353"
         style="fill:black;fill-opacity:1;line-height:1.25;stroke:none;font-family:sans-serif;font-style:normal;font-weight:normal;font-size:40px;white-space:pre;shape-inside:url(#rect75355)" />
      <text
         xml:space="preserve"
         transform="matrix(0.75000002,0,0,-0.75000002,448.67864,719.86344)"
         id="text76751"
         style="fill:black;fill-opacity:1;line-height:1.25;stroke:none;font-family:sans-serif;font-style:normal;font-weight:normal;font-size:40px;white-space:pre;shape-inside:url(#rect76753)" />
      <text
         xml:space="preserve"
         transform="matrix(0.75000002,0,0,-0.75000002,448.67864,719.86344)"
         id="text86233"
         style="fill:black;fill-opacity:1;line-height:1.25;stroke:none;font-family:sans-serif;font-style:normal;font-weight:normal;font-size:40px;white-space:pre;shape-inside:url(#rect86235)" />
    </g>
  </g>
</svg>
