<?xml version="1.0" encoding="UTF-8" standalone="no"?>
<!-- Created with Inkscape (http://www.inkscape.org/) -->

<svg
   width="210mm"
   height="297mm"
   viewBox="0 0 210 297"
   version="1.1"
   id="svg5"
   inkscape:version="1.1.2 (b8e25be833, 2022-02-05)"
   sodipodi:docname="LFResearch_TODOGroupOSPOSurvey_Infographic_V2_3of9.svg"
   inkscape:export-filename="D:\Users\1134140352905\ospo\LFResearch_TODOGroupOSPOSurvey_Infographic_V2_3of9.png"
   inkscape:export-xdpi="96"
   inkscape:export-ydpi="96"
   xmlns:inkscape="http://www.inkscape.org/namespaces/inkscape"
   xmlns:sodipodi="http://sodipodi.sourceforge.net/DTD/sodipodi-0.dtd"
   xmlns="http://www.w3.org/2000/svg"
   xmlns:svg="http://www.w3.org/2000/svg">
  <sodipodi:namedview
     id="namedview7"
     pagecolor="#ffffff"
     bordercolor="#666666"
     borderopacity="1.0"
     inkscape:pageshadow="2"
     inkscape:pageopacity="0.0"
     inkscape:pagecheckerboard="0"
     inkscape:document-units="mm"
     showgrid="false"
     inkscape:zoom="0.74029882"
     inkscape:cx="8.7802382"
     inkscape:cy="994.19313"
     inkscape:window-width="1920"
     inkscape:window-height="1017"
     inkscape:window-x="-8"
     inkscape:window-y="-8"
     inkscape:window-maximized="1"
     inkscape:current-layer="g15" />
  <defs
     id="defs2">
    <rect
       x="164.79832"
       y="1425.1002"
       width="873.9714"
       height="394.43532"
       id="rect26480" />
    <clipPath
       clipPathUnits="userSpaceOnUse"
       id="clipPath23">
      <path
         d="M 0,628 H 1200 V 0 H 0 Z"
         id="path21" />
    </clipPath>
    <clipPath
       clipPathUnits="userSpaceOnUse"
       id="clipPath35">
      <path
         d="M 3.956,2.335 H 1197.969 V 625.484 H 3.956 Z"
         id="path33" />
    </clipPath>
    <clipPath
       clipPathUnits="userSpaceOnUse"
       id="clipPath43">
      <path
         d="M 871.336,636.522 H 1391.21 V 136.101 H 871.336 Z"
         id="path41" />
    </clipPath>
    <clipPath
       clipPathUnits="userSpaceOnUse"
       id="clipPath91">
      <path
         d="M 0,628 H 1200 V 0 H 0 Z"
         id="path89" />
    </clipPath>
  </defs>
  <g
     inkscape:label="Layer 1"
     inkscape:groupmode="layer"
     id="layer1">
    <g
       id="g15"
       inkscape:label="LFResearch_TODOGroupOSPOSurvey_Infographic_V2"
       transform="matrix(0.35277777,0,0,-0.35277777,-200.92679,363.06517)">
      <g
         id="g17">
        <g
           id="g19"
           clip-path="url(#clipPath23)">
          <g
             id="g25"
             transform="translate(29.5315,2.3344)">
            <path
               d="m 0,0 c -14.067,0 -25.576,11.509 -25.576,25.576 v 571.998 c 0,14.067 11.509,25.576 25.576,25.576 h 1142.862 c 14.066,0 25.576,-11.509 25.576,-25.576 V 25.576 C 1168.438,11.509 1156.928,0 1142.862,0 Z"
               style="fill:#a1d33c;fill-opacity:1;fill-rule:nonzero;stroke:none"
               id="path27" />
          </g>
        </g>
      </g>
      <g
         id="g29">
        <g
           id="g31"
           clip-path="url(#clipPath35)">
          <g
             id="g37">
            <g
               id="g39" />
            <g
               id="g51">
              <g
                 clip-path="url(#clipPath43)"
                 opacity="0.25"
                 id="g49">
                <g
                   transform="translate(1054.6207,473.372)"
                   id="g47">
                  <path
                     d="M 0,0 294.331,163.15 C 384.436,0.596 325.705,-204.225 163.15,-294.331 52.613,-355.602 -77.291,-351.066 -183.284,-282.233 Z"
                     style="fill:#ffffff;fill-opacity:1;fill-rule:evenodd;stroke:none"
                     id="path45" />
                </g>
              </g>
            </g>
          </g>
          <g
             id="g53"
             transform="translate(1054.6207,473.372)">
            <path
               d="m 0,0 -183.284,-282.233 c -155.873,101.225 -200.174,309.644 -98.949,465.517 101.225,155.873 309.644,200.174 465.517,98.949 49.88,-32.392 82.213,-67.065 111.047,-119.083 z"
               style="fill:#268600;fill-opacity:1;fill-rule:evenodd;stroke:none"
               id="path55" />
          </g>
          <g
             id="g57"
             transform="translate(1223.7549,731.4001)">
            <path
               d="m 0,0 c 46.71,-30.339 84.103,-72.713 108.134,-122.54 24.445,-50.683 34.437,-107.961 28.897,-165.639 -7.905,-82.289 -47.38,-156.574 -111.157,-209.171 -63.776,-52.598 -144.217,-77.212 -226.506,-69.307 -50.145,4.817 -96.834,21.068 -138.77,48.301 -46.759,30.365 -84.55,72.879 -109.286,122.944 -25.418,51.447 -35.939,108.993 -30.423,166.418 7.905,82.288 47.381,156.573 111.157,209.171 63.776,52.597 144.217,77.212 226.506,69.307 20.517,-1.971 38.479,-5.458 58.239,-11.307 C -53.437,29.366 -25.445,16.524 -0.02,0.013 -0.012,0.008 -0.007,0.005 0,0"
               style="fill:#a1d33c;fill-opacity:1;fill-rule:evenodd;stroke:none"
               id="path59" />
          </g>
        </g>
      </g>
      <text
         transform="matrix(1,0,0,-1,75.293,424.1094)"
         style="font-variant:normal;font-weight:800;font-stretch:normal;font-size:60px;font-family:'Open Sans Extrabold';-inkscape-font-specification:OpenSans-Extrabold;writing-mode:lr-tb;white-space:pre;inline-size:618.794;fill:#231f20;fill-opacity:1;fill-rule:nonzero;stroke:none"
         id="text67"
         xml:space="preserve"><tspan
           x="0"
           y="0"
           id="tspan20461">OSPO <tspan
   style="font-weight:bold;font-family:'BIZ UDPGothic';-inkscape-font-specification:'BIZ UDPGothic Bold'"
   id="tspan20455">の</tspan><tspan
   style="font-weight:bold;font-family:'BIZ UDPGothic';-inkscape-font-specification:'BIZ UDPGothic Bold'"
   id="tspan20457">専門化</tspan><tspan
   style="font-weight:bold;font-family:'BIZ UDPGothic';-inkscape-font-specification:'BIZ UDPGothic Bold'"
   id="tspan20459">が
</tspan></tspan><tspan
           x="0"
           y="80.553146"
           id="tspan20467"><tspan
             style="font-weight:bold;font-family:'BIZ UDPGothic';-inkscape-font-specification:'BIZ UDPGothic Bold'"
             id="tspan20463">続</tspan><tspan
             style="font-weight:bold;font-family:'BIZ UDPGothic';-inkscape-font-specification:'BIZ UDPGothic Bold'"
             id="tspan20465">いており、</tspan></tspan></text>
      <text
         transform="matrix(1,0,0,-1,75.293,278.1094)"
         style="font-variant:normal;font-weight:normal;font-stretch:normal;font-size:44px;font-family:'Open Sans';-inkscape-font-specification:OpenSans;writing-mode:lr-tb;white-space:pre;inline-size:571.547;fill:#231f20;fill-opacity:1;fill-rule:nonzero;stroke:none"
         id="text71"
         xml:space="preserve"><tspan
           x="0"
           y="0"
           id="tspan20477"><tspan
             style="font-family:'BIZ UDPGothic';-inkscape-font-specification:'BIZ UDPGothic'"
             id="tspan20469">正式</tspan><tspan
             style="font-family:'BIZ UDPGothic';-inkscape-font-specification:'BIZ UDPGothic'"
             id="tspan20471">に</tspan><tspan
             style="font-family:'BIZ UDPGothic';-inkscape-font-specification:'BIZ UDPGothic'"
             id="tspan20473">専門組織</tspan><tspan
             style="font-family:'BIZ UDPGothic';-inkscape-font-specification:'BIZ UDPGothic'"
             id="tspan20475">となっている </tspan></tspan><tspan
           x="0"
           y="59.072311"
           id="tspan20483"><tspan
             style="font-family:'BIZ UDPGothic';-inkscape-font-specification:'BIZ UDPGothic'"
             id="tspan20479">OSPO </tspan><tspan
             style="font-family:'BIZ UDPGothic';-inkscape-font-specification:'BIZ UDPGothic'"
             id="tspan20481">は54%から       に
</tspan></tspan><tspan
           x="0"
           y="118.14462"
           id="tspan20489"><tspan
             style="font-family:'BIZ UDPGothic';-inkscape-font-specification:'BIZ UDPGothic'"
             id="tspan20485">増加</tspan><tspan
             style="font-family:'BIZ UDPGothic';-inkscape-font-specification:'BIZ UDPGothic'"
             id="tspan20487">しました。</tspan></tspan></text>
      <text
         transform="scale(1,-1)"
         style="font-variant:normal;font-weight:bold;font-stretch:normal;font-size:44px;font-family:'Open Sans';-inkscape-font-specification:OpenSans-Bold;writing-mode:lr-tb;fill:#268600;fill-opacity:1;fill-rule:nonzero;stroke:none"
         id="text75"
         x="469.4144"
         y="-219.34935"><tspan
           x="469.4144 494.53839 519.66241"
           y="-219.34935"
           sodipodi:role="line"
           id="tspan73"
           style="font-style:normal;font-variant:normal;font-weight:bold;font-stretch:normal;font-family:'BIZ UDPGothic';-inkscape-font-specification:'BIZ UDPGothic Bold'">58%</tspan></text>
      <g
         id="g85">
        <g
           id="g87"
           clip-path="url(#clipPath91)">
          <g
             id="g93"
             transform="translate(1125.2246,425.8095)">
            <path
               d="M 0,0 C -3.93,0 -6.549,-2.62 -6.549,-6.549 V -91.69 c 0,-3.93 -2.62,-6.55 -6.549,-6.55 h -235.776 c -3.93,0 -6.55,2.62 -6.55,6.55 v 85.141 c 0,3.93 -2.62,6.549 -6.549,6.549 -3.929,0 -6.549,-2.62 -6.549,-6.549 V -91.69 c 0,-11.134 8.514,-19.648 19.648,-19.648 h 235.776 c 11.134,0 19.648,8.514 19.648,19.648 V -6.549 C 6.55,-2.619 3.93,0 0,0"
               style="fill:#ffffff;fill-opacity:1;fill-rule:nonzero;stroke:none"
               id="path95" />
          </g>
          <g
             id="g97"
             transform="translate(1125.2246,455.9368)">
            <path
               d="m 0,0 c 0,-3.275 -1.965,-5.895 -5.24,-6.549 l -99.549,-22.268 v 5.239 c 0,3.93 -2.62,6.549 -6.549,6.549 h -39.296 c -3.93,0 -6.549,-2.619 -6.549,-6.549 v -5.239 l -99.55,22.267 c -3.275,0.655 -5.24,3.275 -5.24,6.549 v 41.916 c 0,3.93 2.62,6.549 6.549,6.549 H -6.549 C -2.62,48.464 0,45.844 0,41.915 Z m -117.888,-56.324 h -26.197 v 26.197 h 26.197 z M -6.549,61.563 h -248.875 c -11.134,0 -19.647,-8.514 -19.647,-19.648 V -0.001 c 0,-9.168 6.549,-17.028 15.063,-18.992 l 102.825,-22.923 v -20.957 c 0,-3.93 2.62,-6.55 6.549,-6.55 h 39.296 c 3.929,0 6.549,2.62 6.549,6.55 v 20.957 L -1.965,-18.993 C 6.55,-17.029 13.099,-9.169 13.099,0 v 41.916 c 0,11.133 -8.514,19.647 -19.648,19.647"
               style="fill:#ffffff;fill-opacity:1;fill-rule:nonzero;stroke:none"
               id="path99" />
          </g>
          <g
             id="g101"
             transform="translate(1026.985,563.3455)">
            <path
               d="m 0,0 h -65.493 c -11.134,0 -19.648,-8.514 -19.648,-19.648 v -6.549 c 0,-3.93 2.62,-6.549 6.549,-6.549 3.929,0 6.549,2.62 6.549,6.549 v 6.549 c 0,3.93 2.62,6.549 6.549,6.549 h 65.493 c 3.93,0 6.55,-2.62 6.55,-6.549 v -6.549 c 0,-3.93 2.619,-6.549 6.549,-6.549 3.929,0 6.549,2.62 6.549,6.549 v 6.549 C 19.648,-8.514 11.134,0 0,0"
               style="fill:#ffffff;fill-opacity:1;fill-rule:nonzero;stroke:none"
               id="path103" />
          </g>
        </g>
      </g>
      <text
         xml:space="preserve"
         transform="matrix(0.75000002,0,0,-0.75000002,569.55627,1029.1611)"
         id="text26478"
         style="fill:black;fill-opacity:1;line-height:1.25;stroke:none;font-family:sans-serif;font-style:normal;font-weight:normal;font-size:40px;white-space:pre;shape-inside:url(#rect26480)" />
    </g>
  </g>
</svg>
