<?xml version="1.0" encoding="UTF-8" standalone="no"?>
<!-- Created with Inkscape (http://www.inkscape.org/) -->

<svg
   width="210mm"
   height="297mm"
   viewBox="0 0 210 297"
   version="1.1"
   id="svg255000"
   sodipodi:docname="LFResearch_TODOGroupOSPOSurvey_Infographic_V2_2of9.svg"
   inkscape:export-filename="D:\Users\1134140352905\ospo\LFResearch_TODOGroupOSPOSurvey_Infographic_V2_2of9.png"
   inkscape:export-xdpi="96"
   inkscape:export-ydpi="96"
   inkscape:version="1.1.2 (b8e25be833, 2022-02-05)"
   xmlns:inkscape="http://www.inkscape.org/namespaces/inkscape"
   xmlns:sodipodi="http://sodipodi.sourceforge.net/DTD/sodipodi-0.dtd"
   xmlns="http://www.w3.org/2000/svg"
   xmlns:svg="http://www.w3.org/2000/svg">
  <sodipodi:namedview
     id="namedview255002"
     pagecolor="#ffffff"
     bordercolor="#666666"
     borderopacity="1.0"
     inkscape:pageshadow="2"
     inkscape:pageopacity="0.0"
     inkscape:pagecheckerboard="0"
     inkscape:document-units="mm"
     showgrid="false"
     inkscape:zoom="0.7198092"
     inkscape:cx="78.493023"
     inkscape:cy="302.85804"
     inkscape:window-width="1920"
     inkscape:window-height="1017"
     inkscape:window-x="-8"
     inkscape:window-y="-8"
     inkscape:window-maximized="1"
     inkscape:current-layer="g255090" />
  <defs
     id="defs254997">
    <rect
       x="-33.342169"
       y="34.731426"
       width="507.07882"
       height="75.01988"
       id="rect281984" />
    <clipPath
       clipPathUnits="userSpaceOnUse"
       id="clipPath255098">
      <path
         d="M 0,628 H 1200 V 0 H 0 Z"
         id="path255096" />
    </clipPath>
    <clipPath
       clipPathUnits="userSpaceOnUse"
       id="clipPath255138">
      <path
         d="M 0,628 H 1200 V 0 H 0 Z"
         id="path255136" />
    </clipPath>
    <clipPath
       clipPathUnits="userSpaceOnUse"
       id="clipPath255146">
      <path
         d="M 65.0834,517.558 H 263.793 V 180.813 H 65.0834 Z"
         id="path255144" />
    </clipPath>
  </defs>
  <g
     inkscape:label="Layer 1"
     inkscape:groupmode="layer"
     id="layer1">
    <g
       id="g255090"
       inkscape:label="LFResearch_TODOGroupOSPOSurvey_Infographic_V2"
       transform="matrix(0.35277777,0,0,-0.35277777,-189.16009,159.26006)">
      <g
         id="g255092"
         inkscape:export-filename="D:\Users\1134140352905\ospo\LFResearch_TODOGroupOSPOSurvey_Infographic_V2_2of9.png"
         inkscape:export-xdpi="96"
         inkscape:export-ydpi="96">
        <g
           id="g255094"
           clip-path="url(#clipPath255098)">
          <g
             id="g255100"
             transform="translate(29.3713,2.3344)">
            <path
               d="m 0,0 c -14.067,0 -25.576,11.509 -25.576,25.576 v 571.998 c 0,14.067 11.509,25.576 25.576,25.576 h 1142.862 c 14.067,0 25.576,-11.509 25.576,-25.576 V 25.576 C 1168.438,11.509 1156.929,0 1142.862,0 Z"
               style="fill:#231f20;fill-opacity:1;fill-rule:nonzero;stroke:none"
               id="path255102" />
          </g>
        </g>
      </g>
      <text
         transform="matrix(1,0,0,-1,510.9951,464.6895)"
         style="font-variant:normal;font-weight:800;font-stretch:normal;font-size:52px;font-family:'Open Sans Extrabold';-inkscape-font-specification:OpenSans-Extrabold;writing-mode:lr-tb;white-space:pre;inline-size:644.546;fill:#ffffff;fill-opacity:1;fill-rule:nonzero;stroke:none"
         id="text255116"
         inkscape:export-filename="D:\Users\1134140352905\ospo\LFResearch_TODOGroupOSPOSurvey_Infographic_V2_2of9.png"
         inkscape:export-xdpi="96"
         inkscape:export-ydpi="96"
         xml:space="preserve"><tspan
           x="0"
           y="0"
           id="tspan19952"><tspan
             style="font-weight:bold;font-family:'BIZ UDPGothic';-inkscape-font-specification:'BIZ UDPGothic Bold'"
             id="tspan19946">OSPO </tspan><tspan
             style="font-weight:bold;font-family:'BIZ UDPGothic';-inkscape-font-specification:'BIZ UDPGothic Bold'"
             id="tspan19948">について</tspan><tspan
             style="font-weight:bold;font-family:'BIZ UDPGothic';-inkscape-font-specification:'BIZ UDPGothic Bold'"
             id="tspan19950">エンジニア</tspan></tspan><tspan
           x="0"
           y="69.812729"
           id="tspan19962"><tspan
             style="font-weight:bold;font-family:'BIZ UDPGothic';-inkscape-font-specification:'BIZ UDPGothic Bold'"
             id="tspan19954">リングチーム</tspan><tspan
             style="font-weight:bold;font-family:'BIZ UDPGothic';-inkscape-font-specification:'BIZ UDPGothic Bold'"
             id="tspan19956">や</tspan><tspan
             style="font-weight:bold;font-family:'BIZ UDPGothic';-inkscape-font-specification:'BIZ UDPGothic Bold'"
             id="tspan19958">製品</tspan><tspan
             style="font-weight:bold;font-family:'BIZ UDPGothic';-inkscape-font-specification:'BIZ UDPGothic Bold'"
             id="tspan19960">チーム</tspan></tspan><tspan
           x="0"
           y="139.62546"
           id="tspan19970"><tspan
             style="font-weight:bold;font-family:'BIZ UDPGothic';-inkscape-font-specification:'BIZ UDPGothic Bold'"
             id="tspan19964">の</tspan><tspan
             style="font-weight:bold;font-family:'BIZ UDPGothic';-inkscape-font-specification:'BIZ UDPGothic Bold'"
             id="tspan19966">成功</tspan><tspan
             style="font-weight:bold;font-family:'BIZ UDPGothic';-inkscape-font-specification:'BIZ UDPGothic Bold'"
             id="tspan19968">に「とても」、もしくは</tspan></tspan><tspan
           x="0"
           y="209.43819"
           id="tspan19982"><tspan
             style="font-weight:bold;font-family:'BIZ UDPGothic';-inkscape-font-specification:'BIZ UDPGothic Bold'"
             id="tspan19972">「</tspan><tspan
             style="font-weight:bold;font-family:'BIZ UDPGothic';-inkscape-font-specification:'BIZ UDPGothic Bold'"
             id="tspan19974">極</tspan><tspan
             style="font-weight:bold;font-family:'BIZ UDPGothic';-inkscape-font-specification:'BIZ UDPGothic Bold'"
             id="tspan19976">めて」</tspan><tspan
             style="font-weight:bold;font-family:'BIZ UDPGothic';-inkscape-font-specification:'BIZ UDPGothic Bold'"
             id="tspan19978">重要</tspan><tspan
             style="font-weight:bold;font-family:'BIZ UDPGothic';-inkscape-font-specification:'BIZ UDPGothic Bold'"
             id="tspan19980">である、</tspan></tspan></text>
      <text
         transform="matrix(1,0,0,-1,510.9951,182.6895)"
         style="font-variant:normal;font-weight:normal;font-stretch:normal;font-size:40px;font-family:'Open Sans';-inkscape-font-specification:OpenSans;writing-mode:lr-tb;white-space:pre;inline-size:600.82;fill:#ffffff;fill-opacity:1;fill-rule:nonzero;stroke:none"
         id="text255122"
         inkscape:export-filename="D:\Users\1134140352905\ospo\LFResearch_TODOGroupOSPOSurvey_Infographic_V2_2of9.png"
         inkscape:export-xdpi="96"
         inkscape:export-ydpi="96"
         xml:space="preserve"><tspan
           x="0"
           y="0"
           id="tspan19998"><tspan
             style="font-family:'BIZ UDPGothic';-inkscape-font-specification:'BIZ UDPGothic'"
             id="tspan19984">と</tspan><tspan
             style="font-family:'BIZ UDPGothic';-inkscape-font-specification:'BIZ UDPGothic'"
             id="tspan19986">回答</tspan><tspan
             style="font-family:'BIZ UDPGothic';-inkscape-font-specification:'BIZ UDPGothic'"
             id="tspan19988">した</tspan><tspan
             style="font-family:'BIZ UDPGothic';-inkscape-font-specification:'BIZ UDPGothic'"
             id="tspan19990">人</tspan><tspan
             style="font-family:'BIZ UDPGothic';-inkscape-font-specification:'BIZ UDPGothic'"
             id="tspan19992">は、この 1 </tspan><tspan
             style="font-family:'BIZ UDPGothic';-inkscape-font-specification:'BIZ UDPGothic'"
             id="tspan19994">年間</tspan><tspan
             style="font-family:'BIZ UDPGothic';-inkscape-font-specification:'BIZ UDPGothic'"
             id="tspan19996">で </tspan></tspan><tspan
           x="0"
           y="53.702099"
           id="tspan20006"><tspan
             style="font-family:'BIZ UDPGothic';-inkscape-font-specification:'BIZ UDPGothic'"
             id="tspan20000">54% から         に</tspan><tspan
             style="font-family:'BIZ UDPGothic';-inkscape-font-specification:'BIZ UDPGothic'"
             id="tspan20002">増加</tspan><tspan
             style="font-family:'BIZ UDPGothic';-inkscape-font-specification:'BIZ UDPGothic'"
             id="tspan20004">しました。</tspan></tspan></text>
      <text
         transform="scale(1,-1)"
         style="font-variant:normal;font-weight:bold;font-stretch:normal;font-size:44px;font-family:'Open Sans';-inkscape-font-specification:OpenSans-Bold;writing-mode:lr-tb;fill:#a1d33c;fill-opacity:1;fill-rule:nonzero;stroke:none"
         id="text255126"
         x="714.33258"
         y="-126.38322"
         inkscape:export-filename="D:\Users\1134140352905\ospo\LFResearch_TODOGroupOSPOSurvey_Infographic_V2_2of9.png"
         inkscape:export-xdpi="96"
         inkscape:export-ydpi="96"><tspan
           x="714.33258 739.4566 764.58057"
           y="-126.38322"
           sodipodi:role="line"
           id="tspan255124"
           style="font-style:normal;font-variant:normal;font-weight:bold;font-stretch:normal;font-family:'BIZ UDPGothic';-inkscape-font-specification:'BIZ UDPGothic Bold'">63%</tspan></text>
      <g
         id="g255132"
         inkscape:export-filename="D:\Users\1134140352905\ospo\LFResearch_TODOGroupOSPOSurvey_Infographic_V2_2of9.png"
         inkscape:export-xdpi="96"
         inkscape:export-ydpi="96">
        <g
           id="g255134"
           clip-path="url(#clipPath255138)">
          <g
             id="g255140">
            <g
               id="g255142" />
            <g
               id="g255154">
              <g
                 clip-path="url(#clipPath255146)"
                 opacity="0.25"
                 id="g255152">
                <g
                   transform="translate(263.7933,318.8487)"
                   id="g255150">
                  <path
                     d="m 0,0 -142.94,-138.035 c -76.235,78.943 -74.039,204.74 4.905,280.975 37.892,36.593 85.358,55.77 138.035,55.77 z"
                     style="fill:#ffffff;fill-opacity:1;fill-rule:evenodd;stroke:none"
                     id="path255148" />
                </g>
              </g>
            </g>
          </g>
          <g
             id="g255156"
             transform="translate(263.7933,318.8487)">
            <path
               d="m 0,0 v 198.71 c 109.744,0 198.71,-88.966 198.71,-198.71 0,-109.744 -88.966,-198.71 -198.71,-198.71 -57.067,0 -103.298,19.624 -142.94,60.675 z"
               style="fill:#a1d33c;fill-opacity:1;fill-rule:evenodd;stroke:none"
               id="path255158" />
          </g>
          <g
             id="g255160"
             transform="translate(435.9586,318.6377)">
            <path
               d="m 0,0 c 0,-94.545 -76.644,-171.189 -171.189,-171.189 -94.545,0 -171.189,76.644 -171.189,171.189 0,94.545 76.644,171.189 171.189,171.189 C -76.644,171.189 0,94.545 0,0"
               style="fill:#231f20;fill-opacity:1;fill-rule:nonzero;stroke:none"
               id="path255162" />
          </g>
          <g
             id="g255164"
             transform="translate(358.5694,233.7723)">
            <path
               d="m 0,0 -2.059,-2.081 c -7.607,-7.569 -19.9,-7.569 -27.507,0 l -42.867,42.98 9.049,9.048 11.537,11.514 9.048,9.049 42.98,-42.98 C 7.733,19.923 7.689,7.634 0.083,0.082 0.055,0.054 0.028,0.027 0,0 Z m -129.596,121.701 0.407,0.362 5.158,5.158 0.362,0.407 63.339,-63.339 -5.927,-5.927 z m 12.261,-81.978 c -0.698,-0.683 -1.111,-1.604 -1.154,-2.579 -0.362,-6.515 -1.063,-20.97 -0.769,-26.173 -2.443,-3.031 -13.573,-11.989 -23.481,-19.409 h -2.262 c 0,0 7.691,12.962 7.827,13.188 1.923,4.751 2.511,15.835 -9.048,23.934 -7.352,5.157 -18.097,9.048 -27.395,-1.833 -3.07,-4.053 -5.888,-8.291 -8.437,-12.69 -1.311,8.064 -0.266,16.335 3.008,23.82 5.158,13.369 11.085,15.834 11.673,16.174 l 28.254,4.004 c 0.855,0.11 1.65,0.499 2.262,1.108 l 29.226,29.272 7.126,-7.103 -28.571,-28.593 c -1.543,-1.514 -1.566,-3.991 -0.053,-5.534 0.018,-0.018 0.035,-0.036 0.053,-0.054 1.514,-1.543 3.992,-1.566 5.534,-0.053 0.018,0.018 0.036,0.035 0.054,0.053 l 28.57,28.571 6.786,-6.787 z m -27.01,83.992 c -3.441,-0.017 -6.756,1.296 -9.252,3.664 l -23.503,36.035 11.717,11.718 36.036,-23.571 c 4.981,-5.328 4.861,-13.639 -0.272,-18.821 l -5.18,-5.18 c -2.529,-2.533 -5.966,-3.95 -9.546,-3.936 z m 80.667,8.754 c 0.6,0.617 0.989,1.409 1.108,2.262 l 4.004,28.141 c 0.249,0.633 2.896,6.537 16.152,11.672 7.489,3.258 15.757,4.295 23.819,2.986 -4.401,-2.547 -8.639,-5.365 -12.69,-8.438 -10.881,-9.32 -6.99,-20.019 -1.832,-27.371 8.075,-11.469 19.205,-10.903 23.933,-9.049 0.181,0 13.188,7.759 13.188,7.759 v -2.262 c -7.42,-9.953 -16.355,-21.015 -19.386,-23.458 -5.203,0.272 -19.681,-0.429 -26.173,-0.791 -0.981,-0.047 -1.908,-0.459 -2.601,-1.154 l -26.784,-26.648 -6.786,6.787 25.833,25.946 c 1.675,1.405 1.894,3.902 0.488,5.577 -1.405,1.675 -3.902,1.894 -5.577,0.488 -0.18,-0.151 -0.347,-0.319 -0.498,-0.5 l -25.901,-25.879 -7.103,7.126 z M 5.587,33.185 -40.039,78.88 c -1.572,1.493 -4.039,1.493 -5.61,0 l -9.049,-9.049 -10.654,10.632 25.72,25.856 c 10.745,0.565 25.064,0.52 25.697,0.611 2.67,0.407 7.782,4.524 25.087,27.801 0.481,0.658 0.749,1.447 0.769,2.262 v 10.474 c -0.003,1.419 -0.761,2.729 -1.99,3.438 -1.228,0.726 -2.754,0.726 -3.982,0 l -18.3,-10.858 c -1.561,-0.498 -8.415,-2.104 -14.274,6.243 -6.334,9.049 -3.506,13.392 0.498,16.808 5.978,4.271 12.186,8.213 18.594,11.808 1.176,0.687 1.924,1.921 1.991,3.28 0.051,1.358 -0.598,2.648 -1.719,3.416 -0.566,0.384 -14.342,9.591 -38.004,0.43 -18.278,-7.058 -20.834,-16.355 -21.06,-17.396 l -3.891,-27.485 -25.878,-25.901 -23.119,23.187 c 1.002,2.52 1.524,5.205 1.538,7.917 0.011,5.689 -2.253,11.146 -6.288,15.156 -0.19,0.199 -0.402,0.374 -0.634,0.521 l -39.157,25.471 c -1.56,1.032 -3.63,0.824 -4.954,-0.498 l -16.264,-16.264 c -1.322,-1.324 -1.53,-3.394 -0.498,-4.954 l 25.539,-39.089 c 0.154,-0.227 0.328,-0.439 0.52,-0.634 4.002,-4.032 9.454,-6.289 15.134,-6.266 2.719,-0.004 5.414,0.51 7.94,1.516 l 23.119,-23.187 -28.322,-28.321 -27.145,-3.846 h -0.294 c -1.041,-0.249 -10.315,-2.782 -17.396,-21.083 -9.048,-23.661 0,-37.415 0.453,-38.003 0.759,-1.11 2.025,-1.764 3.37,-1.742 1.353,0.048 2.585,0.793 3.258,1.968 3.597,6.407 7.539,12.614 11.808,18.595 3.416,4.004 7.827,6.786 16.83,0.52 8.37,-5.904 6.786,-12.804 6.243,-14.274 l -10.858,-18.3 c -1.124,-1.861 -0.528,-4.281 1.333,-5.405 0.621,-0.376 1.334,-0.572 2.06,-0.567 h 10.474 c 0.819,0.014 1.612,0.292 2.262,0.791 23.752,17.554 27.53,22.621 27.846,25.178 0,0.542 0,14.862 0.566,25.584 l 28.254,28.118 10.767,-10.609 -9.048,-9.049 c -1.541,-1.552 -1.541,-4.057 0,-5.61 l 45.694,-45.672 c 10.686,-10.671 27.996,-10.671 38.682,0 l 2.059,2.059 C 16.36,5.102 16.39,22.389 5.747,33.071 5.724,33.094 5.701,33.117 5.678,33.14 Z"
               style="fill:#ffffff;fill-opacity:1;fill-rule:nonzero;stroke:none"
               id="path255166" />
          </g>
          <g
             id="g255168"
             transform="translate(313.282,282.679)">
            <path
               d="M 0,0 C -1.514,1.543 -3.991,1.567 -5.534,0.053 -5.552,0.036 -5.57,0.018 -5.587,0 c -1.539,-1.545 -1.539,-4.043 0,-5.587 l 33.931,-33.932 c 1.549,-1.549 4.061,-1.549 5.61,0 1.549,1.549 1.549,4.061 0,5.61 z"
               style="fill:#ffffff;fill-opacity:1;fill-rule:nonzero;stroke:none"
               id="path255170" />
          </g>
        </g>
      </g>
    </g>
    <text
       xml:space="preserve"
       transform="scale(0.26458333)"
       id="text281982"
       style="fill:black;fill-opacity:1;line-height:1.25;stroke:none;font-family:sans-serif;font-style:normal;font-weight:normal;font-size:40px;white-space:pre;shape-inside:url(#rect281984)" />
  </g>
</svg>
