<?xml version="1.0" encoding="UTF-8" standalone="no"?>
<!-- Created with Inkscape (http://www.inkscape.org/) -->

<svg
   width="210mm"
   height="297mm"
   viewBox="0 0 210 297"
   version="1.1"
   id="svg5"
   sodipodi:docname="LFResearch_TODOGroupOSPOSurvey_Infographic_V2_4of9.svg"
   inkscape:version="1.1.2 (b8e25be833, 2022-02-05)"
   inkscape:export-filename="D:\Users\1134140352905\ospo\LFResearch_TODOGroupOSPOSurvey_Infographic_V2_4of9.png"
   inkscape:export-xdpi="96"
   inkscape:export-ydpi="96"
   xmlns:inkscape="http://www.inkscape.org/namespaces/inkscape"
   xmlns:sodipodi="http://sodipodi.sourceforge.net/DTD/sodipodi-0.dtd"
   xmlns="http://www.w3.org/2000/svg"
   xmlns:svg="http://www.w3.org/2000/svg">
  <sodipodi:namedview
     id="namedview7"
     pagecolor="#ffffff"
     bordercolor="#666666"
     borderopacity="1.0"
     inkscape:pageshadow="2"
     inkscape:pageopacity="0.0"
     inkscape:pagecheckerboard="0"
     inkscape:document-units="mm"
     showgrid="false"
     inkscape:zoom="0.74029882"
     inkscape:cx="396.46153"
     inkscape:cy="561.93525"
     inkscape:window-width="1920"
     inkscape:window-height="1017"
     inkscape:window-x="-8"
     inkscape:window-y="-8"
     inkscape:window-maximized="1"
     inkscape:current-layer="g15" />
  <defs
     id="defs2">
    <clipPath
       clipPathUnits="userSpaceOnUse"
       id="clipPath23">
      <path
         d="M 0,628 H 1200 V 0 H 0 Z"
         id="path21" />
    </clipPath>
    <clipPath
       clipPathUnits="userSpaceOnUse"
       id="clipPath31">
      <path
         d="m 1283.371,-712.008 c -14.066,0 -25.575,11.509 -25.575,25.576 v 571.998 c 0,14.067 11.509,25.576 25.575,25.576 h 1142.862 c 14.067,0 25.576,-11.509 25.576,-25.576 v -571.998 c 0,-14.067 -11.509,-25.576 -25.576,-25.576 z"
         id="path29" />
    </clipPath>
    <clipPath
       clipPathUnits="userSpaceOnUse"
       id="clipPath43">
      <path
         d="M 28.676,624.928 C 14.61,624.928 3.1,613.418 3.1,599.351 v 0 V 27.353 C 3.1,13.287 14.61,1.777 28.676,1.777 v 0 h 1142.862 c 14.066,0 25.575,11.51 25.575,25.576 v 0 571.998 c 0,14.067 -11.509,25.577 -25.575,25.577 v 0 z"
         id="path41" />
    </clipPath>
    <clipPath
       clipPathUnits="userSpaceOnUse"
       id="clipPath55">
      <path
         d="M -153.299,729.252 H 385.472 V 134.916 h -538.771 z"
         id="path53" />
    </clipPath>
    <clipPath
       clipPathUnits="userSpaceOnUse"
       id="clipPath101">
      <path
         d="M 0,628 H 1200 V 0 H 0 Z"
         id="path99" />
    </clipPath>
  </defs>
  <g
     inkscape:label="Layer 1"
     inkscape:groupmode="layer"
     id="layer1">
    <g
       id="g15"
       inkscape:label="LFResearch_TODOGroupOSPOSurvey_Infographic_V2"
       transform="matrix(0.35277777,0,0,-0.35277777,-200.62481,254.93379)">
      <g
         id="g17">
        <g
           id="g19"
           clip-path="url(#clipPath23)">
          <g
             id="g25">
            <g
               id="g27"
               clip-path="url(#clipPath31)">
              <g
                 id="g33"
                 transform="translate(1398.3992,96.5554)">
                <path
                   d="m 0,0 c -186.618,0 -337.902,-151.284 -337.902,-337.902 0,-186.618 151.284,-337.902 337.902,-337.902 186.618,0 337.902,151.284 337.902,337.902 C 337.902,-151.284 186.618,0 0,0 m 0,-30 c 41.58,0 81.9,-8.137 119.84,-24.184 36.661,-15.507 69.593,-37.712 97.88,-65.998 28.287,-28.287 50.491,-61.219 65.998,-97.88 16.047,-37.94 24.184,-78.261 24.184,-119.84 0,-41.58 -8.137,-81.9 -24.184,-119.84 -15.507,-36.662 -37.711,-69.593 -65.998,-97.88 -28.287,-28.287 -61.219,-50.492 -97.88,-65.998 C 81.9,-637.667 41.58,-645.804 0,-645.804 c -41.58,0 -81.9,8.137 -119.84,24.184 -36.661,15.506 -69.593,37.711 -97.88,65.998 -28.287,28.287 -50.492,61.218 -65.998,97.88 -16.047,37.94 -24.184,78.26 -24.184,119.84 0,41.579 8.137,81.9 24.184,119.84 15.506,36.661 37.711,69.593 65.998,97.88 28.287,28.286 61.219,50.491 97.88,65.998 C -81.9,-38.137 -41.58,-30 0,-30"
                   style="fill:#a1d33c;fill-opacity:1;fill-rule:nonzero;stroke:none"
                   id="path35" />
              </g>
            </g>
          </g>
        </g>
      </g>
      <g
         id="g37">
        <g
           id="g39"
           clip-path="url(#clipPath43)">
          <g
             id="g45"
             transform="translate(28.6761,1.7776)">
            <path
               d="m 0,0 c -14.067,0 -25.576,11.509 -25.576,25.576 v 571.998 c 0,14.067 11.509,25.576 25.576,25.576 h 1142.862 c 14.066,0 25.576,-11.509 25.576,-25.576 V 25.576 C 1168.438,11.509 1156.928,0 1142.862,0 Z"
               style="fill:#268600;fill-opacity:1;fill-rule:nonzero;stroke:none"
               id="path47" />
          </g>
          <g
             id="g49">
            <g
               id="g51" />
            <g
               id="g63">
              <g
                 clip-path="url(#clipPath55)"
                 opacity="0.25"
                 id="g61">
                <g
                   transform="translate(182.9463,471.4595)"
                   id="g59">
                  <path
                     d="m 0,0 202.525,-268.76 c -148.432,-111.852 -359.434,-82.198 -471.285,66.235 -107.378,142.495 -84.234,345.63 52.446,460.318 z"
                     style="fill:#ffffff;fill-opacity:1;fill-rule:evenodd;stroke:none"
                     id="path57" />
                </g>
              </g>
            </g>
          </g>
          <g
             id="g65"
             transform="translate(182.9463,471.4595)">
            <path
               d="m 0,0 -216.314,257.793 c 142.375,119.466 354.64,100.896 474.107,-41.479 119.466,-142.375 100.896,-354.64 -41.479,-474.107 -5.695,-4.778 -7.851,-6.493 -13.789,-10.967 z"
               style="fill:#a1d33c;fill-opacity:1;fill-rule:evenodd;stroke:none"
               id="path67" />
          </g>
          <g
             id="g69"
             transform="translate(-72.406,297.8991)">
            <path
               d="m 0,0 c -31.944,45.628 -50.74,98.924 -54.356,154.125 -3.678,56.15 8.514,112.999 35.257,164.402 38.155,73.336 102.584,127.424 181.42,152.301 78.836,24.876 162.639,17.564 235.975,-20.591 44.69,-23.25 81.891,-55.808 110.571,-96.768 31.979,-45.67 51.093,-99.245 55.273,-154.931 4.295,-57.222 -7.508,-114.519 -34.134,-165.696 -38.154,-73.336 -102.584,-127.423 -181.419,-152.301 -78.836,-24.876 -162.64,-17.564 -235.976,20.591 -18.285,9.513 -33.632,19.474 -49.762,32.3 C 38.545,-47.245 17.402,-24.853 0.013,-0.019 0.008,-0.012 0.005,-0.007 0,0"
               style="fill:#268600;fill-opacity:1;fill-rule:evenodd;stroke:none"
               id="path71" />
          </g>
        </g>
      </g>
      <text
         transform="matrix(1,0,0,-1,569.9355,499.6323)"
         style="font-variant:normal;font-weight:normal;font-stretch:normal;font-size:44px;font-family:'Open Sans';-inkscape-font-specification:OpenSans;writing-mode:lr-tb;white-space:pre;inline-size:411.725;fill:#f2f2f2;fill-opacity:1;fill-rule:nonzero;stroke:none"
         id="text75"
         xml:space="preserve"><tspan
           x="0"
           y="0"
           id="tspan20928"><tspan
             style="font-family:'BIZ UDPGothic';-inkscape-font-specification:'BIZ UDPGothic'"
             id="tspan20922">51%は、</tspan><tspan
             style="font-family:'BIZ UDPGothic';-inkscape-font-specification:'BIZ UDPGothic'"
             id="tspan20924">今年度中</tspan><tspan
             style="font-family:'BIZ UDPGothic';-inkscape-font-specification:'BIZ UDPGothic'"
             id="tspan20926">に</tspan></tspan></text>
      <text
         transform="matrix(1,0,0,-1,569.9355,429.6323)"
         style="font-variant:normal;font-weight:800;font-stretch:normal;font-size:60px;font-family:'Open Sans Extrabold';-inkscape-font-specification:OpenSans-Extrabold;writing-mode:lr-tb;white-space:pre;inline-size:585.026;fill:#ffffff;fill-opacity:1;fill-rule:nonzero;stroke:none"
         id="text85"
         xml:space="preserve"><tspan
           x="0"
           y="0"
           id="tspan20934"><tspan
             style="font-weight:bold;font-family:'BIZ UDPGothic';-inkscape-font-specification:'BIZ UDPGothic Bold'"
             id="tspan20930">オープンソース</tspan><tspan
             style="font-weight:bold;font-family:'BIZ UDPGothic';-inkscape-font-specification:'BIZ UDPGothic Bold'"
             id="tspan20932">の
</tspan></tspan><tspan
           x="0"
           y="80.553146"
           id="tspan20944"><tspan
             style="font-weight:bold;font-family:'BIZ UDPGothic';-inkscape-font-specification:'BIZ UDPGothic Bold'"
             id="tspan20936">イニチアチブ</tspan><tspan
             style="font-weight:bold;font-family:'BIZ UDPGothic';-inkscape-font-specification:'BIZ UDPGothic Bold'"
             id="tspan20938">に</tspan><tspan
             style="font-weight:bold;font-family:'BIZ UDPGothic';-inkscape-font-specification:'BIZ UDPGothic Bold'"
             id="tspan20940">対</tspan><tspan
             style="font-weight:bold;font-family:'BIZ UDPGothic';-inkscape-font-specification:'BIZ UDPGothic Bold'"
             id="tspan20942">する</tspan></tspan><tspan
           x="0"
           y="161.10629"
           id="tspan20954"><tspan
             style="font-weight:bold;font-family:'BIZ UDPGothic';-inkscape-font-specification:'BIZ UDPGothic Bold'"
             id="tspan20946">投資</tspan><tspan
             style="font-weight:bold;font-family:'BIZ UDPGothic';-inkscape-font-specification:'BIZ UDPGothic Bold'"
             id="tspan20948">を</tspan><tspan
             style="font-weight:bold;font-family:'BIZ UDPGothic';-inkscape-font-specification:'BIZ UDPGothic Bold'"
             id="tspan20950">増</tspan><tspan
             style="font-weight:bold;font-family:'BIZ UDPGothic';-inkscape-font-specification:'BIZ UDPGothic Bold'"
             id="tspan20952">やす</tspan></tspan></text>
      <text
         transform="matrix(1,0,0,-1,569.9355,203.1323)"
         style="font-variant:normal;font-weight:normal;font-stretch:normal;font-size:44px;font-family:'Open Sans';-inkscape-font-specification:OpenSans;writing-mode:lr-tb;white-space:pre;inline-size:552.912;fill:#f2f2f2;fill-opacity:1;fill-rule:nonzero;stroke:none"
         id="text89"
         xml:space="preserve"><tspan
           x="0"
           y="0"
           id="tspan20964"><tspan
             style="font-family:'BIZ UDPGothic';-inkscape-font-specification:'BIZ UDPGothic'"
             id="tspan20956">可能性</tspan><tspan
             style="font-family:'BIZ UDPGothic';-inkscape-font-specification:'BIZ UDPGothic'"
             id="tspan20958">が「</tspan><tspan
             style="font-family:'BIZ UDPGothic';-inkscape-font-specification:'BIZ UDPGothic'"
             id="tspan20960">非常</tspan><tspan
             style="font-family:'BIZ UDPGothic';-inkscape-font-specification:'BIZ UDPGothic'"
             id="tspan20962">に」、あるいは</tspan></tspan><tspan
           x="0"
           y="59.072311"
           id="tspan20980"><tspan
             style="font-family:'BIZ UDPGothic';-inkscape-font-specification:'BIZ UDPGothic'"
             id="tspan20966">「ある</tspan><tspan
             style="font-family:'BIZ UDPGothic';-inkscape-font-specification:'BIZ UDPGothic'"
             id="tspan20968">程度</tspan><tspan
             style="font-family:'BIZ UDPGothic';-inkscape-font-specification:'BIZ UDPGothic'"
             id="tspan20970">」</tspan><tspan
             style="font-family:'BIZ UDPGothic';-inkscape-font-specification:'BIZ UDPGothic'"
             id="tspan20972">高</tspan><tspan
             style="font-family:'BIZ UDPGothic';-inkscape-font-specification:'BIZ UDPGothic'"
             id="tspan20974">いと</tspan><tspan
             style="font-family:'BIZ UDPGothic';-inkscape-font-specification:'BIZ UDPGothic'"
             id="tspan20976">回答</tspan><tspan
             style="font-family:'BIZ UDPGothic';-inkscape-font-specification:'BIZ UDPGothic'"
             id="tspan20978">して</tspan></tspan><tspan
           x="0"
           y="118.14462"
           id="tspan20984"><tspan
             style="font-family:'BIZ UDPGothic';-inkscape-font-specification:'BIZ UDPGothic'"
             id="tspan20982">います。</tspan></tspan></text>
      <g
         id="g95">
        <g
           id="g97"
           clip-path="url(#clipPath101)">
          <g
             id="g103"
             transform="translate(322.5649,474.7451)">
            <path
               d="m 0,0 h -0.01 -249.534 c -2.359,0.003 -4.275,-1.908 -4.277,-4.267 v -0.01 -119.776 c -0.003,-2.36 1.908,-4.275 4.267,-4.277 h 0.01 169.683 c 2.362,0 4.277,1.915 4.277,4.277 0,2.361 -1.915,4.277 -4.277,4.277 H -245.267 V -8.554 h 240.98 v -10.695 c -0.002,-2.359 1.908,-4.275 4.267,-4.277 h 0.01 c 2.359,-0.003 4.275,1.908 4.277,4.267 v 0.01 14.972 C 4.27,-1.918 2.359,-0.003 0,0"
               style="fill:#ffffff;fill-opacity:1;fill-rule:nonzero;stroke:none"
               id="path105" />
          </g>
          <g
             id="g107"
             transform="translate(293.5491,494.603)">
            <path
               d="m 0,0 -199.627,44.916 c -1.108,0.248 -2.269,0.047 -3.229,-0.559 -0.959,-0.611 -1.637,-1.576 -1.887,-2.685 l -9.981,-44.916 c -0.513,-2.307 0.942,-4.593 3.249,-5.105 2.307,-0.513 4.593,0.942 5.105,3.249 l 9.048,40.728 195.446,-43.972 c 0.309,-0.072 0.625,-0.108 0.943,-0.105 2.362,0.004 4.273,1.922 4.269,4.284 C 3.333,-2.168 1.948,-0.44 0,0"
               style="fill:#ffffff;fill-opacity:1;fill-rule:nonzero;stroke:none"
               id="path109" />
          </g>
          <g
             id="g111"
             transform="translate(269.3094,519.3518)">
            <path
               d="m 0,0 -119.776,49.907 c -2.082,0.868 -4.481,-0.024 -5.49,-2.041 l -9.981,-19.963 c -1.128,-2.085 -0.352,-4.689 1.734,-5.817 2.085,-1.127 4.689,-0.351 5.816,1.735 0.045,0.081 0.087,0.165 0.125,0.25 v -0.01 l 8.19,16.389 116.078,-48.365 c 2.186,-0.912 4.698,0.12 5.61,2.306 C 3.218,-3.424 2.186,-0.913 0,0"
               style="fill:#ffffff;fill-opacity:1;fill-rule:nonzero;stroke:none"
               id="path113" />
          </g>
          <g
             id="g115"
             transform="translate(272.3337,454.7824)">
            <path
               d="m 0,0 h -39.611 c -2.362,0 -4.277,-1.915 -4.277,-4.277 0,-2.362 1.915,-4.277 4.277,-4.277 H 0 c 2.362,0 4.277,1.915 4.277,4.277 C 4.277,-1.915 2.362,0 0,0"
               style="fill:#ffffff;fill-opacity:1;fill-rule:nonzero;stroke:none"
               id="path117" />
          </g>
          <g
             id="g119"
             transform="translate(192.7972,374.647)">
            <path
               d="M 0,0 C -19.845,0 -35.933,16.087 -35.933,35.933 -35.911,55.769 -19.836,71.844 0,71.866 19.845,71.866 35.933,55.778 35.933,35.933 35.933,16.087 19.845,0 0,0 m 0,79.851 c -24.255,0 -43.918,-19.663 -43.918,-43.918 C -43.893,11.688 -24.245,-7.96 0,-7.985 c 24.255,0 43.918,19.663 43.918,43.918 0,24.255 -19.663,43.918 -43.918,43.918"
               style="fill:#ffffff;fill-opacity:1;fill-rule:nonzero;stroke:none"
               id="path121" />
          </g>
          <g
             id="g123"
             transform="translate(312.5736,410.5799)">
            <path
               d="m 0,0 c -29.151,0 -44.113,7.266 -44.916,9.892 v 0.029 c 0.803,2.78 15.765,10.042 44.916,10.042 28.946,0 43.918,-7.157 44.916,-9.982 C 43.918,7.157 28.946,0 0,0 M 44.916,-9.906 C 44.163,-12.676 29.195,-19.963 0,-19.963 c -29.195,0 -44.163,7.287 -44.916,9.982 v 7.845 c 10.62,-5.325 28.162,-7.845 44.916,-7.845 16.754,0 34.301,2.52 44.916,7.85 z m 0,-19.963 C 44.163,-32.639 29.195,-39.925 0,-39.925 c -29.195,0 -44.163,7.286 -44.916,9.981 v 7.845 c 10.62,-5.325 28.162,-7.845 44.916,-7.845 16.754,0 34.301,2.52 44.916,7.85 z m 0,-19.963 C 44.163,-52.602 29.195,-59.888 0,-59.888 c -29.195,0 -44.163,7.286 -44.916,9.981 v 7.846 c 10.62,-5.35 28.162,-7.846 44.916,-7.846 16.754,0 34.301,2.52 44.916,7.851 z m 0,-19.963 C 44.163,-72.565 29.195,-79.851 0,-79.851 c -29.195,0 -44.163,7.286 -44.916,9.981 v 7.846 c 10.62,-5.35 28.162,-7.846 44.916,-7.846 16.754,0 34.301,2.521 44.916,7.851 z m 0,-19.962 C 44.163,-92.527 29.195,-99.814 0,-99.814 c -29.195,0 -44.163,7.287 -44.916,9.982 v 7.845 c 10.62,-5.35 28.162,-7.845 44.916,-7.845 16.754,0 34.301,2.52 44.916,7.85 z m 0,-19.963 C 44.163,-112.49 29.195,-119.776 0,-119.776 c -29.195,0 -44.163,7.286 -44.916,9.981 v 7.845 c 10.62,-5.35 28.162,-7.845 44.916,-7.845 16.754,0 34.301,2.52 44.916,7.85 z M 0,29.944 c -26.451,0 -54.897,-6.248 -54.897,-19.963 v -119.776 c 0,-13.714 28.446,-19.963 54.897,-19.963 26.451,0 54.898,6.249 54.898,19.963 V 9.981 C 54.898,23.696 26.451,29.944 0,29.944"
               style="fill:#ffffff;fill-opacity:1;fill-rule:nonzero;stroke:none"
               id="path125" />
          </g>
          <g
             id="g127"
             transform="translate(152.8718,374.9365)">
            <path
               d="m 0,0 h -37.725 l -17.886,19.564 v 32.439 l 19.753,19.289 H 0 c 2.362,0 4.277,1.915 4.277,4.277 0,2.362 -1.915,4.277 -4.277,4.277 h -37.595 c -1.118,0.002 -2.193,-0.433 -2.994,-1.213 L -62.883,56.889 c -0.832,-0.973 -1.289,-2.213 -1.287,-3.494 V 17.902 c 0,-1.068 0.398,-2.096 1.118,-2.885 l 20.277,-22.179 c 0.81,-0.887 1.957,-1.393 3.159,-1.392 H 0 c 2.362,0 4.277,1.915 4.277,4.277 C 4.277,-1.915 2.362,0 0,0"
               style="fill:#ffffff;fill-opacity:1;fill-rule:nonzero;stroke:none"
               id="path129" />
          </g>
          <g
             id="g131"
             transform="translate(195.2926,415.5706)">
            <path
               d="m 0,0 h -4.991 c -1.552,0 -2.495,0.868 -2.495,1.248 0,0.379 0.943,1.247 2.495,1.247 H 7.486 c 2.756,0 4.991,2.235 4.991,4.991 0,2.756 -2.235,4.991 -4.991,4.991 H 2.495 c 0,2.756 -2.234,4.99 -4.99,4.99 -2.756,0 -4.991,-2.234 -4.991,-4.99 v -0.225 c -5.535,-0.782 -9.729,-5.395 -9.981,-10.979 0.357,-6.544 5.93,-11.571 12.476,-11.254 H 0 c 1.552,0 2.495,-0.869 2.495,-1.248 0,-0.379 -0.943,-1.248 -2.495,-1.248 h -12.477 c -2.756,0 -4.99,-2.234 -4.99,-4.99 0,-2.757 2.234,-4.991 4.99,-4.991 h 4.991 c 0,-2.756 2.235,-4.991 4.991,-4.991 2.756,0 4.99,2.235 4.99,4.991 v 0.224 c 5.536,0.782 9.729,5.395 9.982,10.98 C 12.119,-4.711 6.546,0.317 0,0"
               style="fill:#ffffff;fill-opacity:1;fill-rule:nonzero;stroke:none"
               id="path133" />
          </g>
        </g>
      </g>
    </g>
  </g>
</svg>
