<?xml version="1.0" encoding="UTF-8" standalone="no"?>
<!-- Created with Inkscape (http://www.inkscape.org/) -->

<svg
   width="210mm"
   height="297mm"
   viewBox="0 0 210 297"
   version="1.1"
   id="svg33892"
   sodipodi:docname="LFResearch_TODOGroupOSPOSurvey_Infographic_V2_7of9.svg"
   inkscape:version="1.1.2 (b8e25be833, 2022-02-05)"
   inkscape:export-filename="D:\Users\1134140352905\ospo\LFResearch_TODOGroupOSPOSurvey_Infographic_V2_7of9.png"
   inkscape:export-xdpi="96"
   inkscape:export-ydpi="96"
   xmlns:inkscape="http://www.inkscape.org/namespaces/inkscape"
   xmlns:sodipodi="http://sodipodi.sourceforge.net/DTD/sodipodi-0.dtd"
   xmlns="http://www.w3.org/2000/svg"
   xmlns:svg="http://www.w3.org/2000/svg">
  <sodipodi:namedview
     id="namedview33894"
     pagecolor="#ffffff"
     bordercolor="#666666"
     borderopacity="1.0"
     inkscape:pageshadow="2"
     inkscape:pageopacity="0.0"
     inkscape:pagecheckerboard="0"
     inkscape:document-units="mm"
     showgrid="false"
     inkscape:zoom="0.7198092"
     inkscape:cx="-9.0301708"
     inkscape:cy="893.29228"
     inkscape:window-width="1920"
     inkscape:window-height="1017"
     inkscape:window-x="-8"
     inkscape:window-y="-8"
     inkscape:window-maximized="1"
     inkscape:current-layer="g34320" />
  <defs
     id="defs33889">
    <clipPath
       clipPathUnits="userSpaceOnUse"
       id="clipPath34328">
      <path
         d="M 0,628 H 1200 V 0 H 0 Z"
         id="path34326" />
    </clipPath>
    <clipPath
       clipPathUnits="userSpaceOnUse"
       id="clipPath34336">
      <path
         d="m 1283.371,1.992 c -14.066,0 -25.575,11.509 -25.575,25.576 v 571.998 c 0,14.067 11.509,25.576 25.575,25.576 h 1142.862 c 14.067,0 25.576,-11.509 25.576,-25.576 V 27.568 c 0,-14.067 -11.509,-25.576 -25.576,-25.576 z"
         id="path34334" />
    </clipPath>
    <clipPath
       clipPathUnits="userSpaceOnUse"
       id="clipPath34372">
      <path
         d="M 0,628 H 1200 V 0 H 0 Z"
         id="path34370" />
    </clipPath>
    <clipPath
       clipPathUnits="userSpaceOnUse"
       id="clipPath34380">
      <path
         d="M 742.782,511.984 H 1097.77 V 119.522 H 742.782 Z"
         id="path34378" />
    </clipPath>
  </defs>
  <g
     inkscape:label="Layer 1"
     inkscape:groupmode="layer"
     id="layer1">
    <g
       id="g34320"
       inkscape:label="LFResearch_TODOGroupOSPOSurvey_Infographic_V2"
       transform="matrix(0.35277777,0,0,-0.35277777,-225.07858,315.91712)">
      <g
         id="g34322">
        <g
           id="g34324"
           clip-path="url(#clipPath34328)">
          <g
             id="g34330">
            <g
               id="g34332"
               clip-path="url(#clipPath34336)">
              <g
                 id="g34338"
                 transform="translate(1398.3992,810.5554)">
                <path
                   d="m 0,0 c -186.618,0 -337.902,-151.284 -337.902,-337.902 0,-186.618 151.284,-337.902 337.902,-337.902 186.618,0 337.902,151.284 337.902,337.902 C 337.902,-151.284 186.618,0 0,0 m 0,-30 c 41.58,0 81.9,-8.137 119.84,-24.184 36.661,-15.507 69.593,-37.712 97.88,-65.998 28.287,-28.287 50.491,-61.219 65.998,-97.88 16.047,-37.94 24.184,-78.261 24.184,-119.84 0,-41.58 -8.137,-81.9 -24.184,-119.84 -15.507,-36.662 -37.711,-69.593 -65.998,-97.88 -28.287,-28.287 -61.219,-50.492 -97.88,-65.998 C 81.9,-637.667 41.58,-645.804 0,-645.804 c -41.58,0 -81.9,8.137 -119.84,24.184 -36.661,15.506 -69.593,37.711 -97.88,65.998 -28.287,28.287 -50.492,61.218 -65.998,97.88 -16.047,37.94 -24.184,78.26 -24.184,119.84 0,41.579 8.137,81.9 24.184,119.84 15.506,36.661 37.711,69.593 65.998,97.88 28.287,28.286 61.219,50.491 97.88,65.998 C -81.9,-38.137 -41.58,-30 0,-30"
                   style="fill:#a1d33c;fill-opacity:1;fill-rule:nonzero;stroke:none"
                   id="path34340" />
              </g>
            </g>
          </g>
          <g
             id="g34342"
             transform="translate(28.6761,0.9922)">
            <path
               d="m 0,0 c -14.067,0 -25.576,11.509 -25.576,25.576 v 571.998 c 0,14.067 11.509,25.576 25.576,25.576 h 1142.862 c 14.066,0 25.576,-11.509 25.576,-25.576 V 25.576 C 1168.438,11.509 1156.928,0 1142.862,0 Z"
               style="fill:#a1d33c;fill-opacity:1;fill-rule:nonzero;stroke:none"
               id="path34344" />
          </g>
        </g>
      </g>
      <text
         transform="matrix(1,0,0,-1,74.4375,438.2676)"
         style="font-variant:normal;font-weight:800;font-stretch:normal;font-size:60px;font-family:'Open Sans Extrabold';-inkscape-font-specification:OpenSans-Extrabold;writing-mode:lr-tb;white-space:pre;inline-size:649.496;fill:#231f20;fill-opacity:1;fill-rule:nonzero;stroke:none"
         id="text34356"
         xml:space="preserve"><tspan
           x="0"
           y="0"
           id="tspan22338"><tspan
             style="font-weight:bold;font-family:'BIZ UDPGothic';-inkscape-font-specification:'BIZ UDPGothic Bold'"
             id="tspan22332">OSPO </tspan><tspan
             style="font-weight:bold;font-family:'BIZ UDPGothic';-inkscape-font-specification:'BIZ UDPGothic Bold'"
             id="tspan22334">の35％は</tspan><tspan
             style="font-weight:bold;font-family:'BIZ UDPGothic';-inkscape-font-specification:'BIZ UDPGothic Bold'"
             id="tspan22336">ソフト</tspan></tspan><tspan
           x="0"
           y="80.553146"
           id="tspan22342"><tspan
             style="font-weight:bold;font-family:'BIZ UDPGothic';-inkscape-font-specification:'BIZ UDPGothic Bold'"
             id="tspan22340">ウェア エンジニアリング</tspan></tspan><tspan
           x="0"
           y="161.10629"
           id="tspan22350"><tspan
             style="font-weight:bold;font-family:'BIZ UDPGothic';-inkscape-font-specification:'BIZ UDPGothic Bold'"
             id="tspan22344">および</tspan><tspan
             style="font-weight:bold;font-family:'BIZ UDPGothic';-inkscape-font-specification:'BIZ UDPGothic Bold'"
             id="tspan22346">開発部門</tspan><tspan
             style="font-weight:bold;font-family:'BIZ UDPGothic';-inkscape-font-specification:'BIZ UDPGothic Bold'"
             id="tspan22348">にあり、</tspan></tspan></text>
      <text
         transform="matrix(1,0,0,-1,74.4375,203.2676)"
         style="font-variant:normal;font-weight:normal;font-stretch:normal;font-size:44px;font-family:'Open Sans';-inkscape-font-specification:OpenSans;writing-mode:lr-tb;white-space:pre;inline-size:643.679;fill:#231f20;fill-opacity:1;fill-rule:nonzero;stroke:none"
         id="text34360"
         xml:space="preserve"><tspan
           x="0"
           y="0"
           id="tspan22362"><tspan
             style="font-family:'BIZ UDPGothic';-inkscape-font-specification:'BIZ UDPGothic'"
             id="tspan22352">18％は </tspan><tspan
             style="font-family:'BIZ UDPGothic';-inkscape-font-specification:'BIZ UDPGothic'"
             id="tspan22354">CTO </tspan><tspan
             style="font-family:'BIZ UDPGothic';-inkscape-font-specification:'BIZ UDPGothic'"
             id="tspan22356">オフィス</tspan><tspan
             style="font-family:'BIZ UDPGothic';-inkscape-font-specification:'BIZ UDPGothic'"
             id="tspan22358">内</tspan><tspan
             style="font-family:'BIZ UDPGothic';-inkscape-font-specification:'BIZ UDPGothic'"
             id="tspan22360">にあり</tspan></tspan><tspan
           x="0"
           y="59.072311"
           id="tspan22366"><tspan
             style="font-family:'BIZ UDPGothic';-inkscape-font-specification:'BIZ UDPGothic'"
             id="tspan22364">ます。</tspan></tspan></text>
      <g
         id="g34366">
        <g
           id="g34368"
           clip-path="url(#clipPath34372)">
          <g
             id="g34374">
            <g
               id="g34376" />
            <g
               id="g34388">
              <g
                 clip-path="url(#clipPath34380)"
                 opacity="0.25"
                 id="g34386">
                <g
                   transform="translate(939.0204,315.7596)"
                   id="g34384">
                  <path
                     d="m 0,0 158.749,-115.338 c -63.7,-87.674 -186.412,-107.11 -274.087,-43.411 -87.674,63.7 -107.11,186.412 -43.411,274.087 38.22,52.604 93.726,80.886 158.749,80.886 z"
                     style="fill:#d6eef6;fill-opacity:1;fill-rule:evenodd;stroke:none"
                     id="path34382" />
                </g>
              </g>
            </g>
          </g>
          <g
             id="g34390"
             transform="translate(939.0204,315.7596)">
            <path
               d="m 0,0 v 196.224 c 108.372,0 196.224,-87.852 196.224,-196.224 0,-43.349 -11.996,-80.268 -37.475,-115.338 z"
               style="fill:#268600;fill-opacity:1;fill-rule:evenodd;stroke:none"
               id="path34392" />
          </g>
          <g
             id="g34394"
             transform="translate(1107.686,316.4838)">
            <path
               d="m 0,0 c 0,-93.15 -75.513,-168.663 -168.663,-168.663 -93.15,0 -168.663,75.513 -168.663,168.663 0,93.15 75.513,168.663 168.663,168.663 C -75.513,168.663 0,93.15 0,0"
               style="fill:#a1d33c;fill-opacity:1;fill-rule:nonzero;stroke:none"
               id="path34396" />
          </g>
          <g
             id="g34398"
             transform="translate(978.1733,272.5945)">
            <path
               d="m 0,0 c -3.689,0.021 -6.662,3.029 -6.64,6.717 0.011,2.013 0.929,3.912 2.499,5.172 L 36.467,43.814 -3.607,75.473 c -2.895,2.287 -3.389,6.488 -1.102,9.384 2.287,2.896 6.489,3.389 9.384,1.102 L 51.428,49.091 c 2.914,-2.262 3.443,-6.458 1.182,-9.372 -0.343,-0.441 -0.74,-0.838 -1.182,-1.181 L 4.074,1.603 C 2.935,0.626 1.5,0.061 0,0"
               style="fill:#ffffff;fill-opacity:1;fill-rule:nonzero;stroke:none"
               id="path34400" />
          </g>
          <g
             id="g34402"
             transform="translate(901.4982,262.6428)">
            <path
               d="m 0,0 c -1.476,0.005 -2.908,0.498 -4.074,1.403 l -49.158,38.404 c -1.563,1.301 -2.448,3.243 -2.404,5.276 0.025,2.044 0.985,3.963 2.605,5.21 L -4.275,88.697 C -1.36,90.984 2.856,90.476 5.143,87.562 7.43,84.648 6.922,80.431 4.007,78.144 L -38.137,44.749 4.341,11.354 C 7.219,9.046 7.68,4.842 5.372,1.965 4.112,0.396 2.213,-0.523 0.2,-0.534 Z"
               style="fill:#ffffff;fill-opacity:1;fill-rule:nonzero;stroke:none"
               id="path34404" />
          </g>
          <g
             id="g34406"
             transform="translate(919.732,222.9026)">
            <path
               d="m 0,0 h -1.469 c -3.603,0.792 -5.881,4.355 -5.089,7.957 0.004,0.02 0.008,0.039 0.013,0.058 l 39.539,173.788 c 0.73,3.616 4.252,5.955 7.868,5.226 0.027,-0.005 0.054,-0.011 0.08,-0.017 3.595,-0.827 5.839,-4.412 5.011,-8.006 L 45.952,178.998 6.278,5.21 C 5.612,2.248 3.033,0.108 0,0"
               style="fill:#ffffff;fill-opacity:1;fill-rule:nonzero;stroke:none"
               id="path34408" />
          </g>
        </g>
      </g>
    </g>
  </g>
</svg>
