<?xml version="1.0" encoding="utf-8"?>
<!-- Generator: Adobe Illustrator 25.4.1, SVG Export Plug-In . SVG Version: 6.00 Build 0)  -->
<svg version="1.1" id="Layer_1" xmlns="http://www.w3.org/2000/svg" xmlns:xlink="http://www.w3.org/1999/xlink" x="0px" y="0px"
	 viewBox="0 0 500 500" style="enable-background:new 0 0 500 500;" xml:space="preserve">
<style type="text/css">
	.st0{fill:#FFFFFF;}
</style>
<g>
	<path class="st0" d="M449.9,0H50.1C22.5,0,0,22.5,0,50.1v399.9C0,477.5,22.5,500,50.1,500h399.9c27.6,0,50.1-22.5,50.1-50.1V50.1
		C500,22.5,477.5,0,449.9,0L449.9,0z M150,425.1H74.9V199.9H150V425.1z M112.6,157.5c-25,0-45.1-20-45.1-44.9
		c0-25,20-45.1,45.1-45.1c24.9,0,44.9,20,44.9,45.1C157.5,137.4,137.4,157.5,112.6,157.5L112.6,157.5z M425.1,425.1H350V292.5
		c0-20-17.4-37.5-37.5-37.5c-20,0-37.5,17.5-37.5,37.5v132.6h-75.1V199.9H275v30c12.4-20,39.9-35,62.5-35
		c47.5,0,87.5,40.1,87.5,87.5V425.1z M425.1,425.1"/>
</g>
</svg>
