<?xml version="1.0" encoding="UTF-8" standalone="no"?>
<!-- Created with Inkscape (http://www.inkscape.org/) -->

<svg
   version="1.1"
   id="svg9"
   xml:space="preserve"
   width="2048"
   height="1851"
   viewBox="0 0 2048 1851"
   sodipodi:docname="OSPO_PERSONAS.svg"
   inkscape:version="1.1.2 (b8e25be833, 2022-02-05)"
   inkscape:export-filename="D:\Users\1134140352905\Downloads\OSPO_PERSONAS.png"
   inkscape:export-xdpi="96"
   inkscape:export-ydpi="96"
   xmlns:inkscape="http://www.inkscape.org/namespaces/inkscape"
   xmlns:sodipodi="http://sodipodi.sourceforge.net/DTD/sodipodi-0.dtd"
   xmlns="http://www.w3.org/2000/svg"
   xmlns:svg="http://www.w3.org/2000/svg"><defs
     id="defs13"><rect
       x="1379.0866"
       y="989.64356"
       width="13.74505"
       height="171.81312"
       id="rect54871" /><rect
       x="368.8255"
       y="1056.078"
       width="1215.3386"
       height="204.92564"
       id="rect41312" /><clipPath
       clipPathUnits="userSpaceOnUse"
       id="clipPath37"><path
         d="M 0,1388.245 H 1535.997 V 0 H 0 Z"
         id="path35" /></clipPath><clipPath
       clipPathUnits="userSpaceOnUse"
       id="clipPath73"><path
         d="M 364.619,1122.7 H 1142.64 V 335.277 H 364.619 Z"
         id="path71" /></clipPath><linearGradient
       x1="0"
       y1="0"
       x2="1"
       y2="0"
       gradientUnits="userSpaceOnUse"
       gradientTransform="matrix(554.84589,-554.84589,-554.84589,-554.84589,476.2052,1006.4125)"
       spreadMethod="pad"
       id="linearGradient85"><stop
         style="stop-opacity:1;stop-color:#0077bb"
         offset="0"
         id="stop79" /><stop
         style="stop-opacity:1;stop-color:#0077bb"
         offset="0.7474065"
         id="stop81" /><stop
         style="stop-opacity:1;stop-color:#a1d364"
         offset="1"
         id="stop83" /></linearGradient><clipPath
       clipPathUnits="userSpaceOnUse"
       id="clipPath149"><path
         d="M 0,1388.245 H 1535.997 V 0 H 0 Z"
         id="path147" /></clipPath><clipPath
       clipPathUnits="userSpaceOnUse"
       id="clipPath187"><path
         d="M 0,1388.245 H 1535.997 V 0 H 0 Z"
         id="path185" /></clipPath></defs><sodipodi:namedview
     id="namedview11"
     pagecolor="#ffffff"
     bordercolor="#666666"
     borderopacity="1.0"
     inkscape:pageshadow="2"
     inkscape:pageopacity="0.0"
     inkscape:pagecheckerboard="0"
     showgrid="false"
     inkscape:zoom="0.4365208"
     inkscape:cx="532.62067"
     inkscape:cy="925.5"
     inkscape:window-width="1920"
     inkscape:window-height="1017"
     inkscape:window-x="-8"
     inkscape:window-y="-8"
     inkscape:window-maximized="1"
     inkscape:current-layer="g15" /><g
     id="g15"
     inkscape:groupmode="layer"
     inkscape:label="OSPO_Diagrams"
     transform="matrix(1.3333333,0,0,-1.3333333,0,1851)"><text
       transform="matrix(1,0,0,-1,667.5625,141.3203)"
       style="font-variant:normal;font-weight:bold;font-stretch:normal;font-size:29px;font-family:'Open Sans';-inkscape-font-specification:OpenSans-Bold;writing-mode:lr-tb;fill:#454545;fill-opacity:1;fill-rule:nonzero;stroke:none"
       id="text29"><tspan
         sodipodi:role="line"
         id="tspan27"
         x="0"
         y="0" /></text><g
       id="g31"><g
         id="g33"
         clip-path="url(#clipPath37)"><g
           id="g39"
           transform="translate(356.6679,458.6284)"><path
             d="m 0,0 c 0,35.649 -28.899,64.548 -64.548,64.548 -35.65,0 -64.549,-28.899 -64.549,-64.548 0,-35.649 28.899,-64.548 64.549,-64.548 C -28.899,-64.548 0,-35.649 0,0 Z"
             style="fill:none;stroke:#159bd7;stroke-width:4;stroke-linecap:butt;stroke-linejoin:miter;stroke-miterlimit:10;stroke-dasharray:none;stroke-opacity:1"
             id="path41" /></g><g
           id="g43"
           transform="translate(300.9875,442.7911)"><path
             d="m 0,0 9.293,-23.922 c 14.878,6.999 24.36,21.977 24.321,38.419 0,23.418 -19.064,42.482 -42.482,42.482 -23.418,0 -42.482,-19.064 -42.482,-42.482 -0.038,-16.442 9.443,-31.42 24.322,-38.419 L -17.736,0 c -6.492,3.972 -9.551,11.776 -7.489,19.101 2.064,7.326 8.747,12.387 16.357,12.387 7.611,0 14.294,-5.061 16.356,-12.387 C 9.551,11.776 6.492,3.972 0,0 M 6.93,-29.552 -5.363,2.071 -3.558,2.894 c 5.447,2.497 8.419,8.45 7.142,14.303 -1.278,5.853 -6.461,10.027 -12.452,10.027 -5.992,0 -11.174,-4.174 -12.451,-10.027 -1.278,-5.853 1.694,-11.806 7.141,-14.303 l 1.805,-0.823 -12.293,-31.623 -1.991,0.823 c -17.54,7.182 -28.983,24.273 -28.941,43.226 0,25.754 20.975,46.73 46.73,46.73 25.755,0 46.73,-20.976 46.73,-46.73 C 37.904,-4.456 26.461,-21.547 8.921,-28.729 Z"
             style="fill:#159bd7;fill-opacity:1;fill-rule:nonzero;stroke:none"
             id="path45" /></g><g
           id="g47"
           transform="translate(314.9083,1008.3521)"><path
             d="m 0,0 c 0,-35.649 -28.899,-64.548 -64.548,-64.548 -35.65,0 -64.549,28.899 -64.549,64.548 0,35.649 28.899,64.548 64.549,64.548 C -28.899,64.548 0,35.649 0,0 Z"
             style="fill:none;stroke:#159bd7;stroke-width:4;stroke-linecap:butt;stroke-linejoin:miter;stroke-miterlimit:10;stroke-dasharray:none;stroke-opacity:1"
             id="path49" /></g><g
           id="g51"
           transform="translate(287.7986,984.1019)"><path
             d="M 0,0 H -24.479 V 2.88 H 2.837 2.88 V 0 Z M -1.44,-10.08 H -7.2 v 7.2 h 5.76 z m -25.919,1.44 c 0,-0.795 -0.645,-1.44 -1.44,-1.44 h -1.44 V 2.88 c 0,0.795 -0.645,1.44 -1.44,1.44 -0.795,0 -1.44,-0.645 -1.44,-1.44 v -12.96 h -8.64 V 2.88 c 0,0.795 -0.644,1.44 -1.44,1.44 -0.795,0 -1.44,-0.645 -1.44,-1.44 v -12.96 h -1.44 c -0.795,0 -1.439,0.645 -1.439,1.44 V 7.2 c 0,5.567 4.512,10.079 10.079,10.079 5.567,0 10.08,-4.512 10.08,-10.079 z M -66.238,0 h -11.52 v 2.88 h 0.044 27.316 V 0 Z m -1.44,-10.08 h -5.76 v 7.2 h 5.76 z m -7.2,37.439 c 0,1.591 1.29,2.88 2.88,2.88 1.591,0 2.88,-1.289 2.88,-2.88 v -3.64 l -5.76,-8.512 z m 0,8.64 c 0,1.59 1.29,2.88 2.88,2.88 1.591,0 2.88,-1.29 2.88,-2.88 0,-1.591 -1.289,-2.88 -2.88,-2.88 -1.59,0 -2.88,1.289 -2.88,2.88 m 14.4,12.959 c 0,1.591 1.289,2.88 2.88,2.88 1.59,0 2.88,-1.289 2.88,-2.88 v -3.959 l -5.76,-8.512 z m 0,8.64 c 0,1.591 1.289,2.88 2.88,2.88 1.59,0 2.88,-1.289 2.88,-2.88 0,-1.59 -1.29,-2.88 -2.88,-2.88 -1.591,0 -2.88,1.29 -2.88,2.88 m 17.279,-31.679 c 0,3.181 2.579,5.76 5.76,5.76 3.181,0 5.76,-2.579 5.76,-5.76 0,-3.181 -2.579,-5.76 -5.76,-5.76 -3.181,0 -5.76,2.579 -5.76,5.76 M -48.526,48.958 -26.307,48.943 2.837,5.76 H -24.479 V 7.2 c -0.007,5.134 -3.041,9.781 -7.739,11.852 3.802,2.884 4.546,8.303 1.663,12.105 -2.884,3.802 -8.303,4.546 -12.105,1.662 -3.802,-2.884 -4.546,-8.303 -1.662,-12.105 0.475,-0.627 1.035,-1.186 1.662,-1.662 -4.698,-2.071 -7.732,-6.718 -7.738,-11.852 V 5.76 l -27.348,0.072 z m 5.327,7.2 c 0,3.181 2.579,5.76 5.76,5.76 3.181,0 5.76,-2.579 5.76,-5.76 v -4.32 h -11.52 z m 2.88,11.52 c 0,1.59 1.29,2.88 2.88,2.88 1.591,0 2.88,-1.29 2.88,-2.88 0,-1.591 -1.289,-2.88 -2.88,-2.88 -1.59,0 -2.88,1.289 -2.88,2.88 m 20.16,-18.72 c 0,1.591 1.289,2.88 2.88,2.88 1.59,0 2.879,-1.289 2.879,-2.88 V 36.487 l -5.759,8.51 z m 0,8.64 c 0,1.591 1.289,2.88 2.88,2.88 1.59,0 2.879,-1.289 2.879,-2.88 0,-1.59 -1.289,-2.88 -2.879,-2.88 -1.591,0 -2.88,1.29 -2.88,2.88 M -5.76,27.359 c 0,1.591 1.29,2.88 2.88,2.88 1.591,0 2.88,-1.289 2.88,-2.88 v -12.15 l -5.76,8.511 z m 0,8.64 c 0,1.59 1.29,2.88 2.88,2.88 1.591,0 2.88,-1.29 2.88,-2.88 0,-1.591 -1.289,-2.88 -2.88,-2.88 -1.59,0 -2.88,1.289 -2.88,2.88 M 5.253,7.446 2.88,10.954 v 16.405 c -0.005,1.661 -0.731,3.237 -1.99,4.32 2.405,2.082 2.667,5.719 0.585,8.125 -2.082,2.405 -5.72,2.667 -8.125,0.585 -2.405,-2.082 -2.667,-5.72 -0.585,-8.125 0.181,-0.209 0.377,-0.404 0.585,-0.585 -0.098,-0.086 -0.207,-0.156 -0.301,-0.249 -0.943,-0.949 -1.522,-2.199 -1.635,-3.532 l -2.934,4.333 v 16.727 c -0.005,1.661 -0.731,3.237 -1.99,4.32 2.405,2.082 2.667,5.72 0.585,8.125 -2.082,2.405 -5.719,2.667 -8.124,0.585 -2.405,-2.082 -2.667,-5.72 -0.585,-8.125 0.181,-0.208 0.376,-0.404 0.585,-0.585 -0.098,-0.086 -0.208,-0.155 -0.301,-0.249 -1.015,-1.016 -1.609,-2.378 -1.663,-3.813 l -0.908,1.339 c -0.546,0.806 -1.457,1.287 -2.43,1.283 h -2.448 v 4.32 c -0.002,3.148 -1.716,6.046 -4.474,7.564 2.197,2.301 2.113,5.947 -0.188,8.144 -2.301,2.197 -5.947,2.112 -8.144,-0.188 -2.125,-2.226 -2.125,-5.73 0,-7.956 -2.758,-1.518 -4.472,-4.416 -4.474,-7.564 v -4.32 h -2.447 c -0.973,0.004 -1.884,-0.476 -2.431,-1.281 l -0.907,-1.339 c -0.054,1.434 -0.648,2.796 -1.663,3.811 -0.094,0.094 -0.203,0.163 -0.301,0.249 2.405,2.082 2.667,5.72 0.585,8.125 -2.082,2.405 -5.72,2.667 -8.125,0.585 -2.405,-2.082 -2.667,-5.72 -0.585,-8.125 0.181,-0.208 0.376,-0.404 0.585,-0.585 -1.259,-1.083 -1.985,-2.659 -1.99,-4.32 V 32.231 l -2.933,-4.333 c -0.113,1.333 -0.692,2.583 -1.636,3.532 -0.094,0.093 -0.203,0.163 -0.301,0.249 2.405,2.082 2.667,5.719 0.585,8.125 -2.082,2.405 -5.719,2.667 -8.125,0.585 -2.405,-2.082 -2.666,-5.72 -0.584,-8.125 0.18,-0.209 0.376,-0.404 0.584,-0.585 -1.258,-1.083 -1.984,-2.659 -1.99,-4.32 V 10.952 l -2.373,-3.507 c -0.309,-0.461 -0.48,-1 -0.492,-1.554 0,-0.026 -0.014,-0.048 -0.014,-0.074 V 0 c 0,-1.591 1.289,-2.88 2.879,-2.88 h 1.44 v -7.2 c 0,-1.59 1.29,-2.88 2.88,-2.88 h 5.76 c 1.591,0 2.88,1.29 2.88,2.88 v 7.2 h 14.4 v -5.76 c 0,-2.386 1.934,-4.32 4.319,-4.32 h 17.28 c 2.386,0 4.32,1.934 4.32,4.32 v 5.76 h 14.399 v -7.2 c 0,-1.59 1.29,-2.88 2.88,-2.88 h 5.76 c 1.591,0 2.88,1.29 2.88,2.88 v 7.2 h 1.44 c 1.59,0 2.88,1.289 2.88,2.88 V 5.817 C 5.76,5.843 5.747,5.865 5.745,5.891 5.733,6.446 5.562,6.985 5.253,7.446"
             style="fill:#159bd7;fill-opacity:1;fill-rule:nonzero;stroke:none"
             id="path53" /></g><g
           id="g55"
           transform="translate(818.1766,249.4975)"><path
             d="m 0,0 c 0,35.649 -28.899,64.548 -64.548,64.548 -35.65,0 -64.549,-28.899 -64.549,-64.548 0,-35.649 28.899,-64.548 64.549,-64.548 C -28.899,-64.548 0,-35.649 0,0 Z"
             style="fill:none;stroke:#159bd7;stroke-width:4;stroke-linecap:butt;stroke-linejoin:miter;stroke-miterlimit:10;stroke-dasharray:none;stroke-opacity:1"
             id="path57" /></g><g
           id="g59"
           transform="translate(722.5214,212.2392)"><path
             d="m 0,0 c 0.854,4.084 4.577,6.993 8.917,6.993 h 5.454 9.1 29.109 c 4.326,0 8.06,-2.896 8.917,-6.993 z m 8.917,16.783 c 0,0.964 0.816,1.748 1.819,1.748 h 40.025 c 1.003,0 1.819,-0.784 1.819,-1.748 v -6.294 h -29.109 -9.1 -5.454 z m 15.049,21.239 c 3.11,2.242 5.739,5.108 7.672,8.353 3.67,-0.944 6.794,0.159 9.18,1.291 0.901,0.428 1.271,1.477 0.826,2.342 -0.445,0.866 -1.536,1.221 -2.437,0.793 -2.875,-1.364 -5.339,-1.839 -8.27,-0.442 -3.338,1.605 -6.791,1.687 -9.982,0.241 -2.68,-1.215 -4.298,-3.027 -5.562,-4.238 -1.414,-1.359 -3.7,-1.359 -5.114,0 l -4.455,4.279 c -0.711,0.683 -0.711,1.79 0,2.474 l 8.298,7.974 c 0.341,0.327 0.533,0.772 0.533,1.236 0,4.796 4.036,8.697 8.998,8.697 1.005,0 1.819,0.783 1.819,1.748 v 9.747 h 3.67 c 1.989,0 3.608,-1.559 3.608,-3.476 v -6.437 c 0,-0.851 0.638,-1.579 1.511,-1.723 C 42.702,69.489 48.98,63.262 50.664,56.777 53.382,46.328 51.294,40.456 48.569,32.175 47.5,28.923 46.726,26.071 47.421,22.028 H 14.247 c 0.986,6.363 4.559,12.276 9.719,15.994 m 36.855,21.253 c 2.926,-11.248 1.3,-19.012 -0.846,-25.884 h -7.186 c 2.261,6.867 4.176,13.583 1.405,24.233 -1.914,7.367 -8.658,14.328 -17.806,16.408 v 5.009 c 0,1.19 -0.312,2.311 -0.86,3.292 10.47,-1.417 22.115,-10.839 25.293,-23.058 M 56.219,9.981 v 6.802 c 0,2.774 -2.254,5.051 -5.094,5.232 -0.595,2.761 -0.321,5.269 0.516,7.88 h 9.679 c 0.797,0 1.5,0.498 1.737,1.228 2.372,7.318 4.623,16.199 1.294,29 -3.884,14.931 -18.859,25.89 -31.467,25.89 h -9.231 c -1.005,0 -1.819,-0.782 -1.819,-1.748 V 74.392 C 15.974,73.574 11.404,68.861 11.039,63.071 L 3.251,55.587 c -2.132,-2.049 -2.133,-5.368 0,-7.418 L 7.706,43.89 c 2.823,-2.715 7.341,-2.704 10.159,-0.096 1.143,0.883 4.679,5.844 10.351,3.886 C 26.555,45.025 24.36,42.676 21.783,40.82 15.728,36.458 11.581,29.479 10.573,22.024 7.639,21.94 5.278,19.623 5.278,16.783 V 9.981 C -0.076,8.465 -3.818,3.752 -3.818,-1.748 c 0,-0.966 0.814,-1.748 1.819,-1.748 h 65.495 c 1.005,0 1.819,0.782 1.819,1.748 0,5.499 -3.742,10.213 -9.096,11.729"
             style="fill:#159bd7;fill-opacity:1;fill-rule:nonzero;stroke:none"
             id="path61" /></g><g
           id="g63"
           transform="translate(747.8119,274.4764)"><path
             d="m 0,0 h -3.638 c -1.005,0 -1.82,-0.783 -1.82,-1.748 0,-0.966 0.815,-1.748 1.82,-1.748 H 0 c 1.005,0 1.819,0.782 1.819,1.748 C 1.819,-0.783 1.005,0 0,0"
             style="fill:#159bd7;fill-opacity:1;fill-rule:nonzero;stroke:none"
             id="path65" /></g><g
           id="g67"><g
             id="g69" /><g
             id="g99"><g
               clip-path="url(#clipPath73)"
               opacity="0.800003"
               id="g97"><g
                 id="g95"><g
                   id="g93"><g
                     id="g91"><g
                       id="g89"><path
                         d="m 1142.637,733.694 v -9.409 c 0,-214.843 -174.165,-389.008 -389.008,-389.008 h -10e-4 c -214.844,0 -389.009,174.165 -389.009,389.008 v 9.409 c 0,214.844 174.165,389.009 389.009,389.009 h 10e-4 c 214.843,0 389.008,-174.165 389.008,-389.009"
                         style="fill:url(#linearGradient85);stroke:none"
                         id="path87" /></g></g></g></g></g></g></g></g></g><text
       transform="scale(1,-1)"
       style="font-style:normal;font-variant:normal;font-weight:bold;font-stretch:normal;font-size:38px;font-family:'BIZ UDPGothic';-inkscape-font-specification:'BIZ UDPGothic Bold';writing-mode:lr-tb;fill:#ffffff;fill-opacity:1;fill-rule:nonzero;stroke:none"
       id="text103"
       x="603.20361"
       y="-1000.5146"><tspan
         x="603.20361 633.45166 654.38965 678.25366"
         y="-1000.5146"
         sodipodi:role="line"
         id="tspan101">OSPOのペルソナ</tspan></text><text
       transform="matrix(1,0,0,-1,435.65328,935.23273)"
       style="font-style:normal;font-variant:normal;font-weight:bold;font-stretch:normal;font-size:27px;font-family:'BIZ UDPGothic';-inkscape-font-specification:'BIZ UDPGothic Bold';text-align:center;writing-mode:lr-tb;text-anchor:middle;white-space:pre;inline-size:636.121;fill:#ffffff;fill-opacity:1;fill-rule:nonzero;stroke:none"
       id="text117"
       x="316.25464"
       y="0"
       xml:space="preserve"><tspan
         x="316.25464"
         y="0"
         id="tspan461">社員が、OSS の使用を促進され、
</tspan><tspan
         x="316.25464"
         y="33.75"
         id="tspan463">教育されたもとで業務遂行している
</tspan><tspan
         x="316.25464"
         y="67.5"
         id="tspan465">
</tspan><tspan
         x="316.25464"
         y="101.25"
         id="tspan467">その組織が、OSS の使用や稼働に関して
</tspan><tspan
         x="316.25464"
         y="135"
         id="tspan469">正式なポリシーを持っている
</tspan><tspan
         x="316.25464"
         y="168.75"
         id="tspan471">
</tspan><tspan
         x="316.25464"
         y="202.5"
         id="tspan473">エグゼクティブたちが、OSS および、
</tspan><tspan
         x="316.25464"
         y="236.25"
         id="tspan475">より広い意味での「オープンソース」が重要な戦略的資</tspan><tspan
         x="316.25464"
         y="270"
         id="tspan477">産であることを認識している
</tspan><tspan
         x="316.25464"
         y="303.75"
         id="tspan479">
</tspan><tspan
         x="316.25464"
         y="337.5"
         id="tspan481">多くの社員がオープンソースプロジェクトに
</tspan><tspan
         x="316.25464"
         y="371.25"
         id="tspan483">コードをコントリビュートしている
</tspan><tspan
         x="316.25464"
         y="405"
         id="tspan485">
</tspan><tspan
         x="316.25464"
         y="438.75"
         id="tspan487">オープンソース(へ）の消費や参加を合理化し
</tspan><tspan
         x="316.25464"
         y="472.5"
         id="tspan489">促進するためのプロセス、手順、
</tspan><tspan
         x="316.25464"
         y="506.25"
         id="tspan491">ツールが整備されている</tspan></text><text
       transform="matrix(1,0,0,-1,524.9961,933.5146)"
       style="font-variant:normal;font-weight:600;font-stretch:normal;font-size:27px;font-family:'Open Sans Semibold';-inkscape-font-specification:OpenSans-Semibold;writing-mode:lr-tb;white-space:pre;inline-size:715.155;fill:#ffffff;fill-opacity:1;fill-rule:nonzero;stroke:none"
       id="text57869"
       xml:space="preserve"><tspan
         x="0"
         y="138.89041"
         id="tspan493">
</tspan><tspan
         x="0"
         y="172.64041"
         id="tspan495">
</tspan></text><text
       transform="matrix(1,0,0,-1,515.6271,627.5776)"
       style="font-variant:normal;font-weight:600;font-stretch:normal;font-size:27px;font-family:'Open Sans Semibold';-inkscape-font-specification:OpenSans-Semibold;writing-mode:lr-tb;fill:#ffffff;fill-opacity:1;fill-rule:nonzero;stroke:none"
       id="text121"><tspan
         sodipodi:role="line"
         id="tspan119"
         x="0"
         y="0" /></text><text
       transform="matrix(1,0,0,-1,487.3311,592.5856)"
       style="font-variant:normal;font-weight:600;font-stretch:normal;font-size:27px;font-family:'Open Sans Semibold';-inkscape-font-specification:OpenSans-Semibold;writing-mode:lr-tb;fill:#ffffff;fill-opacity:1;fill-rule:nonzero;stroke:none"
       id="text131"><tspan
         sodipodi:role="line"
         id="tspan129"
         x="0"
         y="0" /></text><text
       transform="scale(1,-1)"
       style="font-variant:normal;font-weight:bold;font-stretch:normal;font-size:29px;font-family:'Open Sans';-inkscape-font-specification:OpenSans-Bold;text-align:center;writing-mode:lr-tb;text-anchor:middle;fill:#454545;fill-opacity:1;fill-rule:nonzero;stroke:none"
       id="text141"
       x="752.9422"
       y="-1189.7219"><tspan
         x="752.9422"
         y="-1189.7219"
         sodipodi:role="line"
         id="tspan135"
         style="font-style:normal;font-variant:normal;font-weight:bold;font-stretch:normal;font-family:'BIZ UDPGothic';-inkscape-font-specification:'BIZ UDPGothic Bold'">業界「横断」で協調的</tspan><tspan
         x="752.9422"
         y="-1153.4719"
         sodipodi:role="line"
         id="tspan139" /></text><text
       transform="scale(1,-1)"
       style="font-variant:normal;font-weight:bold;font-stretch:normal;font-size:29px;font-family:'BIZ UDPGothic';-inkscape-font-specification:'BIZ UDPGothic Bold';text-align:center;writing-mode:lr-tb;text-anchor:middle;fill:#454545;fill-opacity:1;fill-rule:nonzero;stroke:none;font-style:normal"
       id="text141-5"
       x="250.12953"
       y="-895.13361"><tspan
         x="250.12953"
         y="-895.13361"
         sodipodi:role="line"
         id="tspan133-6">ビッグプロジェクトの</tspan><tspan
         x="250.12953"
         y="-856.79431"
         sodipodi:role="line"
         id="tspan139-24">ファシリテータ</tspan></text><text
       transform="scale(1,-1)"
       style="font-variant:normal;font-weight:bold;font-stretch:normal;font-size:29px;font-family:'BIZ UDPGothic';-inkscape-font-specification:'BIZ UDPGothic Bold';text-align:center;writing-mode:lr-tb;text-anchor:middle;fill:#454545;fill-opacity:1;fill-rule:nonzero;stroke:none;font-style:normal"
       id="text141-5-7"
       x="755.26013"
       y="-134.00143"><tspan
         x="755.26013"
         y="-134.00143"
         sodipodi:role="line"
         id="tspan133-6-2">技術戦略</tspan><tspan
         x="755.26013"
         y="-95.662132"
         sodipodi:role="line"
         id="tspan139-24-8">エキスパート</tspan></text><text
       transform="scale(1,-1)"
       style="font-variant:normal;font-weight:bold;font-stretch:normal;font-size:29px;font-family:'BIZ UDPGothic';-inkscape-font-specification:'BIZ UDPGothic Bold';text-align:center;writing-mode:lr-tb;text-anchor:middle;fill:#454545;fill-opacity:1;fill-rule:nonzero;stroke:none;font-style:normal"
       id="text141-9"
       x="294.80099"
       y="-345.33154"><tspan
         x="294.80099"
         y="-345.33154"
         sodipodi:role="line"
         id="tspan139-8">オープンソースファースト</tspan></text><text
       transform="scale(1,-1)"
       style="font-variant:normal;font-weight:bold;font-stretch:normal;font-size:29px;font-family:'BIZ UDPGothic';-inkscape-font-specification:'BIZ UDPGothic Bold';text-align:center;writing-mode:lr-tb;text-anchor:middle;fill:#454545;fill-opacity:1;fill-rule:nonzero;stroke:none;font-style:normal"
       id="text141-4"
       x="1217.4374"
       y="-367.66727"><tspan
         x="1217.4374"
         y="-367.66727"
         sodipodi:role="line"
         id="tspan135-7">ソフトウェア企業</tspan><tspan
         x="1217.4374"
         y="-331.41727"
         sodipodi:role="line"
         id="tspan139-2" /></text><g
       id="g143"><g
         id="g145"
         clip-path="url(#clipPath149)"><g
           id="g151"
           transform="translate(1283.9802,477.8215)"><path
             d="m 0,0 c 0,35.649 -28.899,64.548 -64.548,64.548 -35.65,0 -64.549,-28.899 -64.549,-64.548 0,-35.649 28.899,-64.548 64.549,-64.548 C -28.899,-64.548 0,-35.649 0,0 Z"
             style="fill:none;stroke:#159bd7;stroke-width:4;stroke-linecap:butt;stroke-linejoin:miter;stroke-miterlimit:10;stroke-dasharray:none;stroke-opacity:1"
             id="path153" /></g><g
           id="g155"
           transform="translate(1209.9421,461.7053)"><path
             d="m 0,0 c -0.711,0.777 -1.917,0.831 -2.694,0.12 -0.731,-0.669 -0.829,-1.786 -0.224,-2.571 1.279,-1.531 3.921,-5.445 0.904,-9.19 -1.438,-1.693 -3.48,-2.759 -5.691,-2.972 -4.633,-0.505 -10.607,-1.715 -14.114,-4.595 -1.264,5.874 0.582,10.722 5.621,14.751 0.82,0.661 0.948,1.862 0.286,2.681 -0.205,0.255 -0.473,0.452 -0.776,0.574 -1.562,0.565 -3.218,0.825 -4.879,0.765 1.18,2.244 3.194,4.971 5.966,5.737 2.076,0.551 4.45,-0.138 7.054,-2.037 0.904,-0.541 2.075,-0.246 2.615,0.658 0.471,0.787 0.315,1.797 -0.371,2.405 -3.577,2.619 -7.031,3.508 -10.255,2.65 -4.947,-1.302 -7.881,-6.364 -9.19,-9.267 -0.664,-1.469 -0.011,-3.197 1.458,-3.86 0.548,-0.248 1.16,-0.32 1.751,-0.207 0.336,0.064 0.676,0.105 1.018,0.123 -3.4,-3.868 -5.897,-9.574 -3.584,-17.454 0.353,-1.251 1.495,-2.115 2.795,-2.114 h 0.092 c 0.814,0.024 1.581,0.388 2.114,1.003 1.854,2.106 6.525,3.707 12.821,4.396 3.215,0.312 6.176,1.881 8.24,4.366 2.06,2.415 2.77,5.703 1.892,8.754 C 2.282,-3.342 1.311,-1.541 0,0"
             style="fill:#00a4e4;fill-opacity:1;fill-rule:nonzero;stroke:none"
             id="path157" /></g><g
           id="g159"
           transform="translate(1234.1664,485.1331)"><path
             d="m 0,0 c -1.95,-1.95 -5.112,-1.95 -7.062,0.001 -1.95,1.95 -1.949,5.111 0.001,7.061 1.95,1.95 5.112,1.95 7.061,0 C 0.937,6.125 1.463,4.855 1.463,3.531 1.464,2.204 0.938,0.931 0,-0.008 Z m -3.531,12.33 c -4.86,0 -8.799,-3.94 -8.799,-8.8 0,-4.86 3.94,-8.799 8.8,-8.799 4.86,0 8.8,3.94 8.8,8.8 0,2.332 -0.926,4.569 -2.574,6.218 -1.648,1.658 -3.89,2.587 -6.227,2.581"
             style="fill:#00a4e4;fill-opacity:1;fill-rule:nonzero;stroke:none"
             id="path161" /></g><g
           id="g163"
           transform="translate(1244.5438,483.3945)"><path
             d="m 0,0 c -2.01,-3.559 -4.54,-6.799 -7.505,-9.612 l -0.077,-0.069 c -0.328,-0.311 -0.535,-0.729 -0.582,-1.179 -0.01,-0.112 -0.01,-0.225 0,-0.337 l 0.184,-3.546 c 0.104,-2.063 -0.669,-4.075 -2.129,-5.537 l -4.182,-4.182 -2.933,7.077 c -0.396,0.962 -1.492,1.426 -2.459,1.041 -2.442,-0.963 -4.957,-1.731 -7.52,-2.297 l -0.521,-0.115 -10.202,10.201 0.115,0.521 c 0.566,2.561 1.335,5.074 2.298,7.513 0.38,0.967 -0.083,2.059 -1.042,2.459 l -7.076,2.933 4.181,4.182 c 1.464,1.462 3.479,2.235 5.545,2.129 l 3.577,-0.184 c 0.586,-0.025 1.151,0.22 1.531,0.666 2.772,2.934 5.968,5.435 9.482,7.421 7.842,4.569 16.798,6.87 25.871,6.648 C 6.78,16.716 4.511,7.811 0,0 m 8.493,29.463 c -10.388,0.611 -20.727,-1.853 -29.723,-7.084 -3.584,-2.062 -6.878,-4.591 -9.795,-7.521 l -2.688,0.153 c -3.14,0.159 -6.2,-1.018 -8.425,-3.24 l -5.583,-5.583 c -0.971,-0.967 -0.974,-2.538 -0.007,-3.509 0.232,-0.233 0.508,-0.417 0.811,-0.542 l 7.245,-3.01 c -0.755,-2.067 -1.379,-4.18 -1.868,-6.326 l -0.337,-1.532 c -0.139,-0.634 0.054,-1.294 0.513,-1.754 l 11.649,-11.702 c 0.459,-0.458 1.12,-0.652 1.753,-0.513 l 1.532,0.337 c 2.153,0.475 4.274,1.087 6.349,1.83 l 2.995,-7.214 c 0.538,-1.261 1.995,-1.846 3.256,-1.308 0.298,0.127 0.568,0.311 0.795,0.542 l 5.583,5.583 c 2.222,2.225 3.398,5.285 3.24,8.425 l -0.138,2.688 c 2.943,2.903 5.488,6.184 7.567,9.757 5.228,8.997 7.69,19.335 7.076,29.723 -0.053,0.971 -0.829,1.747 -1.8,1.8"
             style="fill:#00a4e4;fill-opacity:1;fill-rule:nonzero;stroke:none"
             id="path165" /></g><g
           id="g167"
           transform="translate(818.1766,1303.873)"><path
             d="m 0,0 c 0,-35.649 -28.899,-64.548 -64.548,-64.548 -35.65,0 -64.549,28.899 -64.549,64.548 0,35.649 28.899,64.548 64.549,64.548 C -28.899,64.548 0,35.649 0,0 Z"
             style="fill:none;stroke:#159bd7;stroke-width:4;stroke-linecap:butt;stroke-linejoin:miter;stroke-miterlimit:10;stroke-dasharray:none;stroke-opacity:1"
             id="path169" /></g><g
           id="g171"
           transform="translate(755.0012,1338.6167)"><path
             d="m 0,0 c -0.8,-1.181 -1.402,-2.313 -1.798,-3.495 -0.951,-2.84 -0.744,-6.066 0.715,-11.107 0.812,-2.805 1.168,-4.546 0.949,-6.823 -0.209,-2.182 -0.947,-4.796 -2.322,-9.303 0.512,-0.554 1.01,-1.16 1.496,-1.834 0.363,0.726 0.826,1.434 1.359,2.128 0.002,0.023 0.004,0.046 0.008,0.069 0.715,4.082 0.935,6.675 0.747,9.084 -0.188,2.413 -0.786,4.676 -1.705,8.078 -1.164,4.307 -1.225,7.486 -0.388,10.561 C -0.698,-1.757 -0.383,-0.885 0,0 m 14.597,-24.636 c -1.304,-0.454 -2.385,-1.125 -3.514,-2.037 2.507,0.903 5.344,1.196 8.325,0.51 0.071,-0.016 0.4,-0.094 0.738,-0.175 0.576,-0.137 1.201,-0.285 1.865,-0.421 -0.322,0.199 -0.63,0.404 -0.936,0.607 -1.62,1.078 -3.163,2.104 -6.478,1.516 M -0.8,-68.988 c -0.107,0.195 -0.03,0.436 0.171,0.539 0.201,0.103 0.451,0.029 0.558,-0.165 0.912,-1.657 1.238,-2.779 1.16,-3.748 -0.08,-0.988 -0.563,-1.762 -1.267,-2.742 -2.479,-3.452 -1.045,-5.776 1.267,-9.521 0.389,-0.63 0.801,-1.298 1.22,-2.01 0.113,-0.191 0.043,-0.434 -0.154,-0.542 -0.198,-0.108 -0.449,-0.041 -0.562,0.15 -0.42,0.714 -0.827,1.374 -1.211,1.995 -2.479,4.016 -4.017,6.508 -1.237,10.379 0.628,0.874 1.057,1.554 1.121,2.35 0.066,0.814 -0.234,1.803 -1.066,3.315 m 4.279,-3.212 0.006,0.013 c 0.162,0.465 0.279,0.909 0.318,1.331 0.072,0.786 -0.135,1.518 -0.858,2.2 l -0.187,0.176 c -1.626,1.529 -2.675,2.515 -2.032,5.044 0.054,0.213 0.277,0.343 0.498,0.291 0.221,-0.052 0.356,-0.268 0.302,-0.481 -0.531,-2.087 0.385,-2.949 1.806,-4.284 l 0.187,-0.176 c 0.931,-0.878 1.197,-1.822 1.103,-2.839 -0.045,-0.495 -0.177,-0.999 -0.358,-1.517 -0.005,-0.017 -0.01,-0.033 -0.017,-0.05 l -0.008,-0.021 c -0.029,-0.08 -0.059,-0.16 -0.089,-0.241 -0.134,-0.401 -0.195,-0.792 -0.179,-1.144 0.015,-0.315 0.09,-0.596 0.229,-0.82 0.128,-0.207 0.316,-0.367 0.566,-0.463 0.198,-0.075 0.437,-0.112 0.717,-0.1 0.904,0.039 1.491,-0.065 1.926,-0.372 0.443,-0.312 0.676,-0.792 0.876,-1.507 0.075,-0.268 0.318,-0.42 0.645,-0.475 0.307,-0.053 0.679,-0.026 1.071,0.068 0.408,0.098 0.832,0.266 1.224,0.493 0.907,0.525 1.637,1.356 1.565,2.315 -0.016,0.219 0.156,0.409 0.383,0.425 0.227,0.015 0.424,-0.15 0.44,-0.369 0.098,-1.304 -0.821,-2.39 -1.966,-3.052 -0.463,-0.268 -0.965,-0.468 -1.45,-0.584 -0.501,-0.12 -0.99,-0.152 -1.409,-0.081 -0.642,0.109 -1.128,0.445 -1.299,1.055 -0.152,0.54 -0.307,0.888 -0.567,1.071 -0.267,0.189 -0.697,0.25 -1.403,0.22 -0.403,-0.017 -0.755,0.038 -1.056,0.153 -0.426,0.162 -0.748,0.439 -0.969,0.796 -0.066,0.106 -0.123,0.22 -0.17,0.339 -0.366,-1.061 -0.425,-1.887 -0.206,-2.677 0.281,-1.01 1.024,-2.011 2.169,-3.386 0.142,-0.171 0.114,-0.421 -0.063,-0.558 -0.177,-0.138 -0.436,-0.11 -0.579,0.061 -1.214,1.456 -2.005,2.53 -2.323,3.678 -0.325,1.17 -0.152,2.366 0.576,4.033 0.162,0.373 0.318,0.736 0.454,1.088 0.038,0.116 0.08,0.232 0.127,0.347 z m 1.649,12.892 c -0.226,-0.023 -0.429,0.135 -0.453,0.353 -0.024,0.218 0.14,0.414 0.366,0.437 1.824,0.191 3.068,0.039 4.074,-0.324 1.008,-0.364 1.743,-0.924 2.574,-1.559 0.983,-0.751 1.745,-1.164 2.446,-1.356 0.684,-0.187 1.33,-0.165 2.087,-0.046 1.886,0.297 3.506,0.351 4.638,-0.306 1.168,-0.677 1.768,-2.046 1.533,-4.562 -0.019,-0.218 -0.218,-0.38 -0.445,-0.361 -0.226,0.019 -0.393,0.211 -0.374,0.429 0.201,2.161 -0.247,3.296 -1.136,3.812 -0.925,0.537 -2.371,0.473 -4.084,0.204 -0.869,-0.137 -1.621,-0.16 -2.442,0.065 -0.805,0.22 -1.657,0.676 -2.732,1.498 -0.778,0.594 -1.464,1.118 -2.352,1.438 -0.891,0.321 -2.017,0.454 -3.7,0.278 m -28.679,48.547 c -0.271,-1.378 -1.357,-2.645 -3.248,-4.176 0.239,-0.495 0.52,-1.027 0.844,-1.607 0.173,-0.309 0.053,-0.695 -0.268,-0.861 -0.321,-0.167 -0.72,-0.051 -0.893,0.259 -1.382,2.47 -2.053,4.2 -1.959,5.866 0.096,1.684 0.956,3.201 2.634,5.233 0.032,0.04 0.07,0.078 0.113,0.111 0.285,0.219 0.7,0.173 0.927,-0.102 1.521,-1.839 2.133,-3.28 1.85,-4.723 m -3.779,-2.941 c 1.459,1.218 2.292,2.202 2.483,3.175 0.174,0.88 -0.182,1.835 -1.076,3.047 -1.166,-1.5 -1.768,-2.663 -1.836,-3.865 -0.04,-0.718 0.104,-1.478 0.429,-2.357 m 14.175,7.169 c 1.134,-1.113 1.645,-2.888 1.896,-5.56 0.642,-0.108 1.35,-0.2 2.134,-0.285 0.362,-0.038 0.623,-0.352 0.584,-0.702 -0.04,-0.349 -0.366,-0.601 -0.728,-0.562 -3.228,0.346 -5.297,0.849 -6.814,1.986 -1.53,1.147 -2.423,2.872 -3.289,5.654 -0.013,0.045 -0.022,0.091 -0.025,0.14 -0.025,0.35 0.25,0.654 0.614,0.677 2.7,0.177 4.449,-0.192 5.628,-1.348 m 0.541,-5.28 c -0.231,2.153 -0.646,3.57 -1.48,4.388 -0.761,0.746 -1.949,1.043 -3.76,1.007 0.703,-2.063 1.443,-3.379 2.582,-4.232 0.691,-0.518 1.551,-0.885 2.658,-1.163 m 8.55,-7.774 c 0.271,-1.375 -0.257,-2.937 -1.435,-5.032 0.41,-0.376 0.874,-0.771 1.396,-1.195 0.277,-0.226 0.313,-0.626 0.08,-0.894 -0.234,-0.268 -0.649,-0.303 -0.927,-0.077 -2.227,1.81 -3.509,3.182 -4.056,4.766 -0.552,1.601 -0.327,3.319 0.464,5.81 h 10e-4 c 0.014,0.044 0.034,0.088 0.059,0.129 0.181,0.304 0.583,0.409 0.898,0.234 2.115,-1.172 3.235,-2.297 3.52,-3.741 m -2.399,-4.072 c 0.895,1.651 1.296,2.863 1.103,3.838 -0.173,0.88 -0.867,1.642 -2.16,2.452 -0.514,-1.81 -0.632,-3.106 -0.237,-4.251 0.235,-0.682 0.659,-1.337 1.294,-2.039 m -27.937,0.102 c 1.354,0.503 3.041,0.282 5.387,-0.46 0.31,0.456 0.63,0.968 0.969,1.54 0.181,0.305 0.584,0.411 0.901,0.236 0.316,-0.174 0.426,-0.563 0.245,-0.869 -1.446,-2.437 -2.616,-3.9 -4.134,-4.702 v 0 h -0.002 c -1.534,-0.811 -3.326,-0.906 -6.006,-0.6 v 0 c -0.048,0.006 -0.095,0.016 -0.142,0.032 -0.343,0.117 -0.524,0.48 -0.403,0.812 0.817,2.218 1.764,3.482 3.185,4.011 m 4.582,-1.545 c -1.842,0.553 -3.149,0.716 -4.107,0.36 -0.866,-0.323 -1.518,-1.118 -2.113,-2.491 1.935,-0.164 3.277,-0.043 4.372,0.535 v 0.001 c 0.653,0.345 1.245,0.865 1.848,1.595 m 9.875,-2.174 c -1.805,0.661 -3.099,0.9 -4.078,0.6 -0.884,-0.271 -1.585,-1.027 -2.266,-2.364 1.921,-0.277 3.268,-0.234 4.4,0.281 0.674,0.306 1.297,0.79 1.944,1.483 m -14.485,17.081 c 0.39,-1.346 -0.001,-2.946 -0.992,-5.13 0.441,-0.341 0.939,-0.698 1.496,-1.078 0.296,-0.203 0.367,-0.598 0.157,-0.884 -0.209,-0.286 -0.619,-0.354 -0.915,-0.152 -2.379,1.623 -3.777,2.887 -4.459,4.42 -0.689,1.55 -0.615,3.28 -0.043,5.826 h 10e-4 c 0.011,0.046 0.026,0.091 0.048,0.135 0.153,0.317 0.545,0.454 0.874,0.306 2.21,-0.997 3.423,-2.027 3.833,-3.443 m -2.033,-4.254 c 0.748,1.717 1.041,2.958 0.764,3.915 -0.25,0.863 -1.007,1.565 -2.366,2.268 -0.354,-1.845 -0.358,-3.146 0.135,-4.255 0.294,-0.661 0.773,-1.28 1.467,-1.928 m 23.539,21.086 c 0.467,-1.794 -0.135,-3.924 -1.571,-6.846 0.614,-0.507 1.314,-1.039 2.105,-1.61 0.292,-0.21 0.352,-0.609 0.134,-0.891 -0.218,-0.282 -0.632,-0.34 -0.924,-0.13 -3.09,2.229 -4.894,3.945 -5.735,5.983 -0.847,2.051 -0.684,4.33 0.163,7.677 v 0 c 0.012,0.045 0.029,0.091 0.051,0.134 0.163,0.314 0.558,0.441 0.883,0.284 2.863,-1.381 4.415,-2.76 4.894,-4.601 m -2.594,-5.948 c 1.182,2.467 1.678,4.243 1.314,5.639 -0.335,1.286 -1.441,2.332 -3.46,3.4 -0.612,-2.654 -0.692,-4.51 -0.028,-6.117 0.411,-0.996 1.119,-1.927 2.174,-2.922 M 0.364,11.575 C 0.413,10.051 1.445,8.381 3.378,6.206 L 3.526,6.374 C 3.67,6.605 3.817,6.839 3.966,7.076 3.975,7.091 3.985,7.105 3.995,7.119 4.458,8.057 4.733,8.923 4.823,9.782 5.019,11.627 4.368,13.516 2.924,16.084 1.148,14.402 0.318,13.005 0.364,11.575 m 10.77,-9.333 c -0.13,-1.362 0.603,-2.962 2.085,-5.113 0.832,1.079 1.352,2.051 1.586,3.042 0.38,1.605 0.025,3.34 -0.949,5.748 C 12.128,4.63 11.252,3.492 11.134,2.242 m 1.221,-6.152 c -1.806,2.561 -2.7,4.495 -2.532,6.267 0.173,1.823 1.435,3.358 3.943,5.079 0.297,0.204 0.708,0.137 0.919,-0.149 0.029,-0.04 0.053,-0.082 0.072,-0.125 v 0 c 1.319,-3.057 1.823,-5.199 1.333,-7.27 -0.486,-2.056 -1.936,-3.943 -4.527,-6.501 -0.254,-0.252 -0.671,-0.257 -0.932,-0.012 -0.261,0.244 -0.266,0.647 -0.013,0.898 0.657,0.649 1.235,1.248 1.737,1.813 m 17.358,-8.504 c -0.116,-0.987 0.377,-2.167 1.397,-3.747 0.579,0.746 0.95,1.43 1.132,2.128 0.304,1.17 0.087,2.454 -0.567,4.22 -1.225,-0.901 -1.857,-1.711 -1.962,-2.601 m 0.512,-4.773 c -1.337,2.004 -1.986,3.524 -1.822,4.912 0.171,1.46 1.2,2.664 3.219,3.987 0.301,0.196 0.71,0.121 0.914,-0.17 0.028,-0.039 0.05,-0.081 0.068,-0.125 l 10e-4,10e-4 c 0.984,-2.428 1.342,-4.125 0.916,-5.76 -0.421,-1.619 -1.593,-3.08 -3.673,-5.046 -0.259,-0.246 -0.676,-0.243 -0.931,0.008 -0.255,0.25 -0.252,0.652 0.008,0.898 0.488,0.462 0.92,0.89 1.3,1.295 m 5.855,-3.98 c -0.631,-0.784 -0.845,-2.039 -0.825,-3.901 0.897,0.347 1.584,0.745 2.115,1.25 0.889,0.845 1.394,2.051 1.788,3.888 -1.533,-0.156 -2.51,-0.53 -3.078,-1.237 M 33.946,-25.5 c -0.062,2.381 0.203,4.005 1.092,5.11 0.934,1.162 2.461,1.673 4.898,1.791 0.363,0.016 0.672,-0.255 0.689,-0.605 0.002,-0.048 -10e-4,-0.095 -0.009,-0.14 h 10e-4 c -0.468,-2.566 -1.077,-4.196 -2.324,-5.381 -1.232,-1.172 -3.021,-1.832 -5.858,-2.468 -0.355,-0.078 -0.708,0.136 -0.789,0.478 -0.081,0.343 0.14,0.684 0.495,0.762 0.664,0.149 1.264,0.298 1.805,0.453 m -39.86,-46.992 c -0.007,0.017 -0.012,0.034 -0.017,0.05 -0.18,0.518 -0.312,1.022 -0.358,1.517 -0.093,1.017 0.173,1.961 1.103,2.839 l 0.187,0.176 c 1.421,1.335 2.337,2.197 1.807,4.284 -0.055,0.213 0.08,0.429 0.301,0.481 0.221,0.052 0.444,-0.078 0.498,-0.291 0.644,-2.529 -0.405,-3.515 -2.031,-5.044 l -0.188,-0.176 c -0.723,-0.682 -0.93,-1.414 -0.858,-2.2 0.039,-0.422 0.156,-0.866 0.318,-1.331 l 0.006,-0.013 c 0.047,-0.115 0.09,-0.231 0.127,-0.347 0.136,-0.352 0.292,-0.715 0.454,-1.088 0.728,-1.667 0.902,-2.863 0.577,-4.033 -0.319,-1.148 -1.11,-2.222 -2.324,-3.678 -0.142,-0.171 -0.402,-0.199 -0.579,-0.061 -0.177,0.137 -0.205,0.387 -0.063,0.558 1.146,1.375 1.888,2.376 2.169,3.386 0.219,0.79 0.16,1.616 -0.206,2.677 -0.047,-0.119 -0.103,-0.233 -0.17,-0.339 -0.221,-0.357 -0.543,-0.634 -0.968,-0.796 -0.301,-0.115 -0.653,-0.17 -1.057,-0.153 -0.706,0.03 -1.136,-0.031 -1.403,-0.22 -0.26,-0.183 -0.415,-0.531 -0.567,-1.071 -0.171,-0.61 -0.657,-0.946 -1.299,-1.055 -0.419,-0.071 -0.908,-0.039 -1.409,0.081 -0.485,0.116 -0.987,0.316 -1.45,0.584 -1.145,0.662 -2.063,1.748 -1.966,3.052 0.016,0.219 0.213,0.384 0.441,0.369 0.227,-0.016 0.398,-0.206 0.382,-0.425 -0.072,-0.959 0.658,-1.79 1.565,-2.315 0.392,-0.227 0.816,-0.395 1.225,-0.493 0.391,-0.094 0.763,-0.121 1.071,-0.068 0.326,0.055 0.569,0.207 0.644,0.475 0.2,0.715 0.433,1.195 0.876,1.507 0.435,0.307 1.022,0.411 1.926,0.372 0.28,-0.012 0.519,0.025 0.717,0.1 0.25,0.096 0.438,0.256 0.566,0.463 0.139,0.224 0.214,0.505 0.229,0.82 0.016,0.352 -0.045,0.743 -0.179,1.145 -0.03,0.08 -0.06,0.16 -0.088,0.24 z m -0.794,13.974 c 0.226,-0.023 0.39,-0.219 0.366,-0.437 -0.024,-0.218 -0.227,-0.376 -0.453,-0.353 -1.683,0.176 -2.809,0.043 -3.699,-0.278 -0.888,-0.32 -1.575,-0.844 -2.352,-1.438 -1.076,-0.822 -1.928,-1.278 -2.733,-1.499 -0.821,-0.224 -1.573,-0.201 -2.442,-0.064 -1.713,0.269 -3.159,0.333 -4.084,-0.204 -0.889,-0.516 -1.337,-1.651 -1.136,-3.812 0.02,-0.218 -0.148,-0.41 -0.374,-0.429 -0.226,-0.019 -0.426,0.143 -0.445,0.361 -0.235,2.516 0.365,3.885 1.533,4.562 1.132,0.657 2.752,0.603 4.638,0.306 0.757,-0.119 1.403,-0.141 2.088,0.046 0.701,0.192 1.462,0.605 2.445,1.356 0.831,0.635 1.566,1.195 2.575,1.559 1.005,0.363 2.25,0.515 4.073,0.324 m -17.551,-2.018 c 0.224,0.039 0.439,-0.105 0.479,-0.322 0.04,-0.217 -0.11,-0.423 -0.334,-0.462 -0.675,-0.116 -1.294,-0.331 -1.824,-0.704 -0.529,-0.372 -0.983,-0.909 -1.333,-1.674 -0.092,-0.201 -0.335,-0.292 -0.543,-0.204 -0.209,0.089 -0.303,0.324 -0.212,0.525 0.412,0.899 0.959,1.541 1.604,1.994 0.646,0.454 1.378,0.712 2.163,0.847 m 12.059,29.975 c -0.49,-0.042 -0.931,-0.143 -1.325,-0.295 -0.869,-0.335 -1.521,-0.926 -1.972,-1.67 -0.467,-0.772 -0.719,-1.708 -0.771,-2.7 -0.063,-1.181 0.156,-2.435 0.632,-3.585 0.134,-0.326 -0.031,-0.695 -0.369,-0.824 -0.337,-0.129 -0.72,0.03 -0.854,0.356 -0.546,1.32 -0.797,2.759 -0.725,4.118 0.063,1.192 0.372,2.328 0.947,3.277 0.023,0.038 0.046,0.076 0.07,0.113 -0.223,-0.102 -0.448,-0.207 -0.676,-0.314 -2.601,-1.214 -5.49,-2.563 -9.596,-2.044 -0.36,0.046 -0.614,0.364 -0.567,0.712 0.047,0.348 0.377,0.594 0.738,0.548 3.713,-0.47 6.418,0.793 8.853,1.93 2.138,0.998 4.088,1.908 6.313,1.669 0.032,0 0.063,-0.001 0.095,-0.002 -0.954,0.74 -1.93,1.511 -2.885,2.35 -0.778,0.635 -1.633,1.15 -2.547,1.587 -0.016,-0.042 -0.037,-0.082 -0.064,-0.121 -1.596,-2.349 -2.856,-3.741 -4.422,-4.454 -1.572,-0.715 -3.357,-0.708 -5.995,-0.252 -0.061,0.007 -0.121,0.022 -0.18,0.046 -0.335,0.138 -0.491,0.511 -0.349,0.834 0.954,2.165 1.979,3.371 3.431,3.816 1.383,0.424 3.053,0.105 5.347,-0.773 0.327,0.424 0.667,0.898 1.028,1.428 -1.439,0.569 -2.989,1.005 -4.578,1.452 -3.456,0.973 -7.093,1.996 -10.354,4.524 -0.284,0.22 -0.329,0.62 -0.101,0.893 0.228,0.274 0.643,0.317 0.927,0.098 2.527,-1.959 5.359,-2.973 8.146,-3.795 -0.775,0.701 -1.541,1.509 -2.189,2.34 -0.218,0.281 -0.159,0.679 0.132,0.889 0.29,0.211 0.703,0.154 0.921,-0.127 0.683,-0.876 1.509,-1.726 2.329,-2.436 0.831,-0.717 1.644,-1.282 2.284,-1.571 0.083,-0.038 0.154,-0.09 0.211,-0.152 0.977,-0.291 1.931,-0.602 2.847,-0.967 -1.227,1.515 -2.311,3.267 -3.125,5.372 -0.067,0.172 -0.051,0.353 0.027,0.505 0.019,0.154 0.095,0.302 0.226,0.411 0.277,0.228 0.693,0.197 0.929,-0.07 3.746,-4.229 7.161,-6.324 10.224,-8.202 2.042,-1.253 3.933,-2.412 5.679,-4.028 1.217,4.011 1.876,6.411 2.064,8.364 0.199,2.078 -0.139,3.714 -0.908,6.37 -0.064,0.222 -0.126,0.439 -0.185,0.654 -1.494,4.154 -4.032,6.101 -6.565,8.044 -0.822,0.631 -1.643,1.261 -2.441,1.971 -0.268,0.237 -0.285,0.64 -0.039,0.898 0.247,0.259 0.664,0.276 0.932,0.038 0.289,-0.257 0.583,-0.505 0.882,-0.748 -0.198,1.632 0.757,2.805 1.694,3.956 0.9,1.105 1.78,2.186 1.041,3.714 -0.154,0.318 -0.012,0.696 0.317,0.844 0.33,0.149 0.721,0.012 0.875,-0.306 1.083,-2.24 -0.044,-3.624 -1.196,-5.039 -1.032,-1.267 -2.09,-2.567 -0.737,-4.721 1.5,-1.159 2.981,-2.367 4.254,-4.055 -0.344,2.577 -0.18,4.647 0.468,6.585 0.922,2.751 2.795,5.159 5.565,8.33 -2.217,2.471 -3.403,4.414 -3.465,6.317 -0.064,1.998 1.099,3.831 3.596,6.034 0.268,0.237 0.684,0.219 0.929,-0.04 0.034,-0.036 0.063,-0.074 0.087,-0.115 l 10e-4,10e-4 C 5.529,14.248 6.38,11.973 6.134,9.652 5.941,7.826 5.07,6.034 3.484,3.809 2.004,1.327 0.926,-0.797 0.336,-2.966 c -0.778,-2.858 -0.714,-5.842 0.388,-9.919 0.389,-1.44 0.722,-2.681 0.992,-3.819 0.787,2.726 2.237,4.468 3.787,5.962 1.203,1.247 0.596,2.568 -0.066,4.009 -0.722,1.57 -1.497,3.257 -0.694,5.292 0.13,0.328 0.511,0.493 0.851,0.368 0.341,-0.125 0.512,-0.493 0.382,-0.821 -0.609,-1.545 0.053,-2.985 0.669,-4.326 0.416,-0.906 0.815,-1.775 0.903,-2.642 0.478,0.445 0.939,0.895 1.359,1.373 0.235,0.269 0.651,0.302 0.929,0.075 0.278,-0.227 0.313,-0.628 0.078,-0.896 -0.691,-0.786 -1.455,-1.477 -2.233,-2.181 -2.454,-2.218 -5.051,-4.568 -5.247,-10.281 0.013,-0.138 0.025,-0.276 0.036,-0.415 0.162,-2.083 0.036,-4.278 -0.428,-7.35 1.147,1.203 2.442,2.375 3.728,3.539 2.216,2.006 4.405,3.987 5.671,5.991 1.237,1.957 2.321,4.226 3.225,6.568 1.014,2.626 1.802,5.343 2.326,7.821 0.073,0.343 0.42,0.565 0.777,0.495 0.036,-0.007 0.071,-0.017 0.105,-0.03 0.362,-0.004 0.653,-0.29 0.65,-0.639 -0.089,-9.411 -2.592,-15.041 -5.625,-19.132 1.322,0.648 2.808,1.042 4.781,1.21 1.59,0.245 3.212,1.629 4.303,3.893 0.997,2.068 1.534,4.846 1.202,8.155 -0.034,0.35 0.232,0.66 0.594,0.693 0.362,0.033 0.683,-0.224 0.717,-0.573 0.356,-3.553 -0.23,-6.557 -1.316,-8.808 -0.663,-1.376 -1.518,-2.479 -2.466,-3.267 0.025,0 0.05,-0.001 0.076,-0.001 1.541,-0.022 2.795,0.18 3.839,0.572 1.021,0.383 1.85,0.954 2.559,1.68 0.249,0.255 0.666,0.268 0.931,0.027 0.265,-0.241 0.278,-0.643 0.029,-0.899 -0.84,-0.858 -1.825,-1.536 -3.045,-1.993 -1.196,-0.449 -2.611,-0.681 -4.328,-0.657 -0.347,0.005 -0.679,0.005 -1,0.001 0.737,-0.343 1.387,-0.775 2.048,-1.215 0.717,-0.477 1.448,-0.964 2.323,-1.323 0.579,-0.238 1.103,-0.446 1.706,-0.564 0.611,-0.12 1.339,-0.157 2.35,-0.059 0.054,0.005 0.106,0.004 0.157,-0.003 0.534,0.085 1.074,0.204 1.618,0.364 0.348,0.102 0.715,-0.087 0.821,-0.423 0.105,-0.335 -0.091,-0.69 -0.439,-0.792 -4.074,-1.202 -7.81,-0.313 -10.528,0.333 -0.169,0.041 -0.329,0.079 -0.728,0.17 -3.518,0.81 -6.819,0.118 -9.531,-1.341 -0.371,-0.2 -0.731,-0.413 -1.079,-0.64 2.528,0.543 4.661,-0.452 7.024,-1.555 2.435,-1.137 5.139,-2.4 8.853,-1.93 0.36,0.045 0.691,-0.2 0.738,-0.548 0.047,-0.348 -0.208,-0.666 -0.568,-0.712 -4.105,-0.519 -6.995,0.83 -9.596,2.044 l -0.021,0.01 c 0.504,-0.909 0.778,-1.973 0.836,-3.086 0.072,-1.359 -0.179,-2.798 -0.725,-4.118 -0.134,-0.326 -0.516,-0.485 -0.854,-0.356 -0.338,0.129 -0.503,0.498 -0.369,0.824 0.476,1.15 0.695,2.404 0.633,3.585 -0.053,0.992 -0.305,1.928 -0.772,2.7 -0.45,0.744 -1.103,1.335 -1.972,1.67 -0.257,0.099 -0.534,0.176 -0.833,0.23 -1.747,0.25 -3.601,-0.171 -5.886,-2.03 -0.007,-0.006 -0.013,-0.011 -0.02,-0.016 -0.744,-0.937 -1.375,-1.913 -1.837,-2.988 -0.008,-0.017 -0.014,-0.034 -0.021,-0.051 -0.047,-0.121 -0.09,-0.242 -0.131,-0.363 l -10e-4,-0.004 c -0.794,-2.511 -0.868,-8.582 -0.92,-12.821 -0.015,-1.269 -0.029,-2.378 -0.058,-3.173 -0.063,-1.688 0.49,-2.623 1.402,-3.095 0.998,-0.515 2.458,-0.559 4.056,-0.423 1.066,0.091 1.88,0.103 2.804,-0.181 0.893,-0.275 1.829,-0.819 3.132,-1.838 0.834,-0.652 1.352,-0.928 1.985,-0.875 0.74,0.061 1.758,0.507 3.519,1.283 2.453,1.081 4.334,0.172 7.895,-1.551 0.595,-0.288 1.242,-0.601 2.071,-0.988 0.328,-0.152 0.465,-0.533 0.307,-0.849 -0.158,-0.316 -0.552,-0.449 -0.88,-0.296 -0.686,0.32 -1.416,0.673 -2.086,0.998 -3.193,1.544 -4.879,2.36 -6.76,1.531 -1.901,-0.837 -3,-1.319 -3.952,-1.398 -1.059,-0.089 -1.806,0.28 -2.93,1.159 -1.167,0.913 -1.973,1.391 -2.699,1.614 -0.696,0.214 -1.378,0.199 -2.292,0.121 -1.817,-0.154 -3.517,-0.085 -4.789,0.573 -0.46,0.237 -0.858,0.543 -1.181,0.932 0.083,-1.055 0.257,-2.147 0.579,-3.115 0.451,-1.36 1.194,-2.463 2.392,-2.807 0.052,-0.012 0.102,-0.027 0.15,-0.042 0.376,-0.105 0.714,-0.189 1.018,-0.249 0.335,-0.067 0.631,-0.105 0.893,-0.113 4.382,-0.121 5.663,-1.862 6.975,-3.646 1.157,-1.574 2.342,-3.185 6.125,-3.528 0.226,-0.02 0.393,-0.213 0.373,-0.431 -0.021,-0.219 -0.221,-0.38 -0.447,-0.36 -4.162,0.378 -5.457,2.138 -6.722,3.859 -1.192,1.621 -2.356,3.203 -6.327,3.313 -0.209,0.005 -0.431,0.027 -0.67,0.064 0.048,-0.099 0.09,-0.2 0.126,-0.301 0.204,-0.575 0.222,-1.168 0.221,-1.438 -10e-4,-1.466 0.289,-1.719 1.742,-2.988 l 0.044,-0.038 c 2.119,0.88 3.451,-0.666 4.797,-2.228 1.002,-1.163 2.014,-2.337 3.297,-2.233 0.227,0.018 0.426,-0.145 0.445,-0.364 0.019,-0.22 -0.15,-0.412 -0.377,-0.43 -1.707,-0.138 -2.857,1.197 -3.997,2.52 -1.047,1.216 -2.085,2.419 -3.472,2.116 0.542,-0.531 0.909,-1.08 1.128,-1.632 0.279,-0.707 0.314,-1.416 0.156,-2.102 -0.126,-0.547 -0.374,-1.075 -0.718,-1.571 -0.353,-0.512 -0.811,-0.993 -1.341,-1.428 -0.173,-0.142 -0.432,-0.122 -0.579,0.045 -0.147,0.167 -0.126,0.417 0.047,0.558 0.471,0.387 0.877,0.814 1.19,1.267 0.288,0.417 0.495,0.854 0.598,1.3 0.123,0.536 0.096,1.092 -0.124,1.648 -0.208,0.525 -0.588,1.054 -1.175,1.571 l -0.164,0.144 c -0.049,0.028 -0.092,0.065 -0.126,0.111 -0.107,0.094 -0.143,0.125 -0.18,0.158 -1.68,1.466 -2.015,1.759 -2.013,3.576 0,0.224 -0.014,0.713 -0.179,1.179 -0.136,0.383 -0.381,0.749 -0.822,0.896 l -0.132,0.037 c -1.503,0.434 -2.408,1.734 -2.936,3.324 -0.597,1.798 -0.714,3.977 -0.68,5.625 -0.036,0.328 -0.047,0.68 -0.033,1.06 0.03,0.81 0.043,1.898 0.058,3.143 0.052,4.282 0.127,10.391 0.97,13.154 0.004,0.015 0.008,0.03 0.013,0.046 0.002,0.005 0.004,0.01 0.006,0.016 0.057,0.181 0.117,0.347 0.182,0.497 l 0.004,0.009 c 0.686,1.729 1.907,3.49 3.526,5.01 0.571,0.608 1.172,1.213 1.79,1.835 3.823,3.847 8.298,8.353 9.607,18.063 -0.286,-0.878 -0.597,-1.758 -0.933,-2.627 -0.934,-2.418 -2.054,-4.762 -3.334,-6.787 -1.359,-2.152 -3.612,-4.191 -5.893,-6.255 -3.53,-3.195 -7.13,-6.454 -7.198,-9.988 -0.006,-0.35 -0.305,-0.63 -0.668,-0.624 -0.364,0.005 -0.654,0.294 -0.648,0.644 0.012,0.64 0.117,1.265 0.298,1.876 -2.382,3.632 -5.176,5.346 -8.351,7.293 -2.419,1.484 -5.052,3.099 -7.907,5.765 1.259,-2.008 2.809,-3.626 4.424,-5.046 0.132,-0.109 0.261,-0.221 0.389,-0.336 0.977,-0.836 1.972,-1.605 2.934,-2.35 2.607,-2.016 4.988,-3.858 6.294,-6.379 1.146,-2.214 1.237,-9.423 1.296,-14.072 0.015,-1.163 0.028,-2.162 0.055,-2.887 0.004,-0.102 0.005,-0.201 0.006,-0.3 0.085,-1.688 0.041,-4.294 -0.654,-6.385 -0.528,-1.59 -1.432,-2.89 -2.936,-3.324 l -0.132,-0.037 c -0.441,-0.147 -0.685,-0.513 -0.821,-0.896 -0.166,-0.466 -0.18,-0.955 -0.18,-1.179 0.002,-1.817 -0.333,-2.11 -2.013,-3.576 -0.037,-0.033 -0.073,-0.064 -0.18,-0.158 -0.034,-0.046 -0.077,-0.083 -0.126,-0.111 l -0.163,-0.144 c -0.587,-0.517 -0.968,-1.046 -1.176,-1.571 -0.219,-0.556 -0.247,-1.112 -0.123,-1.648 0.102,-0.446 0.309,-0.883 0.597,-1.3 0.314,-0.453 0.719,-0.88 1.191,-1.267 0.172,-0.141 0.193,-0.391 0.046,-0.558 -0.147,-0.167 -0.406,-0.187 -0.578,-0.045 -0.531,0.435 -0.989,0.916 -1.342,1.428 -0.344,0.496 -0.592,1.024 -0.718,1.571 -0.158,0.686 -0.123,1.395 0.156,2.102 0.219,0.552 0.587,1.101 1.129,1.632 -1.388,0.304 -2.425,-0.9 -3.473,-2.116 -1.14,-1.323 -2.29,-2.658 -3.996,-2.52 -0.227,0.018 -0.396,0.21 -0.378,0.43 0.019,0.219 0.218,0.382 0.445,0.364 1.284,-0.104 2.295,1.07 3.297,2.233 1.346,1.562 2.678,3.108 4.797,2.228 l 0.044,0.038 c 1.453,1.269 1.743,1.522 1.742,2.988 -10e-4,0.27 0.017,0.863 0.221,1.438 0.036,0.101 0.078,0.202 0.126,0.301 -0.238,-0.037 -0.461,-0.059 -0.67,-0.064 -3.971,-0.11 -5.134,-1.692 -6.327,-3.313 -1.265,-1.721 -2.56,-3.481 -6.722,-3.859 -0.226,-0.02 -0.426,0.141 -0.446,0.36 -0.021,0.218 0.146,0.411 0.372,0.431 3.783,0.343 4.968,1.954 6.126,3.528 1.312,1.784 2.592,3.525 6.974,3.646 0.262,0.008 0.558,0.046 0.893,0.113 0.304,0.06 0.643,0.144 1.018,0.249 0.049,0.015 0.099,0.03 0.15,0.042 1.198,0.344 1.941,1.447 2.393,2.807 0.33,0.995 0.504,2.123 0.585,3.205 -0.335,-0.432 -0.759,-0.766 -1.253,-1.022 -1.273,-0.658 -2.972,-0.727 -4.789,-0.573 -0.914,0.078 -1.597,0.093 -2.293,-0.121 -0.725,-0.223 -1.531,-0.701 -2.699,-1.614 -1.124,-0.879 -1.871,-1.248 -2.929,-1.159 -0.952,0.079 -2.052,0.561 -3.952,1.398 -1.881,0.829 -3.567,0.013 -6.76,-1.531 -0.671,-0.325 -1.401,-0.678 -2.087,-0.998 -0.328,-0.153 -0.721,-0.02 -0.88,0.296 -0.158,0.316 -0.02,0.697 0.307,0.849 0.83,0.387 1.477,0.7 2.072,0.988 3.561,1.723 5.441,2.632 7.895,1.551 1.761,-0.776 2.779,-1.222 3.518,-1.283 0.634,-0.053 1.152,0.223 1.986,0.875 1.302,1.019 2.238,1.563 3.132,1.838 0.923,0.284 1.737,0.272 2.803,0.181 1.598,-0.136 3.059,-0.092 4.056,0.423 0.913,0.472 1.466,1.407 1.403,3.095 -0.027,0.709 -0.04,1.729 -0.055,2.916 -0.057,4.531 -0.147,11.557 -1.162,13.519 -0.567,1.095 -1.387,2.07 -2.363,3.001 -1.858,1.506 -3.431,2.059 -4.895,2.075 z M 22.447,-61.32 c -0.224,0.039 -0.373,0.245 -0.333,0.462 0.04,0.217 0.254,0.361 0.479,0.322 0.785,-0.135 1.516,-0.393 2.162,-0.847 0.646,-0.453 1.193,-1.095 1.604,-1.994 0.091,-0.201 -0.003,-0.436 -0.212,-0.525 -0.208,-0.088 -0.451,0.003 -0.543,0.204 -0.349,0.765 -0.803,1.302 -1.333,1.674 -0.53,0.373 -1.149,0.588 -1.824,0.704"
             style="fill:#00a4e4;fill-opacity:1;fill-rule:nonzero;stroke:none"
             id="path173" /></g></g></g><text
       transform="matrix(1,0,0,-1,1048.8115,890.68888)"
       style="font-style:normal;font-variant:normal;font-weight:bold;font-stretch:normal;font-size:29px;font-family:'BIZ UDPGothic';-inkscape-font-specification:'BIZ UDPGothic Bold';writing-mode:lr-tb;white-space:pre;inline-size:244.745;fill:#454545;fill-opacity:1;fill-rule:nonzero;stroke:none"
       id="text179"
       x="62.134766"
       y="0"
       xml:space="preserve"><tspan
         x="62.134766"
         y="0"
         id="tspan503"><tspan
           style="text-align:center;text-anchor:middle"
           id="tspan497">業界「内」</tspan><tspan
           style="text-align:center;text-anchor:middle"
           id="tspan499">で</tspan><tspan
           style="text-align:center;text-anchor:middle"
           id="tspan501">協調的</tspan></tspan></text><g
       id="g181"><g
         id="g183"
         clip-path="url(#clipPath187)"><g
           id="g189"
           transform="translate(1308.71,1005.576)"><path
             d="m 0,0 c 0,-35.649 -28.899,-64.548 -64.548,-64.548 -35.65,0 -64.549,28.899 -64.549,64.548 0,35.649 28.899,64.549 64.549,64.549 C -28.899,64.549 0,35.649 0,0 Z"
             style="fill:none;stroke:#159bd7;stroke-width:4;stroke-linecap:butt;stroke-linejoin:miter;stroke-miterlimit:10;stroke-dasharray:none;stroke-opacity:1"
             id="path191" /></g><g
           id="g193"
           transform="translate(1217.7811,988.8734)"><path
             d="m 0,0 -7.11,-7.085 c -0.007,-0.005 -1.467,-1.104 -1.603,-2.932 -0.12,-1.623 0.788,-3.416 2.703,-5.331 l 1.867,-1.867 c 1.8,-1.801 3.499,-2.714 5.048,-2.714 2.008,0 3.203,1.597 3.215,1.614 l 0.141,0.165 6.944,6.945 c -0.281,1.035 -0.687,3.048 2.167,5.902 l 6.112,6.113 c 0.553,0.552 1.32,0.816 2.111,0.706 0.821,-0.114 2.546,-0.195 3.586,0.049 L 12.769,13.977 C 12.464,12.689 12.625,11.086 12.721,10.389 12.829,9.607 12.572,8.837 12.015,8.28 L 5.902,2.167 C 4.313,0.578 2.817,-0.194 1.327,-0.194 0.776,-0.194 0.326,-0.087 0,0 m 0.905,-22.57 c -2.276,0 -4.601,1.173 -6.915,3.486 l -1.867,1.869 c -2.501,2.501 -3.668,5.006 -3.465,7.447 0.224,2.724 2.115,4.376 2.592,4.752 l 7.249,7.25 c 0.225,0.226 0.621,0.497 1.22,0.497 0.319,0 0.593,-0.077 0.858,-0.151 0.248,-0.068 0.482,-0.133 0.75,-0.133 0.742,0 1.654,0.535 2.707,1.587 l 6.113,6.113 c -0.216,1.148 -0.396,3.549 0.358,5.411 0.344,0.846 1.161,1.393 2.084,1.393 0.606,0 1.175,-0.236 1.605,-0.664 L 27.492,2.988 c 0.54,-0.54 0.771,-1.308 0.619,-2.058 -0.15,-0.74 -0.655,-1.349 -1.348,-1.63 -0.907,-0.368 -2.035,-0.555 -3.353,-0.555 -0.877,0 -1.667,0.085 -2.176,0.155 l -5.993,-6.071 c -1.89,-1.89 -1.639,-2.795 -1.455,-3.457 0.122,-0.44 0.376,-1.355 -0.346,-2.079 l -7.249,-7.248 c -0.4,-0.507 -2.245,-2.615 -5.286,-2.615"
             style="fill:#00a4e4;fill-opacity:1;fill-rule:evenodd;stroke:none"
             id="path195" /></g><g
           id="g197"
           transform="translate(1240.3683,994.4265)"><path
             d="m 0,0 -1.875,1.859 27.764,27.993 11.07,5.606 3.935,7.057 -4.149,4.201 -7.093,-3.9 -0.099,-0.209 -5.53,-10.889 -0.151,-0.15 L -3.97,3.954 -5.829,5.829 21.861,33.293 27.16,43.731 c 0.226,0.592 0.653,1.084 1.209,1.393 l 7.034,3.908 c 1.045,0.581 2.364,0.396 3.209,-0.449 l 4.142,-4.142 c 0.845,-0.845 1.03,-2.164 0.449,-3.209 L 39.295,34.198 C 38.986,33.642 38.494,33.216 37.902,32.991 L 27.464,27.69 Z"
             style="fill:#00a4e4;fill-opacity:1;fill-rule:evenodd;stroke:none"
             id="path199" /></g><g
           id="g201"
           transform="translate(1227.4913,1017.8231)"><path
             d="m 0,0 c 0.343,0 0.681,-0.133 0.935,-0.386 l 7.102,-7.102 5.573,4.897 -7.44,7.44 C 5.789,5.229 5.678,5.803 5.888,6.298 7.815,10.853 6.805,16.052 3.313,19.545 1.185,21.673 -1.52,22.8 -4.506,22.8 c -1.04,0 -2.088,-0.136 -3.134,-0.406 l 6.902,-6.901 c 0.516,-0.516 0.516,-1.352 0,-1.869 L -7.84,6.522 c -0.495,-0.495 -1.374,-0.495 -1.869,0 l -6.79,6.791 c -1.09,-4.097 -0.135,-7.969 2.739,-10.842 2.276,-2.277 5.304,-3.53 8.525,-3.53 1.634,0 3.222,0.321 4.721,0.955 C -0.349,-0.033 -0.173,0 0,0 m 7.978,-10.617 c -0.338,0 -0.676,0.129 -0.933,0.386 l -7.37,7.369 C -1.899,-3.419 -3.547,-3.7 -5.235,-3.7 c -3.926,0 -7.617,1.528 -10.393,4.304 -4.054,4.054 -5.046,9.904 -2.653,15.647 0.169,0.407 0.531,0.703 0.963,0.787 0.433,0.087 0.878,-0.05 1.19,-0.36 l 7.354,-7.355 5.235,5.236 -7.471,7.471 c -0.311,0.312 -0.447,0.758 -0.361,1.19 0.084,0.433 0.38,0.793 0.787,0.962 2.002,0.835 4.047,1.259 6.078,1.259 3.702,0 7.052,-1.393 9.687,-4.029 4.043,-4.044 5.359,-9.964 3.465,-15.304 l 7.828,-7.827 c 0.258,-0.258 0.398,-0.612 0.386,-0.976 -0.012,-0.366 -0.174,-0.709 -0.448,-0.95 L 8.851,-10.289 C 8.6,-10.509 8.289,-10.617 7.978,-10.617"
             style="fill:#00a4e4;fill-opacity:1;fill-rule:evenodd;stroke:none"
             id="path203" /></g><g
           id="g205"
           transform="translate(1249.5807,996.2819)"><path
             d="m 0,0 7.431,-7.43 c 0.383,-0.384 0.494,-0.961 0.277,-1.459 -1.954,-4.518 -0.982,-9.673 2.479,-13.136 2.842,-2.842 6.788,-3.811 10.841,-2.737 l -6.671,6.671 c -0.248,0.247 -0.387,0.583 -0.387,0.934 0,0.35 0.139,0.685 0.387,0.934 l 7.104,7.103 c 0.495,0.495 1.372,0.495 1.867,0 l 6.783,-6.784 c 1.047,4.076 0.039,8.064 -2.85,10.953 -2.239,2.24 -5.205,3.472 -8.352,3.472 -1.65,0 -3.26,-0.334 -4.784,-0.994 -0.497,-0.216 -1.075,-0.106 -1.458,0.278 L 5.235,5.236 Z m 17.782,-27.839 c -3.608,0 -6.881,1.365 -9.462,3.947 -4.019,4.019 -5.296,9.9 -3.37,15.208 l -7.751,7.75 c -0.516,0.517 -0.516,1.353 0,1.868 L 4.301,8.037 C 4.796,8.534 5.673,8.534 6.168,8.038 L 13.92,0.287 c 1.603,0.581 3.279,0.875 4.989,0.875 3.852,0 7.482,-1.507 10.219,-4.244 4.129,-4.13 5.165,-10.023 2.771,-15.767 -0.169,-0.406 -0.53,-0.702 -0.963,-0.788 -0.432,-0.085 -0.877,0.05 -1.19,0.363 l -7.352,7.353 -5.236,-5.236 7.234,-7.234 c 0.312,-0.312 0.448,-0.758 0.362,-1.191 -0.084,-0.432 -0.38,-0.793 -0.787,-0.963 -2.061,-0.858 -4.142,-1.294 -6.185,-1.294"
             style="fill:#00a4e4;fill-opacity:1;fill-rule:evenodd;stroke:none"
             id="path207" /></g></g></g><text
       xml:space="preserve"
       style="font-style:normal;font-weight:normal;font-size:30px;line-height:1.25;font-family:sans-serif;fill:#000000;fill-opacity:1;stroke:none;stroke-width:0.75"
       x="1213.0007"
       y="-896.8645"
       id="text6117"
       transform="scale(1,-1)"><tspan
         sodipodi:role="line"
         id="tspan6115"
         style="stroke-width:0.75"
         x="1213.0007"
         y="-896.8645" /></text><text
       xml:space="preserve"
       style="font-style:normal;font-weight:normal;font-size:30px;line-height:1.25;font-family:sans-serif;fill:#000000;fill-opacity:1;stroke:none;stroke-width:0.75"
       x="1180.3562"
       y="-903.737"
       id="text6967"
       transform="scale(1,-1)"><tspan
         sodipodi:role="line"
         id="tspan6965"
         style="stroke-width:0.75"
         x="1180.3562"
         y="-903.737" /></text><text
       xml:space="preserve"
       transform="matrix(0.75000002,0,0,-0.75000002,0,1388.25)"
       id="text41310"
       style="fill:black;fill-opacity:1;line-height:1.25;stroke:none;font-family:sans-serif;font-style:normal;font-weight:normal;font-size:40px;white-space:pre;shape-inside:url(#rect41312)" /><text
       xml:space="preserve"
       style="font-style:normal;font-weight:normal;font-size:30px;line-height:1.25;font-family:sans-serif;fill:#000000;fill-opacity:1;stroke:none;stroke-width:0.75"
       x="-6.8725247"
       y="-620.2453"
       id="text51199"
       transform="scale(1,-1)"><tspan
         sodipodi:role="line"
         id="tspan51197"
         style="stroke-width:0.75" /></text><text
       xml:space="preserve"
       transform="matrix(0.75000002,0,0,-0.75000002,0,1388.25)"
       id="text54869"
       style="fill:black;fill-opacity:1;line-height:1.25;stroke:none;font-family:sans-serif;font-style:normal;font-weight:normal;font-size:40px;white-space:pre;shape-inside:url(#rect54871)" /></g></svg>
