<svg xmlns="http://www.w3.org/2000/svg" xmlns:xlink="http://www.w3.org/1999/xlink" viewBox="0 0 96 38" fill="#fff" fill-rule="evenodd" stroke="#000" stroke-linecap="round" stroke-linejoin="round"><use xlink:href="#A" x=".5" y=".5"/><symbol id="A" overflow="visible"><g stroke="none" fill-rule="nonzero"><path d="M0 18.192C0 8.114 8.114 0 18.192 0s18.192 8.114 18.192 18.192-8.114 18.192-18.192 18.192S0 28.27 0 18.192z" fill="#a1d33c"/><path d="M13.727 25.325c-.3.948-.676 1.47-1.933 1.47-1.083 0-1.546-.407-1.546-1.083a2.17 2.17 0 0 1 .116-.676l4.33-15.196c.3-.966.676-1.47 1.914-1.47 1.102 0 1.585.407 1.585 1.063 0 .232-.078.473-.135.715zm8.313 0c-.3.948-.676 1.47-1.933 1.47-1.083 0-1.546-.407-1.546-1.083a2.19 2.19 0 0 1 .116-.676l4.33-15.196c.3-.966.676-1.47 1.914-1.47 1.102 0 1.585.407 1.585 1.063 0 .232-.078.473-.135.715z"/><path d="M48.08 24.494c0 .232 0 .407-.096.56s-.33.252-.62.252c-.31 0-.54-.096-.638-.252s-.096-.33-.096-.56V15.6h-2.958c-.213 0-.378-.02-.54-.116-.135-.096-.213-.27-.213-.522 0-.27.078-.445.213-.54.155-.096.33-.116.54-.116h7.347c.213 0 .378.02.54.116.135.096.213.27.213.522 0 .27-.078.444-.213.54-.155.097-.33.116-.54.116H48.08zm12.43-10.458c3.443 0 5.588 2.378 5.588 5.675 0 3.364-2.204 5.722-5.646 5.722s-5.588-2.378-5.588-5.675c0-3.364 2.204-5.722 5.646-5.722zm0 10.15c2.494 0 4.08-1.624 4.08-4.447 0-2.842-1.624-4.485-4.118-4.485s-4.08 1.624-4.08 4.447c0 2.86 1.605 4.485 4.118 4.485zm16.8.038c-1.352.89-3.074 1.083-4.582 1.083-1.005 0-1.837-.078-2.262-.213s-.473-.367-.473-.85v-8.97c0-.54.135-.774.792-.908.473-.097 1.324-.174 2.262-.174 1.76 0 3.268.232 4.447 1.063 1.16.813 2.05 2.223 2.05 4.426-.02 2.398-1.063 3.77-2.223 4.544zm-5.858-.252a12.21 12.21 0 0 0 1.508.077c1.49 0 5.046-.193 5.046-4.273 0-1.702-.618-2.784-1.49-3.443-.85-.657-1.953-.89-3.443-.89-1.044 0-1.644.116-1.644.116v8.4zm17.525-9.936c3.443 0 5.588 2.378 5.588 5.675 0 3.364-2.204 5.722-5.646 5.722s-5.588-2.378-5.588-5.675c.02-3.364 2.223-5.722 5.646-5.722zm0 10.15c2.494 0 4.08-1.624 4.08-4.447 0-2.842-1.624-4.485-4.118-4.485s-4.08 1.624-4.08 4.447c0 2.86 1.624 4.485 4.118 4.485z" fill="#231f20"/></g></symbol></svg>